<?xml version="1.0" encoding="utf-8" standalone="no"?>
<!DOCTYPE svg PUBLIC "-//W3C//DTD SVG 1.1//EN"
  "http://www.w3.org/Graphics/SVG/1.1/DTD/svg11.dtd">
<svg xmlns:xlink="http://www.w3.org/1999/xlink" width="567.81625pt" height="424.800859pt" viewBox="0 0 567.81625 424.800859" xmlns="http://www.w3.org/2000/svg" version="1.1">
 <metadata>
  <rdf:RDF xmlns:dc="http://purl.org/dc/elements/1.1/" xmlns:cc="http://creativecommons.org/ns#" xmlns:rdf="http://www.w3.org/1999/02/22-rdf-syntax-ns#">
   <cc:Work>
    <dc:type rdf:resource="http://purl.org/dc/dcmitype/StillImage"/>
    <dc:date>2026-07-12T16:00:31.548408</dc:date>
    <dc:format>image/svg+xml</dc:format>
    <dc:creator>
     <cc:Agent>
      <dc:title>Matplotlib v3.11.0, https://matplotlib.org/</dc:title>
     </cc:Agent>
    </dc:creator>
   </cc:Work>
  </rdf:RDF>
 </metadata>
 <defs>
  <style type="text/css">*{stroke-linejoin: round; stroke-linecap: butt}</style>
 </defs>
 <g id="figure_1">
  <g id="patch_1">
   <path d="M 0 424.800859 
L 567.81625 424.800859 
L 567.81625 0 
L 0 0 
z
" style="fill: #ffffff"/>
  </g>
  <g id="axes_1">
   <g id="patch_2">
    <path d="M 112.09625 387.600859 
L 560.61625 387.600859 
L 560.61625 21.558281 
L 112.09625 21.558281 
z
" style="fill: #ffffff"/>
   </g>
   <g id="matplotlib.axis_1">
    <g id="xtick_1">
     <g id="line2d_1">
      <path d="M 112.09625 387.600859 
L 112.09625 21.558281 
" clip-path="url(#p9abde773b8)" style="fill: none; stroke: #dddddd; stroke-width: 0.6; stroke-linecap: square"/>
     </g>
     <g id="line2d_2">
      <defs>
       <path id="m9cfe27c31b" d="M 0 0 
L 0 3.5 
" style="stroke: #000000; stroke-width: 0.8"/>
      </defs>
      <g>
       <use xlink:href="#m9cfe27c31b" x="112.09625" y="387.600859" style="stroke: #000000; stroke-width: 0.8"/>
      </g>
     </g>
     <g id="text_1">
      <!-- 0 -->
      <g transform="translate(109.233125 401.43875) scale(0.09 -0.09)">
       <defs>
        <path id="DejaVuSans-13" d="M 2034 4250 
Q 1547 4250 1301 3770 
Q 1056 3291 1056 2328 
Q 1056 1369 1301 889 
Q 1547 409 2034 409 
Q 2525 409 2770 889 
Q 3016 1369 3016 2328 
Q 3016 3291 2770 3770 
Q 2525 4250 2034 4250 
z
M 2034 4750 
Q 2819 4750 3233 4129 
Q 3647 3509 3647 2328 
Q 3647 1150 3233 529 
Q 2819 -91 2034 -91 
Q 1250 -91 836 529 
Q 422 1150 422 2328 
Q 422 3509 836 4129 
Q 1250 4750 2034 4750 
z
" transform="scale(0.015625)"/>
       </defs>
       <use xlink:href="#DejaVuSans-13"/>
      </g>
     </g>
    </g>
    <g id="xtick_2">
     <g id="line2d_3">
      <path d="M 197.528631 387.600859 
L 197.528631 21.558281 
" clip-path="url(#p9abde773b8)" style="fill: none; stroke: #dddddd; stroke-width: 0.6; stroke-linecap: square"/>
     </g>
     <g id="line2d_4">
      <g>
       <use xlink:href="#m9cfe27c31b" x="197.528631" y="387.600859" style="stroke: #000000; stroke-width: 0.8"/>
      </g>
     </g>
     <g id="text_2">
      <!-- 1 -->
      <g transform="translate(194.665506 401.43875) scale(0.09 -0.09)">
       <defs>
        <path id="DejaVuSans-14" d="M 794 531 
L 1825 531 
L 1825 4091 
L 703 3866 
L 703 4441 
L 1819 4666 
L 2450 4666 
L 2450 531 
L 3481 531 
L 3481 0 
L 794 0 
L 794 531 
z
" transform="scale(0.015625)"/>
       </defs>
       <use xlink:href="#DejaVuSans-14"/>
      </g>
     </g>
    </g>
    <g id="xtick_3">
     <g id="line2d_5">
      <path d="M 282.961012 387.600859 
L 282.961012 21.558281 
" clip-path="url(#p9abde773b8)" style="fill: none; stroke: #dddddd; stroke-width: 0.6; stroke-linecap: square"/>
     </g>
     <g id="line2d_6">
      <g>
       <use xlink:href="#m9cfe27c31b" x="282.961012" y="387.600859" style="stroke: #000000; stroke-width: 0.8"/>
      </g>
     </g>
     <g id="text_3">
      <!-- 2 -->
      <g transform="translate(280.097887 401.43875) scale(0.09 -0.09)">
       <defs>
        <path id="DejaVuSans-15" d="M 1228 531 
L 3431 531 
L 3431 0 
L 469 0 
L 469 531 
Q 828 903 1448 1529 
Q 2069 2156 2228 2338 
Q 2531 2678 2651 2914 
Q 2772 3150 2772 3378 
Q 2772 3750 2511 3984 
Q 2250 4219 1831 4219 
Q 1534 4219 1204 4116 
Q 875 4013 500 3803 
L 500 4441 
Q 881 4594 1212 4672 
Q 1544 4750 1819 4750 
Q 2544 4750 2975 4387 
Q 3406 4025 3406 3419 
Q 3406 3131 3298 2873 
Q 3191 2616 2906 2266 
Q 2828 2175 2409 1742 
Q 1991 1309 1228 531 
z
" transform="scale(0.015625)"/>
       </defs>
       <use xlink:href="#DejaVuSans-15"/>
      </g>
     </g>
    </g>
    <g id="xtick_4">
     <g id="line2d_7">
      <path d="M 368.393393 387.600859 
L 368.393393 21.558281 
" clip-path="url(#p9abde773b8)" style="fill: none; stroke: #dddddd; stroke-width: 0.6; stroke-linecap: square"/>
     </g>
     <g id="line2d_8">
      <g>
       <use xlink:href="#m9cfe27c31b" x="368.393393" y="387.600859" style="stroke: #000000; stroke-width: 0.8"/>
      </g>
     </g>
     <g id="text_4">
      <!-- 3 -->
      <g transform="translate(365.530268 401.43875) scale(0.09 -0.09)">
       <defs>
        <path id="DejaVuSans-16" d="M 2597 2516 
Q 3050 2419 3304 2112 
Q 3559 1806 3559 1356 
Q 3559 666 3084 287 
Q 2609 -91 1734 -91 
Q 1441 -91 1130 -33 
Q 819 25 488 141 
L 488 750 
Q 750 597 1062 519 
Q 1375 441 1716 441 
Q 2309 441 2620 675 
Q 2931 909 2931 1356 
Q 2931 1769 2642 2001 
Q 2353 2234 1838 2234 
L 1294 2234 
L 1294 2753 
L 1863 2753 
Q 2328 2753 2575 2939 
Q 2822 3125 2822 3475 
Q 2822 3834 2567 4026 
Q 2313 4219 1838 4219 
Q 1578 4219 1281 4162 
Q 984 4106 628 3988 
L 628 4550 
Q 988 4650 1302 4700 
Q 1616 4750 1894 4750 
Q 2613 4750 3031 4423 
Q 3450 4097 3450 3541 
Q 3450 3153 3228 2886 
Q 3006 2619 2597 2516 
z
" transform="scale(0.015625)"/>
       </defs>
       <use xlink:href="#DejaVuSans-16"/>
      </g>
     </g>
    </g>
    <g id="xtick_5">
     <g id="line2d_9">
      <path d="M 453.825774 387.600859 
L 453.825774 21.558281 
" clip-path="url(#p9abde773b8)" style="fill: none; stroke: #dddddd; stroke-width: 0.6; stroke-linecap: square"/>
     </g>
     <g id="line2d_10">
      <g>
       <use xlink:href="#m9cfe27c31b" x="453.825774" y="387.600859" style="stroke: #000000; stroke-width: 0.8"/>
      </g>
     </g>
     <g id="text_5">
      <!-- 4 -->
      <g transform="translate(450.962649 401.43875) scale(0.09 -0.09)">
       <defs>
        <path id="DejaVuSans-17" d="M 2419 4116 
L 825 1625 
L 2419 1625 
L 2419 4116 
z
M 2253 4666 
L 3047 4666 
L 3047 1625 
L 3713 1625 
L 3713 1100 
L 3047 1100 
L 3047 0 
L 2419 0 
L 2419 1100 
L 313 1100 
L 313 1709 
L 2253 4666 
z
" transform="scale(0.015625)"/>
       </defs>
       <use xlink:href="#DejaVuSans-17"/>
      </g>
     </g>
    </g>
    <g id="xtick_6">
     <g id="line2d_11">
      <path d="M 539.258155 387.600859 
L 539.258155 21.558281 
" clip-path="url(#p9abde773b8)" style="fill: none; stroke: #dddddd; stroke-width: 0.6; stroke-linecap: square"/>
     </g>
     <g id="line2d_12">
      <g>
       <use xlink:href="#m9cfe27c31b" x="539.258155" y="387.600859" style="stroke: #000000; stroke-width: 0.8"/>
      </g>
     </g>
     <g id="text_6">
      <!-- 5 -->
      <g transform="translate(536.39503 401.43875) scale(0.09 -0.09)">
       <defs>
        <path id="DejaVuSans-18" d="M 691 4666 
L 3169 4666 
L 3169 4134 
L 1269 4134 
L 1269 2991 
Q 1406 3038 1543 3061 
Q 1681 3084 1819 3084 
Q 2600 3084 3056 2656 
Q 3513 2228 3513 1497 
Q 3513 744 3044 326 
Q 2575 -91 1722 -91 
Q 1428 -91 1123 -41 
Q 819 9 494 109 
L 494 744 
Q 775 591 1075 516 
Q 1375 441 1709 441 
Q 2250 441 2565 725 
Q 2881 1009 2881 1497 
Q 2881 1984 2565 2268 
Q 2250 2553 1709 2553 
Q 1456 2553 1204 2497 
Q 953 2441 691 2322 
L 691 4666 
z
" transform="scale(0.015625)"/>
       </defs>
       <use xlink:href="#DejaVuSans-18"/>
      </g>
     </g>
    </g>
    <g id="text_7">
     <!-- count -->
     <g transform="translate(322.25 415.198516) scale(0.1 -0.1)">
      <defs>
       <path id="DejaVuSans-46" d="M 3122 3366 
L 3122 2828 
Q 2878 2963 2633 3030 
Q 2388 3097 2138 3097 
Q 1578 3097 1268 2742 
Q 959 2388 959 1747 
Q 959 1106 1268 751 
Q 1578 397 2138 397 
Q 2388 397 2633 464 
Q 2878 531 3122 666 
L 3122 134 
Q 2881 22 2623 -34 
Q 2366 -91 2075 -91 
Q 1284 -91 818 406 
Q 353 903 353 1747 
Q 353 2603 823 3093 
Q 1294 3584 2113 3584 
Q 2378 3584 2631 3529 
Q 2884 3475 3122 3366 
z
" transform="scale(0.015625)"/>
       <path id="DejaVuSans-52" d="M 1959 3097 
Q 1497 3097 1228 2736 
Q 959 2375 959 1747 
Q 959 1119 1226 758 
Q 1494 397 1959 397 
Q 2419 397 2687 759 
Q 2956 1122 2956 1747 
Q 2956 2369 2687 2733 
Q 2419 3097 1959 3097 
z
M 1959 3584 
Q 2709 3584 3137 3096 
Q 3566 2609 3566 1747 
Q 3566 888 3137 398 
Q 2709 -91 1959 -91 
Q 1206 -91 779 398 
Q 353 888 353 1747 
Q 353 2609 779 3096 
Q 1206 3584 1959 3584 
z
" transform="scale(0.015625)"/>
       <path id="DejaVuSans-58" d="M 544 1381 
L 544 3500 
L 1119 3500 
L 1119 1403 
Q 1119 906 1312 657 
Q 1506 409 1894 409 
Q 2359 409 2629 706 
Q 2900 1003 2900 1516 
L 2900 3500 
L 3475 3500 
L 3475 0 
L 2900 0 
L 2900 538 
Q 2691 219 2414 64 
Q 2138 -91 1772 -91 
Q 1169 -91 856 284 
Q 544 659 544 1381 
z
M 1991 3584 
L 1991 3584 
z
" transform="scale(0.015625)"/>
       <path id="DejaVuSans-51" d="M 3513 2113 
L 3513 0 
L 2938 0 
L 2938 2094 
Q 2938 2591 2744 2837 
Q 2550 3084 2163 3084 
Q 1697 3084 1428 2787 
Q 1159 2491 1159 1978 
L 1159 0 
L 581 0 
L 581 3500 
L 1159 3500 
L 1159 2956 
Q 1366 3272 1645 3428 
Q 1925 3584 2291 3584 
Q 2894 3584 3203 3211 
Q 3513 2838 3513 2113 
z
" transform="scale(0.015625)"/>
       <path id="DejaVuSans-57" d="M 1172 4494 
L 1172 3500 
L 2356 3500 
L 2356 3053 
L 1172 3053 
L 1172 1153 
Q 1172 725 1289 603 
Q 1406 481 1766 481 
L 2356 481 
L 2356 0 
L 1766 0 
Q 1100 0 847 248 
Q 594 497 594 1153 
L 594 3053 
L 172 3053 
L 172 3500 
L 594 3500 
L 594 4494 
L 1172 4494 
z
" transform="scale(0.015625)"/>
      </defs>
      <use xlink:href="#DejaVuSans-46"/>
      <use xlink:href="#DejaVuSans-52" transform="translate(54.984375 0)"/>
      <use xlink:href="#DejaVuSans-58" transform="translate(116.171875 0)"/>
      <use xlink:href="#DejaVuSans-51" transform="translate(179.546875 0)"/>
      <use xlink:href="#DejaVuSans-57" transform="translate(242.921875 0)"/>
     </g>
    </g>
   </g>
   <g id="matplotlib.axis_2">
    <g id="ytick_1">
     <g id="line2d_13">
      <path d="M 112.09625 47.190255 
L 560.61625 47.190255 
" clip-path="url(#p9abde773b8)" style="fill: none; stroke: #dddddd; stroke-width: 0.6; stroke-linecap: square"/>
     </g>
     <g id="line2d_14">
      <defs>
       <path id="m0543152c00" d="M 0 0 
L -3.5 0 
" style="stroke: #000000; stroke-width: 0.8"/>
      </defs>
      <g>
       <use xlink:href="#m0543152c00" x="112.09625" y="47.190255" style="stroke: #000000; stroke-width: 0.8"/>
      </g>
     </g>
     <g id="text_8">
      <!-- canada → united states -->
      <g transform="translate(11.5775 50.22963) scale(0.08 -0.08)">
       <defs>
        <path id="DejaVuSans-44" d="M 2194 1759 
Q 1497 1759 1228 1600 
Q 959 1441 959 1056 
Q 959 750 1161 570 
Q 1363 391 1709 391 
Q 2188 391 2477 730 
Q 2766 1069 2766 1631 
L 2766 1759 
L 2194 1759 
z
M 3341 1997 
L 3341 0 
L 2766 0 
L 2766 531 
Q 2569 213 2275 61 
Q 1981 -91 1556 -91 
Q 1019 -91 701 211 
Q 384 513 384 1019 
Q 384 1609 779 1909 
Q 1175 2209 1959 2209 
L 2766 2209 
L 2766 2266 
Q 2766 2663 2505 2880 
Q 2244 3097 1772 3097 
Q 1472 3097 1187 3025 
Q 903 2953 641 2809 
L 641 3341 
Q 956 3463 1253 3523 
Q 1550 3584 1831 3584 
Q 2591 3584 2966 3190 
Q 3341 2797 3341 1997 
z
" transform="scale(0.015625)"/>
        <path id="DejaVuSans-47" d="M 2906 2969 
L 2906 4863 
L 3481 4863 
L 3481 0 
L 2906 0 
L 2906 525 
Q 2725 213 2448 61 
Q 2172 -91 1784 -91 
Q 1150 -91 751 415 
Q 353 922 353 1747 
Q 353 2572 751 3078 
Q 1150 3584 1784 3584 
Q 2172 3584 2448 3432 
Q 2725 3281 2906 2969 
z
M 947 1747 
Q 947 1113 1208 752 
Q 1469 391 1925 391 
Q 2381 391 2643 752 
Q 2906 1113 2906 1747 
Q 2906 2381 2643 2742 
Q 2381 3103 1925 3103 
Q 1469 3103 1208 2742 
Q 947 2381 947 1747 
z
" transform="scale(0.015625)"/>
        <path id="DejaVuSans-3" transform="scale(0.015625)"/>
        <path id="DejaVuSans-c1c" d="M 5050 2147 
L 5050 1866 
L 3822 638 
L 3447 1013 
L 4175 1741 
L 366 1741 
L 366 2272 
L 4175 2272 
L 3447 3000 
L 3822 3375 
L 5050 2147 
z
" transform="scale(0.015625)"/>
        <path id="DejaVuSans-4c" d="M 603 3500 
L 1178 3500 
L 1178 0 
L 603 0 
L 603 3500 
z
M 603 4863 
L 1178 4863 
L 1178 4134 
L 603 4134 
L 603 4863 
z
" transform="scale(0.015625)"/>
        <path id="DejaVuSans-48" d="M 3597 1894 
L 3597 1613 
L 953 1613 
Q 991 1019 1311 708 
Q 1631 397 2203 397 
Q 2534 397 2845 478 
Q 3156 559 3463 722 
L 3463 178 
Q 3153 47 2828 -22 
Q 2503 -91 2169 -91 
Q 1331 -91 842 396 
Q 353 884 353 1716 
Q 353 2575 817 3079 
Q 1281 3584 2069 3584 
Q 2775 3584 3186 3129 
Q 3597 2675 3597 1894 
z
M 3022 2063 
Q 3016 2534 2758 2815 
Q 2500 3097 2075 3097 
Q 1594 3097 1305 2825 
Q 1016 2553 972 2059 
L 3022 2063 
z
" transform="scale(0.015625)"/>
        <path id="DejaVuSans-56" d="M 2834 3397 
L 2834 2853 
Q 2591 2978 2328 3040 
Q 2066 3103 1784 3103 
Q 1356 3103 1142 2972 
Q 928 2841 928 2578 
Q 928 2378 1081 2264 
Q 1234 2150 1697 2047 
L 1894 2003 
Q 2506 1872 2764 1633 
Q 3022 1394 3022 966 
Q 3022 478 2636 193 
Q 2250 -91 1575 -91 
Q 1294 -91 989 -36 
Q 684 19 347 128 
L 347 722 
Q 666 556 975 473 
Q 1284 391 1588 391 
Q 1994 391 2212 530 
Q 2431 669 2431 922 
Q 2431 1156 2273 1281 
Q 2116 1406 1581 1522 
L 1381 1569 
Q 847 1681 609 1914 
Q 372 2147 372 2553 
Q 372 3047 722 3315 
Q 1072 3584 1716 3584 
Q 2034 3584 2315 3537 
Q 2597 3491 2834 3397 
z
" transform="scale(0.015625)"/>
       </defs>
       <use xlink:href="#DejaVuSans-46"/>
       <use xlink:href="#DejaVuSans-44" transform="translate(54.984375 0)"/>
       <use xlink:href="#DejaVuSans-51" transform="translate(116.265625 0)"/>
       <use xlink:href="#DejaVuSans-44" transform="translate(179.640625 0)"/>
       <use xlink:href="#DejaVuSans-47" transform="translate(240.921875 0)"/>
       <use xlink:href="#DejaVuSans-44" transform="translate(304.40625 0)"/>
       <use xlink:href="#DejaVuSans-3" transform="translate(365.6875 0)"/>
       <use xlink:href="#DejaVuSans-c1c" transform="translate(397.46875 0)"/>
       <use xlink:href="#DejaVuSans-3" transform="translate(481.265625 0)"/>
       <use xlink:href="#DejaVuSans-58" transform="translate(513.046875 0)"/>
       <use xlink:href="#DejaVuSans-51" transform="translate(576.421875 0)"/>
       <use xlink:href="#DejaVuSans-4c" transform="translate(639.796875 0)"/>
       <use xlink:href="#DejaVuSans-57" transform="translate(667.578125 0)"/>
       <use xlink:href="#DejaVuSans-48" transform="translate(706.78125 0)"/>
       <use xlink:href="#DejaVuSans-47" transform="translate(768.3125 0)"/>
       <use xlink:href="#DejaVuSans-3" transform="translate(831.796875 0)"/>
       <use xlink:href="#DejaVuSans-56" transform="translate(863.578125 0)"/>
       <use xlink:href="#DejaVuSans-57" transform="translate(915.671875 0)"/>
       <use xlink:href="#DejaVuSans-44" transform="translate(954.875 0)"/>
       <use xlink:href="#DejaVuSans-57" transform="translate(1016.15625 0)"/>
       <use xlink:href="#DejaVuSans-48" transform="translate(1055.359375 0)"/>
       <use xlink:href="#DejaVuSans-56" transform="translate(1116.890625 0)"/>
      </g>
     </g>
    </g>
    <g id="ytick_2">
     <g id="line2d_15">
      <path d="M 112.09625 69.674443 
L 560.61625 69.674443 
" clip-path="url(#p9abde773b8)" style="fill: none; stroke: #dddddd; stroke-width: 0.6; stroke-linecap: square"/>
     </g>
     <g id="line2d_16">
      <g>
       <use xlink:href="#m0543152c00" x="112.09625" y="69.674443" style="stroke: #000000; stroke-width: 0.8"/>
      </g>
     </g>
     <g id="text_9">
      <!-- south africa → botswana -->
      <g transform="translate(7.2 72.713818) scale(0.08 -0.08)">
       <defs>
        <path id="DejaVuSans-4b" d="M 3513 2113 
L 3513 0 
L 2938 0 
L 2938 2094 
Q 2938 2591 2744 2837 
Q 2550 3084 2163 3084 
Q 1697 3084 1428 2787 
Q 1159 2491 1159 1978 
L 1159 0 
L 581 0 
L 581 4863 
L 1159 4863 
L 1159 2956 
Q 1366 3272 1645 3428 
Q 1925 3584 2291 3584 
Q 2894 3584 3203 3211 
Q 3513 2838 3513 2113 
z
" transform="scale(0.015625)"/>
        <path id="DejaVuSans-49" d="M 2375 4863 
L 2375 4384 
L 1825 4384 
Q 1516 4384 1395 4259 
Q 1275 4134 1275 3809 
L 1275 3500 
L 2222 3500 
L 2222 3053 
L 1275 3053 
L 1275 0 
L 697 0 
L 697 3053 
L 147 3053 
L 147 3500 
L 697 3500 
L 697 3744 
Q 697 4328 969 4595 
Q 1241 4863 1831 4863 
L 2375 4863 
z
" transform="scale(0.015625)"/>
        <path id="DejaVuSans-55" d="M 2631 2963 
Q 2534 3019 2420 3045 
Q 2306 3072 2169 3072 
Q 1681 3072 1420 2755 
Q 1159 2438 1159 1844 
L 1159 0 
L 581 0 
L 581 3500 
L 1159 3500 
L 1159 2956 
Q 1341 3275 1631 3429 
Q 1922 3584 2338 3584 
Q 2397 3584 2469 3576 
Q 2541 3569 2628 3553 
L 2631 2963 
z
" transform="scale(0.015625)"/>
        <path id="DejaVuSans-45" d="M 3116 1747 
Q 3116 2381 2855 2742 
Q 2594 3103 2138 3103 
Q 1681 3103 1420 2742 
Q 1159 2381 1159 1747 
Q 1159 1113 1420 752 
Q 1681 391 2138 391 
Q 2594 391 2855 752 
Q 3116 1113 3116 1747 
z
M 1159 2969 
Q 1341 3281 1617 3432 
Q 1894 3584 2278 3584 
Q 2916 3584 3314 3078 
Q 3713 2572 3713 1747 
Q 3713 922 3314 415 
Q 2916 -91 2278 -91 
Q 1894 -91 1617 61 
Q 1341 213 1159 525 
L 1159 0 
L 581 0 
L 581 4863 
L 1159 4863 
L 1159 2969 
z
" transform="scale(0.015625)"/>
        <path id="DejaVuSans-5a" d="M 269 3500 
L 844 3500 
L 1563 769 
L 2278 3500 
L 2956 3500 
L 3675 769 
L 4391 3500 
L 4966 3500 
L 4050 0 
L 3372 0 
L 2619 2869 
L 1863 0 
L 1184 0 
L 269 3500 
z
" transform="scale(0.015625)"/>
       </defs>
       <use xlink:href="#DejaVuSans-56"/>
       <use xlink:href="#DejaVuSans-52" transform="translate(52.09375 0)"/>
       <use xlink:href="#DejaVuSans-58" transform="translate(113.28125 0)"/>
       <use xlink:href="#DejaVuSans-57" transform="translate(176.65625 0)"/>
       <use xlink:href="#DejaVuSans-4b" transform="translate(215.859375 0)"/>
       <use xlink:href="#DejaVuSans-3" transform="translate(279.234375 0)"/>
       <use xlink:href="#DejaVuSans-44" transform="translate(311.015625 0)"/>
       <use xlink:href="#DejaVuSans-49" transform="translate(372.296875 0)"/>
       <use xlink:href="#DejaVuSans-55" transform="translate(407.5 0)"/>
       <use xlink:href="#DejaVuSans-4c" transform="translate(448.609375 0)"/>
       <use xlink:href="#DejaVuSans-46" transform="translate(476.390625 0)"/>
       <use xlink:href="#DejaVuSans-44" transform="translate(531.375 0)"/>
       <use xlink:href="#DejaVuSans-3" transform="translate(592.65625 0)"/>
       <use xlink:href="#DejaVuSans-c1c" transform="translate(624.4375 0)"/>
       <use xlink:href="#DejaVuSans-3" transform="translate(708.234375 0)"/>
       <use xlink:href="#DejaVuSans-45" transform="translate(740.015625 0)"/>
       <use xlink:href="#DejaVuSans-52" transform="translate(803.5 0)"/>
       <use xlink:href="#DejaVuSans-57" transform="translate(864.6875 0)"/>
       <use xlink:href="#DejaVuSans-56" transform="translate(903.890625 0)"/>
       <use xlink:href="#DejaVuSans-5a" transform="translate(955.984375 0)"/>
       <use xlink:href="#DejaVuSans-44" transform="translate(1037.765625 0)"/>
       <use xlink:href="#DejaVuSans-51" transform="translate(1099.046875 0)"/>
       <use xlink:href="#DejaVuSans-44" transform="translate(1162.421875 0)"/>
      </g>
     </g>
    </g>
    <g id="ytick_3">
     <g id="line2d_17">
      <path d="M 112.09625 92.158631 
L 560.61625 92.158631 
" clip-path="url(#p9abde773b8)" style="fill: none; stroke: #dddddd; stroke-width: 0.6; stroke-linecap: square"/>
     </g>
     <g id="line2d_18">
      <g>
       <use xlink:href="#m0543152c00" x="112.09625" y="92.158631" style="stroke: #000000; stroke-width: 0.8"/>
      </g>
     </g>
     <g id="text_10">
      <!-- argentina → mexico -->
      <g transform="translate(26.0275 95.198006) scale(0.08 -0.08)">
       <defs>
        <path id="DejaVuSans-4a" d="M 2906 1791 
Q 2906 2416 2648 2759 
Q 2391 3103 1925 3103 
Q 1463 3103 1205 2759 
Q 947 2416 947 1791 
Q 947 1169 1205 825 
Q 1463 481 1925 481 
Q 2391 481 2648 825 
Q 2906 1169 2906 1791 
z
M 3481 434 
Q 3481 -459 3084 -895 
Q 2688 -1331 1869 -1331 
Q 1566 -1331 1297 -1286 
Q 1028 -1241 775 -1147 
L 775 -588 
Q 1028 -725 1275 -790 
Q 1522 -856 1778 -856 
Q 2344 -856 2625 -561 
Q 2906 -266 2906 331 
L 2906 616 
Q 2728 306 2450 153 
Q 2172 0 1784 0 
Q 1141 0 747 490 
Q 353 981 353 1791 
Q 353 2603 747 3093 
Q 1141 3584 1784 3584 
Q 2172 3584 2450 3431 
Q 2728 3278 2906 2969 
L 2906 3500 
L 3481 3500 
L 3481 434 
z
" transform="scale(0.015625)"/>
        <path id="DejaVuSans-50" d="M 3328 2828 
Q 3544 3216 3844 3400 
Q 4144 3584 4550 3584 
Q 5097 3584 5394 3201 
Q 5691 2819 5691 2113 
L 5691 0 
L 5113 0 
L 5113 2094 
Q 5113 2597 4934 2840 
Q 4756 3084 4391 3084 
Q 3944 3084 3684 2787 
Q 3425 2491 3425 1978 
L 3425 0 
L 2847 0 
L 2847 2094 
Q 2847 2600 2669 2842 
Q 2491 3084 2119 3084 
Q 1678 3084 1418 2786 
Q 1159 2488 1159 1978 
L 1159 0 
L 581 0 
L 581 3500 
L 1159 3500 
L 1159 2956 
Q 1356 3278 1631 3431 
Q 1906 3584 2284 3584 
Q 2666 3584 2933 3390 
Q 3200 3197 3328 2828 
z
" transform="scale(0.015625)"/>
        <path id="DejaVuSans-5b" d="M 3513 3500 
L 2247 1797 
L 3578 0 
L 2900 0 
L 1881 1375 
L 863 0 
L 184 0 
L 1544 1831 
L 300 3500 
L 978 3500 
L 1906 2253 
L 2834 3500 
L 3513 3500 
z
" transform="scale(0.015625)"/>
       </defs>
       <use xlink:href="#DejaVuSans-44"/>
       <use xlink:href="#DejaVuSans-55" transform="translate(61.28125 0)"/>
       <use xlink:href="#DejaVuSans-4a" transform="translate(100.640625 0)"/>
       <use xlink:href="#DejaVuSans-48" transform="translate(164.125 0)"/>
       <use xlink:href="#DejaVuSans-51" transform="translate(225.65625 0)"/>
       <use xlink:href="#DejaVuSans-57" transform="translate(289.03125 0)"/>
       <use xlink:href="#DejaVuSans-4c" transform="translate(328.234375 0)"/>
       <use xlink:href="#DejaVuSans-51" transform="translate(356.015625 0)"/>
       <use xlink:href="#DejaVuSans-44" transform="translate(419.390625 0)"/>
       <use xlink:href="#DejaVuSans-3" transform="translate(480.671875 0)"/>
       <use xlink:href="#DejaVuSans-c1c" transform="translate(512.453125 0)"/>
       <use xlink:href="#DejaVuSans-3" transform="translate(596.25 0)"/>
       <use xlink:href="#DejaVuSans-50" transform="translate(628.03125 0)"/>
       <use xlink:href="#DejaVuSans-48" transform="translate(725.4375 0)"/>
       <use xlink:href="#DejaVuSans-5b" transform="translate(785.21875 0)"/>
       <use xlink:href="#DejaVuSans-4c" transform="translate(844.40625 0)"/>
       <use xlink:href="#DejaVuSans-46" transform="translate(872.1875 0)"/>
       <use xlink:href="#DejaVuSans-52" transform="translate(927.171875 0)"/>
      </g>
     </g>
    </g>
    <g id="ytick_4">
     <g id="line2d_19">
      <path d="M 112.09625 114.642819 
L 560.61625 114.642819 
" clip-path="url(#p9abde773b8)" style="fill: none; stroke: #dddddd; stroke-width: 0.6; stroke-linecap: square"/>
     </g>
     <g id="line2d_20">
      <g>
       <use xlink:href="#m0543152c00" x="112.09625" y="114.642819" style="stroke: #000000; stroke-width: 0.8"/>
      </g>
     </g>
     <g id="text_11">
      <!-- south africa → namibia -->
      <g transform="translate(13.70375 117.682194) scale(0.08 -0.08)">
       <use xlink:href="#DejaVuSans-56"/>
       <use xlink:href="#DejaVuSans-52" transform="translate(52.09375 0)"/>
       <use xlink:href="#DejaVuSans-58" transform="translate(113.28125 0)"/>
       <use xlink:href="#DejaVuSans-57" transform="translate(176.65625 0)"/>
       <use xlink:href="#DejaVuSans-4b" transform="translate(215.859375 0)"/>
       <use xlink:href="#DejaVuSans-3" transform="translate(279.234375 0)"/>
       <use xlink:href="#DejaVuSans-44" transform="translate(311.015625 0)"/>
       <use xlink:href="#DejaVuSans-49" transform="translate(372.296875 0)"/>
       <use xlink:href="#DejaVuSans-55" transform="translate(407.5 0)"/>
       <use xlink:href="#DejaVuSans-4c" transform="translate(448.609375 0)"/>
       <use xlink:href="#DejaVuSans-46" transform="translate(476.390625 0)"/>
       <use xlink:href="#DejaVuSans-44" transform="translate(531.375 0)"/>
       <use xlink:href="#DejaVuSans-3" transform="translate(592.65625 0)"/>
       <use xlink:href="#DejaVuSans-c1c" transform="translate(624.4375 0)"/>
       <use xlink:href="#DejaVuSans-3" transform="translate(708.234375 0)"/>
       <use xlink:href="#DejaVuSans-51" transform="translate(740.015625 0)"/>
       <use xlink:href="#DejaVuSans-44" transform="translate(803.390625 0)"/>
       <use xlink:href="#DejaVuSans-50" transform="translate(864.671875 0)"/>
       <use xlink:href="#DejaVuSans-4c" transform="translate(962.078125 0)"/>
       <use xlink:href="#DejaVuSans-45" transform="translate(989.859375 0)"/>
       <use xlink:href="#DejaVuSans-4c" transform="translate(1053.34375 0)"/>
       <use xlink:href="#DejaVuSans-44" transform="translate(1081.125 0)"/>
      </g>
     </g>
    </g>
    <g id="ytick_5">
     <g id="line2d_21">
      <path d="M 112.09625 137.127007 
L 560.61625 137.127007 
" clip-path="url(#p9abde773b8)" style="fill: none; stroke: #dddddd; stroke-width: 0.6; stroke-linecap: square"/>
     </g>
     <g id="line2d_22">
      <g>
       <use xlink:href="#m0543152c00" x="112.09625" y="137.127007" style="stroke: #000000; stroke-width: 0.8"/>
      </g>
     </g>
     <g id="text_12">
      <!-- panama → puerto rico -->
      <g transform="translate(16.92 140.166382) scale(0.08 -0.08)">
       <defs>
        <path id="DejaVuSans-53" d="M 1159 525 
L 1159 -1331 
L 581 -1331 
L 581 3500 
L 1159 3500 
L 1159 2969 
Q 1341 3281 1617 3432 
Q 1894 3584 2278 3584 
Q 2916 3584 3314 3078 
Q 3713 2572 3713 1747 
Q 3713 922 3314 415 
Q 2916 -91 2278 -91 
Q 1894 -91 1617 61 
Q 1341 213 1159 525 
z
M 3116 1747 
Q 3116 2381 2855 2742 
Q 2594 3103 2138 3103 
Q 1681 3103 1420 2742 
Q 1159 2381 1159 1747 
Q 1159 1113 1420 752 
Q 1681 391 2138 391 
Q 2594 391 2855 752 
Q 3116 1113 3116 1747 
z
" transform="scale(0.015625)"/>
       </defs>
       <use xlink:href="#DejaVuSans-53"/>
       <use xlink:href="#DejaVuSans-44" transform="translate(63.484375 0)"/>
       <use xlink:href="#DejaVuSans-51" transform="translate(124.765625 0)"/>
       <use xlink:href="#DejaVuSans-44" transform="translate(188.140625 0)"/>
       <use xlink:href="#DejaVuSans-50" transform="translate(249.421875 0)"/>
       <use xlink:href="#DejaVuSans-44" transform="translate(346.828125 0)"/>
       <use xlink:href="#DejaVuSans-3" transform="translate(408.109375 0)"/>
       <use xlink:href="#DejaVuSans-c1c" transform="translate(439.890625 0)"/>
       <use xlink:href="#DejaVuSans-3" transform="translate(523.6875 0)"/>
       <use xlink:href="#DejaVuSans-53" transform="translate(555.46875 0)"/>
       <use xlink:href="#DejaVuSans-58" transform="translate(618.953125 0)"/>
       <use xlink:href="#DejaVuSans-48" transform="translate(682.328125 0)"/>
       <use xlink:href="#DejaVuSans-55" transform="translate(743.859375 0)"/>
       <use xlink:href="#DejaVuSans-57" transform="translate(784.96875 0)"/>
       <use xlink:href="#DejaVuSans-52" transform="translate(824.171875 0)"/>
       <use xlink:href="#DejaVuSans-3" transform="translate(885.359375 0)"/>
       <use xlink:href="#DejaVuSans-55" transform="translate(917.140625 0)"/>
       <use xlink:href="#DejaVuSans-4c" transform="translate(958.25 0)"/>
       <use xlink:href="#DejaVuSans-46" transform="translate(986.03125 0)"/>
       <use xlink:href="#DejaVuSans-52" transform="translate(1041.015625 0)"/>
      </g>
     </g>
    </g>
    <g id="ytick_6">
     <g id="line2d_23">
      <path d="M 112.09625 159.611195 
L 560.61625 159.611195 
" clip-path="url(#p9abde773b8)" style="fill: none; stroke: #dddddd; stroke-width: 0.6; stroke-linecap: square"/>
     </g>
     <g id="line2d_24">
      <g>
       <use xlink:href="#m0543152c00" x="112.09625" y="159.611195" style="stroke: #000000; stroke-width: 0.8"/>
      </g>
     </g>
     <g id="text_13">
      <!-- peru → colombia -->
      <g transform="translate(38.54 162.65057) scale(0.08 -0.08)">
       <defs>
        <path id="DejaVuSans-4f" d="M 603 4863 
L 1178 4863 
L 1178 0 
L 603 0 
L 603 4863 
z
" transform="scale(0.015625)"/>
       </defs>
       <use xlink:href="#DejaVuSans-53"/>
       <use xlink:href="#DejaVuSans-48" transform="translate(63.484375 0)"/>
       <use xlink:href="#DejaVuSans-55" transform="translate(125.015625 0)"/>
       <use xlink:href="#DejaVuSans-58" transform="translate(166.125 0)"/>
       <use xlink:href="#DejaVuSans-3" transform="translate(229.5 0)"/>
       <use xlink:href="#DejaVuSans-c1c" transform="translate(261.28125 0)"/>
       <use xlink:href="#DejaVuSans-3" transform="translate(345.078125 0)"/>
       <use xlink:href="#DejaVuSans-46" transform="translate(376.859375 0)"/>
       <use xlink:href="#DejaVuSans-52" transform="translate(431.84375 0)"/>
       <use xlink:href="#DejaVuSans-4f" transform="translate(493.03125 0)"/>
       <use xlink:href="#DejaVuSans-52" transform="translate(520.8125 0)"/>
       <use xlink:href="#DejaVuSans-50" transform="translate(582 0)"/>
       <use xlink:href="#DejaVuSans-45" transform="translate(679.40625 0)"/>
       <use xlink:href="#DejaVuSans-4c" transform="translate(742.890625 0)"/>
       <use xlink:href="#DejaVuSans-44" transform="translate(770.671875 0)"/>
      </g>
     </g>
    </g>
    <g id="ytick_7">
     <g id="line2d_25">
      <path d="M 112.09625 182.095382 
L 560.61625 182.095382 
" clip-path="url(#p9abde773b8)" style="fill: none; stroke: #dddddd; stroke-width: 0.6; stroke-linecap: square"/>
     </g>
     <g id="line2d_26">
      <g>
       <use xlink:href="#m0543152c00" x="112.09625" y="182.095382" style="stroke: #000000; stroke-width: 0.8"/>
      </g>
     </g>
     <g id="text_14">
      <!-- uruguay → brazil -->
      <g transform="translate(38.17875 185.134757) scale(0.08 -0.08)">
       <defs>
        <path id="DejaVuSans-5c" d="M 2059 -325 
Q 1816 -950 1584 -1140 
Q 1353 -1331 966 -1331 
L 506 -1331 
L 506 -850 
L 844 -850 
Q 1081 -850 1212 -737 
Q 1344 -625 1503 -206 
L 1606 56 
L 191 3500 
L 800 3500 
L 1894 763 
L 2988 3500 
L 3597 3500 
L 2059 -325 
z
" transform="scale(0.015625)"/>
        <path id="DejaVuSans-5d" d="M 353 3500 
L 3084 3500 
L 3084 2975 
L 922 459 
L 3084 459 
L 3084 0 
L 275 0 
L 275 525 
L 2438 3041 
L 353 3041 
L 353 3500 
z
" transform="scale(0.015625)"/>
       </defs>
       <use xlink:href="#DejaVuSans-58"/>
       <use xlink:href="#DejaVuSans-55" transform="translate(63.375 0)"/>
       <use xlink:href="#DejaVuSans-58" transform="translate(104.484375 0)"/>
       <use xlink:href="#DejaVuSans-4a" transform="translate(167.859375 0)"/>
       <use xlink:href="#DejaVuSans-58" transform="translate(231.34375 0)"/>
       <use xlink:href="#DejaVuSans-44" transform="translate(294.71875 0)"/>
       <use xlink:href="#DejaVuSans-5c" transform="translate(356 0)"/>
       <use xlink:href="#DejaVuSans-3" transform="translate(415.1875 0)"/>
       <use xlink:href="#DejaVuSans-c1c" transform="translate(446.96875 0)"/>
       <use xlink:href="#DejaVuSans-3" transform="translate(530.765625 0)"/>
       <use xlink:href="#DejaVuSans-45" transform="translate(562.546875 0)"/>
       <use xlink:href="#DejaVuSans-55" transform="translate(626.03125 0)"/>
       <use xlink:href="#DejaVuSans-44" transform="translate(667.140625 0)"/>
       <use xlink:href="#DejaVuSans-5d" transform="translate(728.421875 0)"/>
       <use xlink:href="#DejaVuSans-4c" transform="translate(780.90625 0)"/>
       <use xlink:href="#DejaVuSans-4f" transform="translate(808.6875 0)"/>
      </g>
     </g>
    </g>
    <g id="ytick_8">
     <g id="line2d_27">
      <path d="M 112.09625 204.57957 
L 560.61625 204.57957 
" clip-path="url(#p9abde773b8)" style="fill: none; stroke: #dddddd; stroke-width: 0.6; stroke-linecap: square"/>
     </g>
     <g id="line2d_28">
      <g>
       <use xlink:href="#m0543152c00" x="112.09625" y="204.57957" style="stroke: #000000; stroke-width: 0.8"/>
      </g>
     </g>
     <g id="text_15">
      <!-- indonesia → philippines -->
      <g transform="translate(11.4 207.618945) scale(0.08 -0.08)">
       <use xlink:href="#DejaVuSans-4c"/>
       <use xlink:href="#DejaVuSans-51" transform="translate(27.78125 0)"/>
       <use xlink:href="#DejaVuSans-47" transform="translate(91.15625 0)"/>
       <use xlink:href="#DejaVuSans-52" transform="translate(154.640625 0)"/>
       <use xlink:href="#DejaVuSans-51" transform="translate(215.828125 0)"/>
       <use xlink:href="#DejaVuSans-48" transform="translate(279.203125 0)"/>
       <use xlink:href="#DejaVuSans-56" transform="translate(340.734375 0)"/>
       <use xlink:href="#DejaVuSans-4c" transform="translate(392.828125 0)"/>
       <use xlink:href="#DejaVuSans-44" transform="translate(420.609375 0)"/>
       <use xlink:href="#DejaVuSans-3" transform="translate(481.890625 0)"/>
       <use xlink:href="#DejaVuSans-c1c" transform="translate(513.671875 0)"/>
       <use xlink:href="#DejaVuSans-3" transform="translate(597.46875 0)"/>
       <use xlink:href="#DejaVuSans-53" transform="translate(629.25 0)"/>
       <use xlink:href="#DejaVuSans-4b" transform="translate(692.734375 0)"/>
       <use xlink:href="#DejaVuSans-4c" transform="translate(756.109375 0)"/>
       <use xlink:href="#DejaVuSans-4f" transform="translate(783.890625 0)"/>
       <use xlink:href="#DejaVuSans-4c" transform="translate(811.671875 0)"/>
       <use xlink:href="#DejaVuSans-53" transform="translate(839.453125 0)"/>
       <use xlink:href="#DejaVuSans-53" transform="translate(902.9375 0)"/>
       <use xlink:href="#DejaVuSans-4c" transform="translate(966.421875 0)"/>
       <use xlink:href="#DejaVuSans-51" transform="translate(994.203125 0)"/>
       <use xlink:href="#DejaVuSans-48" transform="translate(1057.578125 0)"/>
       <use xlink:href="#DejaVuSans-56" transform="translate(1119.109375 0)"/>
      </g>
     </g>
    </g>
    <g id="ytick_9">
     <g id="line2d_29">
      <path d="M 112.09625 227.063758 
L 560.61625 227.063758 
" clip-path="url(#p9abde773b8)" style="fill: none; stroke: #dddddd; stroke-width: 0.6; stroke-linecap: square"/>
     </g>
     <g id="line2d_30">
      <g>
       <use xlink:href="#m0543152c00" x="112.09625" y="227.063758" style="stroke: #000000; stroke-width: 0.8"/>
      </g>
     </g>
     <g id="text_16">
      <!-- czechia → poland -->
      <g transform="translate(35.94625 230.103133) scale(0.08 -0.08)">
       <use xlink:href="#DejaVuSans-46"/>
       <use xlink:href="#DejaVuSans-5d" transform="translate(54.984375 0)"/>
       <use xlink:href="#DejaVuSans-48" transform="translate(107.46875 0)"/>
       <use xlink:href="#DejaVuSans-46" transform="translate(169 0)"/>
       <use xlink:href="#DejaVuSans-4b" transform="translate(223.984375 0)"/>
       <use xlink:href="#DejaVuSans-4c" transform="translate(287.359375 0)"/>
       <use xlink:href="#DejaVuSans-44" transform="translate(315.140625 0)"/>
       <use xlink:href="#DejaVuSans-3" transform="translate(376.421875 0)"/>
       <use xlink:href="#DejaVuSans-c1c" transform="translate(408.203125 0)"/>
       <use xlink:href="#DejaVuSans-3" transform="translate(492 0)"/>
       <use xlink:href="#DejaVuSans-53" transform="translate(523.78125 0)"/>
       <use xlink:href="#DejaVuSans-52" transform="translate(587.265625 0)"/>
       <use xlink:href="#DejaVuSans-4f" transform="translate(648.453125 0)"/>
       <use xlink:href="#DejaVuSans-44" transform="translate(676.234375 0)"/>
       <use xlink:href="#DejaVuSans-51" transform="translate(737.515625 0)"/>
       <use xlink:href="#DejaVuSans-47" transform="translate(800.890625 0)"/>
      </g>
     </g>
    </g>
    <g id="ytick_10">
     <g id="line2d_31">
      <path d="M 112.09625 249.547946 
L 560.61625 249.547946 
" clip-path="url(#p9abde773b8)" style="fill: none; stroke: #dddddd; stroke-width: 0.6; stroke-linecap: square"/>
     </g>
     <g id="line2d_32">
      <g>
       <use xlink:href="#m0543152c00" x="112.09625" y="249.547946" style="stroke: #000000; stroke-width: 0.8"/>
      </g>
     </g>
     <g id="text_17">
      <!-- montenegro → georgia -->
      <g transform="translate(14.16375 252.587321) scale(0.08 -0.08)">
       <use xlink:href="#DejaVuSans-50"/>
       <use xlink:href="#DejaVuSans-52" transform="translate(97.40625 0)"/>
       <use xlink:href="#DejaVuSans-51" transform="translate(158.59375 0)"/>
       <use xlink:href="#DejaVuSans-57" transform="translate(221.96875 0)"/>
       <use xlink:href="#DejaVuSans-48" transform="translate(261.171875 0)"/>
       <use xlink:href="#DejaVuSans-51" transform="translate(322.703125 0)"/>
       <use xlink:href="#DejaVuSans-48" transform="translate(386.078125 0)"/>
       <use xlink:href="#DejaVuSans-4a" transform="translate(447.609375 0)"/>
       <use xlink:href="#DejaVuSans-55" transform="translate(511.09375 0)"/>
       <use xlink:href="#DejaVuSans-52" transform="translate(550 0)"/>
       <use xlink:href="#DejaVuSans-3" transform="translate(611.1875 0)"/>
       <use xlink:href="#DejaVuSans-c1c" transform="translate(642.96875 0)"/>
       <use xlink:href="#DejaVuSans-3" transform="translate(726.765625 0)"/>
       <use xlink:href="#DejaVuSans-4a" transform="translate(758.546875 0)"/>
       <use xlink:href="#DejaVuSans-48" transform="translate(822.03125 0)"/>
       <use xlink:href="#DejaVuSans-52" transform="translate(883.5625 0)"/>
       <use xlink:href="#DejaVuSans-55" transform="translate(944.75 0)"/>
       <use xlink:href="#DejaVuSans-4a" transform="translate(984.109375 0)"/>
       <use xlink:href="#DejaVuSans-4c" transform="translate(1047.59375 0)"/>
       <use xlink:href="#DejaVuSans-44" transform="translate(1075.375 0)"/>
      </g>
     </g>
    </g>
    <g id="ytick_11">
     <g id="line2d_33">
      <path d="M 112.09625 272.032134 
L 560.61625 272.032134 
" clip-path="url(#p9abde773b8)" style="fill: none; stroke: #dddddd; stroke-width: 0.6; stroke-linecap: square"/>
     </g>
     <g id="line2d_34">
      <g>
       <use xlink:href="#m0543152c00" x="112.09625" y="272.032134" style="stroke: #000000; stroke-width: 0.8"/>
      </g>
     </g>
     <g id="text_18">
      <!-- poland → lithuania -->
      <g transform="translate(31.24125 275.071509) scale(0.08 -0.08)">
       <use xlink:href="#DejaVuSans-53"/>
       <use xlink:href="#DejaVuSans-52" transform="translate(63.484375 0)"/>
       <use xlink:href="#DejaVuSans-4f" transform="translate(124.671875 0)"/>
       <use xlink:href="#DejaVuSans-44" transform="translate(152.453125 0)"/>
       <use xlink:href="#DejaVuSans-51" transform="translate(213.734375 0)"/>
       <use xlink:href="#DejaVuSans-47" transform="translate(277.109375 0)"/>
       <use xlink:href="#DejaVuSans-3" transform="translate(340.59375 0)"/>
       <use xlink:href="#DejaVuSans-c1c" transform="translate(372.375 0)"/>
       <use xlink:href="#DejaVuSans-3" transform="translate(456.171875 0)"/>
       <use xlink:href="#DejaVuSans-4f" transform="translate(487.953125 0)"/>
       <use xlink:href="#DejaVuSans-4c" transform="translate(515.734375 0)"/>
       <use xlink:href="#DejaVuSans-57" transform="translate(543.515625 0)"/>
       <use xlink:href="#DejaVuSans-4b" transform="translate(582.71875 0)"/>
       <use xlink:href="#DejaVuSans-58" transform="translate(646.09375 0)"/>
       <use xlink:href="#DejaVuSans-44" transform="translate(709.46875 0)"/>
       <use xlink:href="#DejaVuSans-51" transform="translate(770.75 0)"/>
       <use xlink:href="#DejaVuSans-4c" transform="translate(834.125 0)"/>
       <use xlink:href="#DejaVuSans-44" transform="translate(861.90625 0)"/>
      </g>
     </g>
    </g>
    <g id="ytick_12">
     <g id="line2d_35">
      <path d="M 112.09625 294.516322 
L 560.61625 294.516322 
" clip-path="url(#p9abde773b8)" style="fill: none; stroke: #dddddd; stroke-width: 0.6; stroke-linecap: square"/>
     </g>
     <g id="line2d_36">
      <g>
       <use xlink:href="#m0543152c00" x="112.09625" y="294.516322" style="stroke: #000000; stroke-width: 0.8"/>
      </g>
     </g>
     <g id="text_19">
      <!-- bulgaria → moldova -->
      <g transform="translate(26.02 297.555697) scale(0.08 -0.08)">
       <defs>
        <path id="DejaVuSans-59" d="M 191 3500 
L 800 3500 
L 1894 563 
L 2988 3500 
L 3597 3500 
L 2284 0 
L 1503 0 
L 191 3500 
z
" transform="scale(0.015625)"/>
       </defs>
       <use xlink:href="#DejaVuSans-45"/>
       <use xlink:href="#DejaVuSans-58" transform="translate(63.484375 0)"/>
       <use xlink:href="#DejaVuSans-4f" transform="translate(126.859375 0)"/>
       <use xlink:href="#DejaVuSans-4a" transform="translate(154.640625 0)"/>
       <use xlink:href="#DejaVuSans-44" transform="translate(218.125 0)"/>
       <use xlink:href="#DejaVuSans-55" transform="translate(279.40625 0)"/>
       <use xlink:href="#DejaVuSans-4c" transform="translate(320.515625 0)"/>
       <use xlink:href="#DejaVuSans-44" transform="translate(348.296875 0)"/>
       <use xlink:href="#DejaVuSans-3" transform="translate(409.578125 0)"/>
       <use xlink:href="#DejaVuSans-c1c" transform="translate(441.359375 0)"/>
       <use xlink:href="#DejaVuSans-3" transform="translate(525.15625 0)"/>
       <use xlink:href="#DejaVuSans-50" transform="translate(556.9375 0)"/>
       <use xlink:href="#DejaVuSans-52" transform="translate(654.34375 0)"/>
       <use xlink:href="#DejaVuSans-4f" transform="translate(715.53125 0)"/>
       <use xlink:href="#DejaVuSans-47" transform="translate(743.3125 0)"/>
       <use xlink:href="#DejaVuSans-52" transform="translate(806.796875 0)"/>
       <use xlink:href="#DejaVuSans-59" transform="translate(867.984375 0)"/>
       <use xlink:href="#DejaVuSans-44" transform="translate(927.171875 0)"/>
      </g>
     </g>
    </g>
    <g id="ytick_13">
     <g id="line2d_37">
      <path d="M 112.09625 317.00051 
L 560.61625 317.00051 
" clip-path="url(#p9abde773b8)" style="fill: none; stroke: #dddddd; stroke-width: 0.6; stroke-linecap: square"/>
     </g>
     <g id="line2d_38">
      <g>
       <use xlink:href="#m0543152c00" x="112.09625" y="317.00051" style="stroke: #000000; stroke-width: 0.8"/>
      </g>
     </g>
     <g id="text_20">
      <!-- bolivia → brazil -->
      <g transform="translate(45.115 320.039885) scale(0.08 -0.08)">
       <use xlink:href="#DejaVuSans-45"/>
       <use xlink:href="#DejaVuSans-52" transform="translate(63.484375 0)"/>
       <use xlink:href="#DejaVuSans-4f" transform="translate(124.671875 0)"/>
       <use xlink:href="#DejaVuSans-4c" transform="translate(152.453125 0)"/>
       <use xlink:href="#DejaVuSans-59" transform="translate(180.234375 0)"/>
       <use xlink:href="#DejaVuSans-4c" transform="translate(239.421875 0)"/>
       <use xlink:href="#DejaVuSans-44" transform="translate(267.203125 0)"/>
       <use xlink:href="#DejaVuSans-3" transform="translate(328.484375 0)"/>
       <use xlink:href="#DejaVuSans-c1c" transform="translate(360.265625 0)"/>
       <use xlink:href="#DejaVuSans-3" transform="translate(444.0625 0)"/>
       <use xlink:href="#DejaVuSans-45" transform="translate(475.84375 0)"/>
       <use xlink:href="#DejaVuSans-55" transform="translate(539.328125 0)"/>
       <use xlink:href="#DejaVuSans-44" transform="translate(580.4375 0)"/>
       <use xlink:href="#DejaVuSans-5d" transform="translate(641.71875 0)"/>
       <use xlink:href="#DejaVuSans-4c" transform="translate(694.203125 0)"/>
       <use xlink:href="#DejaVuSans-4f" transform="translate(721.984375 0)"/>
      </g>
     </g>
    </g>
    <g id="ytick_14">
     <g id="line2d_39">
      <path d="M 112.09625 339.484697 
L 560.61625 339.484697 
" clip-path="url(#p9abde773b8)" style="fill: none; stroke: #dddddd; stroke-width: 0.6; stroke-linecap: square"/>
     </g>
     <g id="line2d_40">
      <g>
       <use xlink:href="#m0543152c00" x="112.09625" y="339.484697" style="stroke: #000000; stroke-width: 0.8"/>
      </g>
     </g>
     <g id="text_21">
      <!-- kenya → ethiopia -->
      <g transform="translate(36.88 342.524072) scale(0.08 -0.08)">
       <defs>
        <path id="DejaVuSans-4e" d="M 581 4863 
L 1159 4863 
L 1159 1991 
L 2875 3500 
L 3609 3500 
L 1753 1863 
L 3688 0 
L 2938 0 
L 1159 1709 
L 1159 0 
L 581 0 
L 581 4863 
z
" transform="scale(0.015625)"/>
       </defs>
       <use xlink:href="#DejaVuSans-4e"/>
       <use xlink:href="#DejaVuSans-48" transform="translate(54.34375 0)"/>
       <use xlink:href="#DejaVuSans-51" transform="translate(115.875 0)"/>
       <use xlink:href="#DejaVuSans-5c" transform="translate(179.25 0)"/>
       <use xlink:href="#DejaVuSans-44" transform="translate(238.4375 0)"/>
       <use xlink:href="#DejaVuSans-3" transform="translate(299.71875 0)"/>
       <use xlink:href="#DejaVuSans-c1c" transform="translate(331.5 0)"/>
       <use xlink:href="#DejaVuSans-3" transform="translate(415.296875 0)"/>
       <use xlink:href="#DejaVuSans-48" transform="translate(447.078125 0)"/>
       <use xlink:href="#DejaVuSans-57" transform="translate(508.609375 0)"/>
       <use xlink:href="#DejaVuSans-4b" transform="translate(547.8125 0)"/>
       <use xlink:href="#DejaVuSans-4c" transform="translate(611.1875 0)"/>
       <use xlink:href="#DejaVuSans-52" transform="translate(638.96875 0)"/>
       <use xlink:href="#DejaVuSans-53" transform="translate(700.15625 0)"/>
       <use xlink:href="#DejaVuSans-4c" transform="translate(763.640625 0)"/>
       <use xlink:href="#DejaVuSans-44" transform="translate(791.421875 0)"/>
      </g>
     </g>
    </g>
    <g id="ytick_15">
     <g id="line2d_41">
      <path d="M 112.09625 361.968885 
L 560.61625 361.968885 
" clip-path="url(#p9abde773b8)" style="fill: none; stroke: #dddddd; stroke-width: 0.6; stroke-linecap: square"/>
     </g>
     <g id="line2d_42">
      <g>
       <use xlink:href="#m0543152c00" x="112.09625" y="361.968885" style="stroke: #000000; stroke-width: 0.8"/>
      </g>
     </g>
     <g id="text_22">
      <!-- germany → poland -->
      <g transform="translate(30.41 365.00826) scale(0.08 -0.08)">
       <use xlink:href="#DejaVuSans-4a"/>
       <use xlink:href="#DejaVuSans-48" transform="translate(63.484375 0)"/>
       <use xlink:href="#DejaVuSans-55" transform="translate(125.015625 0)"/>
       <use xlink:href="#DejaVuSans-50" transform="translate(164.375 0)"/>
       <use xlink:href="#DejaVuSans-44" transform="translate(261.78125 0)"/>
       <use xlink:href="#DejaVuSans-51" transform="translate(323.0625 0)"/>
       <use xlink:href="#DejaVuSans-5c" transform="translate(386.4375 0)"/>
       <use xlink:href="#DejaVuSans-3" transform="translate(445.625 0)"/>
       <use xlink:href="#DejaVuSans-c1c" transform="translate(477.40625 0)"/>
       <use xlink:href="#DejaVuSans-3" transform="translate(561.203125 0)"/>
       <use xlink:href="#DejaVuSans-53" transform="translate(592.984375 0)"/>
       <use xlink:href="#DejaVuSans-52" transform="translate(656.46875 0)"/>
       <use xlink:href="#DejaVuSans-4f" transform="translate(717.65625 0)"/>
       <use xlink:href="#DejaVuSans-44" transform="translate(745.4375 0)"/>
       <use xlink:href="#DejaVuSans-51" transform="translate(806.71875 0)"/>
       <use xlink:href="#DejaVuSans-47" transform="translate(870.09375 0)"/>
      </g>
     </g>
    </g>
   </g>
   <g id="patch_3">
    <path d="M 112.09625 38.19658 
L 539.258155 38.19658 
L 539.258155 56.183931 
L 112.09625 56.183931 
z
" clip-path="url(#p9abde773b8)" style="fill: #4c72b0"/>
   </g>
   <g id="patch_4">
    <path d="M 112.09625 60.680768 
L 453.825774 60.680768 
L 453.825774 78.668118 
L 112.09625 78.668118 
z
" clip-path="url(#p9abde773b8)" style="fill: #4c72b0"/>
   </g>
   <g id="patch_5">
    <path d="M 112.09625 83.164956 
L 368.393393 83.164956 
L 368.393393 101.152306 
L 112.09625 101.152306 
z
" clip-path="url(#p9abde773b8)" style="fill: #4c72b0"/>
   </g>
   <g id="patch_6">
    <path d="M 112.09625 105.649144 
L 368.393393 105.649144 
L 368.393393 123.636494 
L 112.09625 123.636494 
z
" clip-path="url(#p9abde773b8)" style="fill: #4c72b0"/>
   </g>
   <g id="patch_7">
    <path d="M 112.09625 128.133332 
L 368.393393 128.133332 
L 368.393393 146.120682 
L 112.09625 146.120682 
z
" clip-path="url(#p9abde773b8)" style="fill: #4c72b0"/>
   </g>
   <g id="patch_8">
    <path d="M 112.09625 150.617519 
L 368.393393 150.617519 
L 368.393393 168.60487 
L 112.09625 168.60487 
z
" clip-path="url(#p9abde773b8)" style="fill: #4c72b0"/>
   </g>
   <g id="patch_9">
    <path d="M 112.09625 173.101707 
L 368.393393 173.101707 
L 368.393393 191.089058 
L 112.09625 191.089058 
z
" clip-path="url(#p9abde773b8)" style="fill: #4c72b0"/>
   </g>
   <g id="patch_10">
    <path d="M 112.09625 195.585895 
L 282.961012 195.585895 
L 282.961012 213.573245 
L 112.09625 213.573245 
z
" clip-path="url(#p9abde773b8)" style="fill: #4c72b0"/>
   </g>
   <g id="patch_11">
    <path d="M 112.09625 218.070083 
L 282.961012 218.070083 
L 282.961012 236.057433 
L 112.09625 236.057433 
z
" clip-path="url(#p9abde773b8)" style="fill: #4c72b0"/>
   </g>
   <g id="patch_12">
    <path d="M 112.09625 240.554271 
L 282.961012 240.554271 
L 282.961012 258.541621 
L 112.09625 258.541621 
z
" clip-path="url(#p9abde773b8)" style="fill: #4c72b0"/>
   </g>
   <g id="patch_13">
    <path d="M 112.09625 263.038459 
L 282.961012 263.038459 
L 282.961012 281.025809 
L 112.09625 281.025809 
z
" clip-path="url(#p9abde773b8)" style="fill: #4c72b0"/>
   </g>
   <g id="patch_14">
    <path d="M 112.09625 285.522647 
L 282.961012 285.522647 
L 282.961012 303.509997 
L 112.09625 303.509997 
z
" clip-path="url(#p9abde773b8)" style="fill: #4c72b0"/>
   </g>
   <g id="patch_15">
    <path d="M 112.09625 308.006834 
L 282.961012 308.006834 
L 282.961012 325.994185 
L 112.09625 325.994185 
z
" clip-path="url(#p9abde773b8)" style="fill: #4c72b0"/>
   </g>
   <g id="patch_16">
    <path d="M 112.09625 330.491022 
L 282.961012 330.491022 
L 282.961012 348.478373 
L 112.09625 348.478373 
z
" clip-path="url(#p9abde773b8)" style="fill: #4c72b0"/>
   </g>
   <g id="patch_17">
    <path d="M 112.09625 352.97521 
L 282.961012 352.97521 
L 282.961012 370.96256 
L 112.09625 370.96256 
z
" clip-path="url(#p9abde773b8)" style="fill: #4c72b0"/>
   </g>
   <g id="patch_18">
    <path d="M 112.09625 387.600859 
L 112.09625 21.558281 
" style="fill: none; stroke: #000000; stroke-width: 0.8; stroke-linejoin: miter; stroke-linecap: square"/>
   </g>
   <g id="patch_19">
    <path d="M 112.09625 387.600859 
L 560.61625 387.600859 
" style="fill: none; stroke: #000000; stroke-width: 0.8; stroke-linejoin: miter; stroke-linecap: square"/>
   </g>
   <g id="text_23">
    <!-- Top 15 confusion pairs (truth → predicted) -->
    <g transform="translate(205.647891 15.558281) scale(0.11 -0.11)">
     <defs>
      <path id="DejaVuSans-Bold-37" d="M 31 4666 
L 4331 4666 
L 4331 3756 
L 2784 3756 
L 2784 0 
L 1581 0 
L 1581 3756 
L 31 3756 
L 31 4666 
z
" transform="scale(0.015625)"/>
      <path id="DejaVuSans-Bold-52" d="M 2203 2784 
Q 1831 2784 1636 2517 
Q 1441 2250 1441 1747 
Q 1441 1244 1636 976 
Q 1831 709 2203 709 
Q 2569 709 2762 976 
Q 2956 1244 2956 1747 
Q 2956 2250 2762 2517 
Q 2569 2784 2203 2784 
z
M 2203 3584 
Q 3106 3584 3614 3096 
Q 4122 2609 4122 1747 
Q 4122 884 3614 396 
Q 3106 -91 2203 -91 
Q 1297 -91 786 396 
Q 275 884 275 1747 
Q 275 2609 786 3096 
Q 1297 3584 2203 3584 
z
" transform="scale(0.015625)"/>
      <path id="DejaVuSans-Bold-53" d="M 1656 506 
L 1656 -1331 
L 538 -1331 
L 538 3500 
L 1656 3500 
L 1656 2988 
Q 1888 3294 2169 3439 
Q 2450 3584 2816 3584 
Q 3463 3584 3878 3070 
Q 4294 2556 4294 1747 
Q 4294 938 3878 423 
Q 3463 -91 2816 -91 
Q 2450 -91 2169 54 
Q 1888 200 1656 506 
z
M 2400 2772 
Q 2041 2772 1848 2508 
Q 1656 2244 1656 1747 
Q 1656 1250 1848 986 
Q 2041 722 2400 722 
Q 2759 722 2948 984 
Q 3138 1247 3138 1747 
Q 3138 2247 2948 2509 
Q 2759 2772 2400 2772 
z
" transform="scale(0.015625)"/>
      <path id="DejaVuSans-Bold-3" transform="scale(0.015625)"/>
      <path id="DejaVuSans-Bold-14" d="M 750 831 
L 1813 831 
L 1813 3847 
L 722 3622 
L 722 4441 
L 1806 4666 
L 2950 4666 
L 2950 831 
L 4013 831 
L 4013 0 
L 750 0 
L 750 831 
z
" transform="scale(0.015625)"/>
      <path id="DejaVuSans-Bold-18" d="M 678 4666 
L 3669 4666 
L 3669 3781 
L 1638 3781 
L 1638 3059 
Q 1775 3097 1914 3117 
Q 2053 3138 2203 3138 
Q 3056 3138 3531 2711 
Q 4006 2284 4006 1522 
Q 4006 766 3489 337 
Q 2972 -91 2053 -91 
Q 1656 -91 1267 -14 
Q 878 63 494 219 
L 494 1166 
Q 875 947 1217 837 
Q 1559 728 1863 728 
Q 2300 728 2551 942 
Q 2803 1156 2803 1522 
Q 2803 1891 2551 2103 
Q 2300 2316 1863 2316 
Q 1603 2316 1309 2248 
Q 1016 2181 678 2041 
L 678 4666 
z
" transform="scale(0.015625)"/>
      <path id="DejaVuSans-Bold-46" d="M 3366 3391 
L 3366 2478 
Q 3138 2634 2908 2709 
Q 2678 2784 2431 2784 
Q 1963 2784 1702 2511 
Q 1441 2238 1441 1747 
Q 1441 1256 1702 982 
Q 1963 709 2431 709 
Q 2694 709 2930 787 
Q 3166 866 3366 1019 
L 3366 103 
Q 3103 6 2833 -42 
Q 2563 -91 2291 -91 
Q 1344 -91 809 395 
Q 275 881 275 1747 
Q 275 2613 809 3098 
Q 1344 3584 2291 3584 
Q 2566 3584 2833 3536 
Q 3100 3488 3366 3391 
z
" transform="scale(0.015625)"/>
      <path id="DejaVuSans-Bold-51" d="M 4056 2131 
L 4056 0 
L 2931 0 
L 2931 347 
L 2931 1631 
Q 2931 2084 2911 2256 
Q 2891 2428 2841 2509 
Q 2775 2619 2662 2680 
Q 2550 2741 2406 2741 
Q 2056 2741 1856 2470 
Q 1656 2200 1656 1722 
L 1656 0 
L 538 0 
L 538 3500 
L 1656 3500 
L 1656 2988 
Q 1909 3294 2193 3439 
Q 2478 3584 2822 3584 
Q 3428 3584 3742 3212 
Q 4056 2841 4056 2131 
z
" transform="scale(0.015625)"/>
      <path id="DejaVuSans-Bold-49" d="M 2841 4863 
L 2841 4128 
L 2222 4128 
Q 1984 4128 1890 4042 
Q 1797 3956 1797 3744 
L 1797 3500 
L 2753 3500 
L 2753 2700 
L 1797 2700 
L 1797 0 
L 678 0 
L 678 2700 
L 122 2700 
L 122 3500 
L 678 3500 
L 678 3744 
Q 678 4316 997 4589 
Q 1316 4863 1984 4863 
L 2841 4863 
z
" transform="scale(0.015625)"/>
      <path id="DejaVuSans-Bold-58" d="M 500 1363 
L 500 3500 
L 1625 3500 
L 1625 3150 
Q 1625 2866 1622 2436 
Q 1619 2006 1619 1863 
Q 1619 1441 1641 1255 
Q 1663 1069 1716 984 
Q 1784 875 1895 815 
Q 2006 756 2150 756 
Q 2500 756 2700 1025 
Q 2900 1294 2900 1772 
L 2900 3500 
L 4019 3500 
L 4019 0 
L 2900 0 
L 2900 506 
Q 2647 200 2364 54 
Q 2081 -91 1741 -91 
Q 1134 -91 817 281 
Q 500 653 500 1363 
z
" transform="scale(0.015625)"/>
      <path id="DejaVuSans-Bold-56" d="M 3272 3391 
L 3272 2541 
Q 2913 2691 2578 2766 
Q 2244 2841 1947 2841 
Q 1628 2841 1473 2761 
Q 1319 2681 1319 2516 
Q 1319 2381 1436 2309 
Q 1553 2238 1856 2203 
L 2053 2175 
Q 2913 2066 3209 1816 
Q 3506 1566 3506 1031 
Q 3506 472 3093 190 
Q 2681 -91 1863 -91 
Q 1516 -91 1145 -36 
Q 775 19 384 128 
L 384 978 
Q 719 816 1070 734 
Q 1422 653 1784 653 
Q 2113 653 2278 743 
Q 2444 834 2444 1013 
Q 2444 1163 2330 1236 
Q 2216 1309 1875 1350 
L 1678 1375 
Q 931 1469 631 1722 
Q 331 1975 331 2491 
Q 331 3047 712 3315 
Q 1094 3584 1881 3584 
Q 2191 3584 2531 3537 
Q 2872 3491 3272 3391 
z
" transform="scale(0.015625)"/>
      <path id="DejaVuSans-Bold-4c" d="M 538 3500 
L 1656 3500 
L 1656 0 
L 538 0 
L 538 3500 
z
M 538 4863 
L 1656 4863 
L 1656 3950 
L 538 3950 
L 538 4863 
z
" transform="scale(0.015625)"/>
      <path id="DejaVuSans-Bold-44" d="M 2106 1575 
Q 1756 1575 1579 1456 
Q 1403 1338 1403 1106 
Q 1403 894 1545 773 
Q 1688 653 1941 653 
Q 2256 653 2472 879 
Q 2688 1106 2688 1447 
L 2688 1575 
L 2106 1575 
z
M 3816 1997 
L 3816 0 
L 2688 0 
L 2688 519 
Q 2463 200 2181 54 
Q 1900 -91 1497 -91 
Q 953 -91 614 226 
Q 275 544 275 1050 
Q 275 1666 698 1953 
Q 1122 2241 2028 2241 
L 2688 2241 
L 2688 2328 
Q 2688 2594 2478 2717 
Q 2269 2841 1825 2841 
Q 1466 2841 1156 2769 
Q 847 2697 581 2553 
L 581 3406 
Q 941 3494 1303 3539 
Q 1666 3584 2028 3584 
Q 2975 3584 3395 3211 
Q 3816 2838 3816 1997 
z
" transform="scale(0.015625)"/>
      <path id="DejaVuSans-Bold-55" d="M 3138 2547 
Q 2991 2616 2845 2648 
Q 2700 2681 2553 2681 
Q 2122 2681 1889 2404 
Q 1656 2128 1656 1613 
L 1656 0 
L 538 0 
L 538 3500 
L 1656 3500 
L 1656 2925 
Q 1872 3269 2151 3426 
Q 2431 3584 2822 3584 
Q 2878 3584 2943 3579 
Q 3009 3575 3134 3559 
L 3138 2547 
z
" transform="scale(0.015625)"/>
      <path id="DejaVuSans-Bold-b" d="M 2413 -844 
L 1484 -844 
Q 1006 -72 778 623 
Q 550 1319 550 2003 
Q 550 2688 779 3389 
Q 1009 4091 1484 4856 
L 2413 4856 
Q 2013 4116 1813 3408 
Q 1613 2700 1613 2009 
Q 1613 1319 1811 609 
Q 2009 -100 2413 -844 
z
" transform="scale(0.015625)"/>
      <path id="DejaVuSans-Bold-57" d="M 1759 4494 
L 1759 3500 
L 2913 3500 
L 2913 2700 
L 1759 2700 
L 1759 1216 
Q 1759 972 1856 886 
Q 1953 800 2241 800 
L 2816 800 
L 2816 0 
L 1856 0 
Q 1194 0 917 276 
Q 641 553 641 1216 
L 641 2700 
L 84 2700 
L 84 3500 
L 641 3500 
L 641 4494 
L 1759 4494 
z
" transform="scale(0.015625)"/>
      <path id="DejaVuSans-Bold-4b" d="M 4056 2131 
L 4056 0 
L 2931 0 
L 2931 347 
L 2931 1625 
Q 2931 2084 2911 2256 
Q 2891 2428 2841 2509 
Q 2775 2619 2662 2680 
Q 2550 2741 2406 2741 
Q 2056 2741 1856 2470 
Q 1656 2200 1656 1722 
L 1656 0 
L 538 0 
L 538 4863 
L 1656 4863 
L 1656 2988 
Q 1909 3294 2193 3439 
Q 2478 3584 2822 3584 
Q 3428 3584 3742 3212 
Q 4056 2841 4056 2131 
z
" transform="scale(0.015625)"/>
      <path id="DejaVuSans-Bold-c1c" d="M 5050 2225 
L 5050 1788 
L 3822 559 
L 3369 1013 
L 3988 1631 
L 366 1631 
L 366 2381 
L 3988 2381 
L 3369 3000 
L 3822 3453 
L 5050 2225 
z
" transform="scale(0.015625)"/>
      <path id="DejaVuSans-Bold-48" d="M 4031 1759 
L 4031 1441 
L 1416 1441 
Q 1456 1047 1700 850 
Q 1944 653 2381 653 
Q 2734 653 3104 758 
Q 3475 863 3866 1075 
L 3866 213 
Q 3469 63 3072 -14 
Q 2675 -91 2278 -91 
Q 1328 -91 801 392 
Q 275 875 275 1747 
Q 275 2603 792 3093 
Q 1309 3584 2216 3584 
Q 3041 3584 3536 3087 
Q 4031 2591 4031 1759 
z
M 2881 2131 
Q 2881 2450 2695 2645 
Q 2509 2841 2209 2841 
Q 1884 2841 1681 2658 
Q 1478 2475 1428 2131 
L 2881 2131 
z
" transform="scale(0.015625)"/>
      <path id="DejaVuSans-Bold-47" d="M 2919 2988 
L 2919 4863 
L 4044 4863 
L 4044 0 
L 2919 0 
L 2919 506 
Q 2688 197 2409 53 
Q 2131 -91 1766 -91 
Q 1119 -91 703 423 
Q 288 938 288 1747 
Q 288 2556 703 3070 
Q 1119 3584 1766 3584 
Q 2128 3584 2408 3439 
Q 2688 3294 2919 2988 
z
M 2181 722 
Q 2541 722 2730 984 
Q 2919 1247 2919 1747 
Q 2919 2247 2730 2509 
Q 2541 2772 2181 2772 
Q 1825 2772 1636 2509 
Q 1447 2247 1447 1747 
Q 1447 1247 1636 984 
Q 1825 722 2181 722 
z
" transform="scale(0.015625)"/>
      <path id="DejaVuSans-Bold-c" d="M 513 -844 
Q 913 -100 1113 609 
Q 1313 1319 1313 2009 
Q 1313 2700 1113 3408 
Q 913 4116 513 4856 
L 1441 4856 
Q 1916 4091 2145 3389 
Q 2375 2688 2375 2003 
Q 2375 1319 2147 623 
Q 1919 -72 1441 -844 
L 513 -844 
z
" transform="scale(0.015625)"/>
     </defs>
     <use xlink:href="#DejaVuSans-Bold-37"/>
     <use xlink:href="#DejaVuSans-Bold-52" transform="translate(54.9375 0)"/>
     <use xlink:href="#DejaVuSans-Bold-53" transform="translate(123.640625 0)"/>
     <use xlink:href="#DejaVuSans-Bold-3" transform="translate(195.21875 0)"/>
     <use xlink:href="#DejaVuSans-Bold-14" transform="translate(230.03125 0)"/>
     <use xlink:href="#DejaVuSans-Bold-18" transform="translate(299.609375 0)"/>
     <use xlink:href="#DejaVuSans-Bold-3" transform="translate(369.1875 0)"/>
     <use xlink:href="#DejaVuSans-Bold-46" transform="translate(404 0)"/>
     <use xlink:href="#DejaVuSans-Bold-52" transform="translate(463.28125 0)"/>
     <use xlink:href="#DejaVuSans-Bold-51" transform="translate(531.984375 0)"/>
     <use xlink:href="#DejaVuSans-Bold-49" transform="translate(603.171875 0)"/>
     <use xlink:href="#DejaVuSans-Bold-58" transform="translate(646.671875 0)"/>
     <use xlink:href="#DejaVuSans-Bold-56" transform="translate(717.859375 0)"/>
     <use xlink:href="#DejaVuSans-Bold-4c" transform="translate(777.375 0)"/>
     <use xlink:href="#DejaVuSans-Bold-52" transform="translate(811.65625 0)"/>
     <use xlink:href="#DejaVuSans-Bold-51" transform="translate(880.359375 0)"/>
     <use xlink:href="#DejaVuSans-Bold-3" transform="translate(951.546875 0)"/>
     <use xlink:href="#DejaVuSans-Bold-53" transform="translate(986.359375 0)"/>
     <use xlink:href="#DejaVuSans-Bold-44" transform="translate(1057.9375 0)"/>
     <use xlink:href="#DejaVuSans-Bold-4c" transform="translate(1125.421875 0)"/>
     <use xlink:href="#DejaVuSans-Bold-55" transform="translate(1159.703125 0)"/>
     <use xlink:href="#DejaVuSans-Bold-56" transform="translate(1209.015625 0)"/>
     <use xlink:href="#DejaVuSans-Bold-3" transform="translate(1268.53125 0)"/>
     <use xlink:href="#DejaVuSans-Bold-b" transform="translate(1303.34375 0)"/>
     <use xlink:href="#DejaVuSans-Bold-57" transform="translate(1349.046875 0)"/>
     <use xlink:href="#DejaVuSans-Bold-55" transform="translate(1396.84375 0)"/>
     <use xlink:href="#DejaVuSans-Bold-58" transform="translate(1446.15625 0)"/>
     <use xlink:href="#DejaVuSans-Bold-57" transform="translate(1517.34375 0)"/>
     <use xlink:href="#DejaVuSans-Bold-4b" transform="translate(1565.140625 0)"/>
     <use xlink:href="#DejaVuSans-Bold-3" transform="translate(1636.328125 0)"/>
     <use xlink:href="#DejaVuSans-Bold-c1c" transform="translate(1671.140625 0)"/>
     <use xlink:href="#DejaVuSans-Bold-3" transform="translate(1754.9375 0)"/>
     <use xlink:href="#DejaVuSans-Bold-53" transform="translate(1789.75 0)"/>
     <use xlink:href="#DejaVuSans-Bold-55" transform="translate(1861.328125 0)"/>
     <use xlink:href="#DejaVuSans-Bold-48" transform="translate(1910.640625 0)"/>
     <use xlink:href="#DejaVuSans-Bold-47" transform="translate(1978.46875 0)"/>
     <use xlink:href="#DejaVuSans-Bold-4c" transform="translate(2050.046875 0)"/>
     <use xlink:href="#DejaVuSans-Bold-46" transform="translate(2084.328125 0)"/>
     <use xlink:href="#DejaVuSans-Bold-57" transform="translate(2143.609375 0)"/>
     <use xlink:href="#DejaVuSans-Bold-48" transform="translate(2191.40625 0)"/>
     <use xlink:href="#DejaVuSans-Bold-47" transform="translate(2259.234375 0)"/>
     <use xlink:href="#DejaVuSans-Bold-c" transform="translate(2330.8125 0)"/>
    </g>
   </g>
  </g>
 </g>
 <defs>
  <clipPath id="p9abde773b8">
   <rect x="112.09625" y="21.558281" width="448.52" height="366.042578"/>
  </clipPath>
 </defs>
</svg>
