<?xml version="1.0" encoding="utf-8" standalone="no"?>
<!DOCTYPE svg PUBLIC "-//W3C//DTD SVG 1.1//EN"
  "http://www.w3.org/Graphics/SVG/1.1/DTD/svg11.dtd">
<svg xmlns:xlink="http://www.w3.org/1999/xlink" width="406.58625pt" height="424.798125pt" viewBox="0 0 406.58625 424.798125" xmlns="http://www.w3.org/2000/svg" version="1.1">
 <metadata>
  <rdf:RDF xmlns:dc="http://purl.org/dc/elements/1.1/" xmlns:cc="http://creativecommons.org/ns#" xmlns:rdf="http://www.w3.org/1999/02/22-rdf-syntax-ns#">
   <cc:Work>
    <dc:type rdf:resource="http://purl.org/dc/dcmitype/StillImage"/>
    <dc:date>2026-07-12T16:00:37.335705</dc:date>
    <dc:format>image/svg+xml</dc:format>
    <dc:creator>
     <cc:Agent>
      <dc:title>Matplotlib v3.11.0, https://matplotlib.org/</dc:title>
     </cc:Agent>
    </dc:creator>
   </cc:Work>
  </rdf:RDF>
 </metadata>
 <defs>
  <style type="text/css">*{stroke-linejoin: round; stroke-linecap: butt}</style>
 </defs>
 <g id="figure_1">
  <g id="patch_1">
   <path d="M 0 424.798125 
L 406.58625 424.798125 
L 406.58625 0 
L 0 0 
z
" style="fill: #ffffff"/>
  </g>
  <g id="axes_1">
   <g id="patch_2">
    <path d="M 376.52375 226.958125 
C 376.52375 204.418567 372.083948 182.098177 363.458433 161.274341 
C 354.832917 140.450504 342.189432 121.528192 326.251558 105.590317 
C 310.313683 89.652443 291.391371 77.008958 270.567534 68.383442 
C 249.743698 59.757927 227.423308 55.318125 204.88375 55.318125 
C 182.344192 55.318125 160.023802 59.757927 139.199966 68.383442 
C 118.376129 77.008958 99.453817 89.652443 83.515942 105.590317 
C 67.578068 121.528192 54.934583 140.450504 46.309067 161.274341 
C 37.683552 182.098177 33.24375 204.418567 33.24375 226.958125 
C 33.24375 249.497683 37.683552 271.818073 46.309067 292.641909 
C 54.934583 313.465746 67.578068 332.388058 83.515942 348.325933 
C 99.453817 364.263807 118.376129 376.907292 139.199966 385.532808 
C 160.023802 394.158323 182.344192 398.598125 204.88375 398.598125 
C 227.423308 398.598125 249.743698 394.158323 270.567534 385.532808 
C 291.391371 376.907292 310.313683 364.263807 326.251558 348.325933 
C 342.189432 332.388058 354.832917 313.465746 363.458433 292.641909 
C 372.083948 271.818073 376.52375 249.497683 376.52375 226.958125 
M 204.88375 226.958125 
C 204.88375 226.958125 204.88375 226.958125 204.88375 226.958125 
C 204.88375 226.958125 204.88375 226.958125 204.88375 226.958125 
C 204.88375 226.958125 204.88375 226.958125 204.88375 226.958125 
C 204.88375 226.958125 204.88375 226.958125 204.88375 226.958125 
C 204.88375 226.958125 204.88375 226.958125 204.88375 226.958125 
C 204.88375 226.958125 204.88375 226.958125 204.88375 226.958125 
C 204.88375 226.958125 204.88375 226.958125 204.88375 226.958125 
C 204.88375 226.958125 204.88375 226.958125 204.88375 226.958125 
C 204.88375 226.958125 204.88375 226.958125 204.88375 226.958125 
C 204.88375 226.958125 204.88375 226.958125 204.88375 226.958125 
C 204.88375 226.958125 204.88375 226.958125 204.88375 226.958125 
C 204.88375 226.958125 204.88375 226.958125 204.88375 226.958125 
C 204.88375 226.958125 204.88375 226.958125 204.88375 226.958125 
C 204.88375 226.958125 204.88375 226.958125 204.88375 226.958125 
C 204.88375 226.958125 204.88375 226.958125 204.88375 226.958125 
C 204.88375 226.958125 204.88375 226.958125 204.88375 226.958125 
z
" style="fill: #ffffff"/>
   </g>
   <g id="matplotlib.axis_1">
    <g id="xtick_1">
     <g id="line2d_1">
      <path d="M 204.88375 226.958125 
L 204.88375 55.318125 
" clip-path="url(#p756d7f81f9)" style="fill: none; stroke: #dddddd; stroke-width: 0.6; stroke-linecap: square"/>
     </g>
     <g id="text_1">
      <!-- 0° -->
      <g transform="translate(199.2025 43.915781) scale(0.1 -0.1)">
       <defs>
        <path id="DejaVuSans-13" d="M 2034 4250 
Q 1547 4250 1301 3770 
Q 1056 3291 1056 2328 
Q 1056 1369 1301 889 
Q 1547 409 2034 409 
Q 2525 409 2770 889 
Q 3016 1369 3016 2328 
Q 3016 3291 2770 3770 
Q 2525 4250 2034 4250 
z
M 2034 4750 
Q 2819 4750 3233 4129 
Q 3647 3509 3647 2328 
Q 3647 1150 3233 529 
Q 2819 -91 2034 -91 
Q 1250 -91 836 529 
Q 422 1150 422 2328 
Q 422 3509 836 4129 
Q 1250 4750 2034 4750 
z
" transform="scale(0.015625)"/>
        <path id="DejaVuSans-72" d="M 1600 4347 
Q 1350 4347 1178 4173 
Q 1006 4000 1006 3750 
Q 1006 3503 1178 3333 
Q 1350 3163 1600 3163 
Q 1850 3163 2022 3333 
Q 2194 3503 2194 3750 
Q 2194 3997 2020 4172 
Q 1847 4347 1600 4347 
z
M 1600 4750 
Q 1800 4750 1984 4673 
Q 2169 4597 2303 4453 
Q 2447 4313 2519 4134 
Q 2591 3956 2591 3750 
Q 2591 3338 2302 3052 
Q 2013 2766 1594 2766 
Q 1172 2766 890 3047 
Q 609 3328 609 3750 
Q 609 4169 896 4459 
Q 1184 4750 1600 4750 
z
" transform="scale(0.015625)"/>
       </defs>
       <use xlink:href="#DejaVuSans-13"/>
       <use xlink:href="#DejaVuSans-72" transform="translate(63.625 0)"/>
      </g>
     </g>
    </g>
    <g id="xtick_2">
     <g id="line2d_2">
      <path d="M 204.88375 226.958125 
L 326.251558 105.590317 
" clip-path="url(#p756d7f81f9)" style="fill: none; stroke: #dddddd; stroke-width: 0.6; stroke-linecap: square"/>
     </g>
     <g id="text_2">
      <!-- 45° -->
      <g transform="translate(327.288553 98.288478) scale(0.1 -0.1)">
       <defs>
        <path id="DejaVuSans-17" d="M 2419 4116 
L 825 1625 
L 2419 1625 
L 2419 4116 
z
M 2253 4666 
L 3047 4666 
L 3047 1625 
L 3713 1625 
L 3713 1100 
L 3047 1100 
L 3047 0 
L 2419 0 
L 2419 1100 
L 313 1100 
L 313 1709 
L 2253 4666 
z
" transform="scale(0.015625)"/>
        <path id="DejaVuSans-18" d="M 691 4666 
L 3169 4666 
L 3169 4134 
L 1269 4134 
L 1269 2991 
Q 1406 3038 1543 3061 
Q 1681 3084 1819 3084 
Q 2600 3084 3056 2656 
Q 3513 2228 3513 1497 
Q 3513 744 3044 326 
Q 2575 -91 1722 -91 
Q 1428 -91 1123 -41 
Q 819 9 494 109 
L 494 744 
Q 775 591 1075 516 
Q 1375 441 1709 441 
Q 2250 441 2565 725 
Q 2881 1009 2881 1497 
Q 2881 1984 2565 2268 
Q 2250 2553 1709 2553 
Q 1456 2553 1204 2497 
Q 953 2441 691 2322 
L 691 4666 
z
" transform="scale(0.015625)"/>
       </defs>
       <use xlink:href="#DejaVuSans-17"/>
       <use xlink:href="#DejaVuSans-18" transform="translate(63.625 0)"/>
       <use xlink:href="#DejaVuSans-72" transform="translate(127.25 0)"/>
      </g>
     </g>
    </g>
    <g id="xtick_3">
     <g id="line2d_3">
      <path d="M 204.88375 226.958125 
L 376.52375 226.958125 
" clip-path="url(#p756d7f81f9)" style="fill: none; stroke: #dddddd; stroke-width: 0.6; stroke-linecap: square"/>
     </g>
     <g id="text_3">
      <!-- 90° -->
      <g transform="translate(381.66125 229.555781) scale(0.1 -0.1)">
       <defs>
        <path id="DejaVuSans-1c" d="M 703 97 
L 703 672 
Q 941 559 1184 500 
Q 1428 441 1663 441 
Q 2288 441 2617 861 
Q 2947 1281 2994 2138 
Q 2813 1869 2534 1725 
Q 2256 1581 1919 1581 
Q 1219 1581 811 2004 
Q 403 2428 403 3163 
Q 403 3881 828 4315 
Q 1253 4750 1959 4750 
Q 2769 4750 3195 4129 
Q 3622 3509 3622 2328 
Q 3622 1225 3098 567 
Q 2575 -91 1691 -91 
Q 1453 -91 1209 -44 
Q 966 3 703 97 
z
M 1959 2075 
Q 2384 2075 2632 2365 
Q 2881 2656 2881 3163 
Q 2881 3666 2632 3958 
Q 2384 4250 1959 4250 
Q 1534 4250 1286 3958 
Q 1038 3666 1038 3163 
Q 1038 2656 1286 2365 
Q 1534 2075 1959 2075 
z
" transform="scale(0.015625)"/>
       </defs>
       <use xlink:href="#DejaVuSans-1c"/>
       <use xlink:href="#DejaVuSans-13" transform="translate(63.625 0)"/>
       <use xlink:href="#DejaVuSans-72" transform="translate(127.25 0)"/>
      </g>
     </g>
    </g>
    <g id="xtick_4">
     <g id="line2d_4">
      <path d="M 204.88375 226.958125 
L 326.251558 348.325933 
" clip-path="url(#p756d7f81f9)" style="fill: none; stroke: #dddddd; stroke-width: 0.6; stroke-linecap: square"/>
     </g>
     <g id="text_4">
      <!-- 135° -->
      <g transform="translate(324.107303 360.823084) scale(0.1 -0.1)">
       <defs>
        <path id="DejaVuSans-14" d="M 794 531 
L 1825 531 
L 1825 4091 
L 703 3866 
L 703 4441 
L 1819 4666 
L 2450 4666 
L 2450 531 
L 3481 531 
L 3481 0 
L 794 0 
L 794 531 
z
" transform="scale(0.015625)"/>
        <path id="DejaVuSans-16" d="M 2597 2516 
Q 3050 2419 3304 2112 
Q 3559 1806 3559 1356 
Q 3559 666 3084 287 
Q 2609 -91 1734 -91 
Q 1441 -91 1130 -33 
Q 819 25 488 141 
L 488 750 
Q 750 597 1062 519 
Q 1375 441 1716 441 
Q 2309 441 2620 675 
Q 2931 909 2931 1356 
Q 2931 1769 2642 2001 
Q 2353 2234 1838 2234 
L 1294 2234 
L 1294 2753 
L 1863 2753 
Q 2328 2753 2575 2939 
Q 2822 3125 2822 3475 
Q 2822 3834 2567 4026 
Q 2313 4219 1838 4219 
Q 1578 4219 1281 4162 
Q 984 4106 628 3988 
L 628 4550 
Q 988 4650 1302 4700 
Q 1616 4750 1894 4750 
Q 2613 4750 3031 4423 
Q 3450 4097 3450 3541 
Q 3450 3153 3228 2886 
Q 3006 2619 2597 2516 
z
" transform="scale(0.015625)"/>
       </defs>
       <use xlink:href="#DejaVuSans-14"/>
       <use xlink:href="#DejaVuSans-16" transform="translate(63.625 0)"/>
       <use xlink:href="#DejaVuSans-18" transform="translate(127.25 0)"/>
       <use xlink:href="#DejaVuSans-72" transform="translate(190.875 0)"/>
      </g>
     </g>
    </g>
    <g id="xtick_5">
     <g id="line2d_5">
      <path d="M 204.88375 226.958125 
L 204.88375 398.598125 
" clip-path="url(#p756d7f81f9)" style="fill: none; stroke: #dddddd; stroke-width: 0.6; stroke-linecap: square"/>
     </g>
     <g id="text_5">
      <!-- 180° -->
      <g transform="translate(192.84 415.195781) scale(0.1 -0.1)">
       <defs>
        <path id="DejaVuSans-1b" d="M 2034 2216 
Q 1584 2216 1326 1975 
Q 1069 1734 1069 1313 
Q 1069 891 1326 650 
Q 1584 409 2034 409 
Q 2484 409 2743 651 
Q 3003 894 3003 1313 
Q 3003 1734 2745 1975 
Q 2488 2216 2034 2216 
z
M 1403 2484 
Q 997 2584 770 2862 
Q 544 3141 544 3541 
Q 544 4100 942 4425 
Q 1341 4750 2034 4750 
Q 2731 4750 3128 4425 
Q 3525 4100 3525 3541 
Q 3525 3141 3298 2862 
Q 3072 2584 2669 2484 
Q 3125 2378 3379 2068 
Q 3634 1759 3634 1313 
Q 3634 634 3220 271 
Q 2806 -91 2034 -91 
Q 1263 -91 848 271 
Q 434 634 434 1313 
Q 434 1759 690 2068 
Q 947 2378 1403 2484 
z
M 1172 3481 
Q 1172 3119 1398 2916 
Q 1625 2713 2034 2713 
Q 2441 2713 2670 2916 
Q 2900 3119 2900 3481 
Q 2900 3844 2670 4047 
Q 2441 4250 2034 4250 
Q 1625 4250 1398 4047 
Q 1172 3844 1172 3481 
z
" transform="scale(0.015625)"/>
       </defs>
       <use xlink:href="#DejaVuSans-14"/>
       <use xlink:href="#DejaVuSans-1b" transform="translate(63.625 0)"/>
       <use xlink:href="#DejaVuSans-13" transform="translate(127.25 0)"/>
       <use xlink:href="#DejaVuSans-72" transform="translate(190.875 0)"/>
      </g>
     </g>
    </g>
    <g id="xtick_6">
     <g id="line2d_6">
      <path d="M 204.88375 226.958125 
L 83.515942 348.325933 
" clip-path="url(#p756d7f81f9)" style="fill: none; stroke: #dddddd; stroke-width: 0.6; stroke-linecap: square"/>
     </g>
     <g id="text_6">
      <!-- 225° -->
      <g transform="translate(61.572697 360.823084) scale(0.1 -0.1)">
       <defs>
        <path id="DejaVuSans-15" d="M 1228 531 
L 3431 531 
L 3431 0 
L 469 0 
L 469 531 
Q 828 903 1448 1529 
Q 2069 2156 2228 2338 
Q 2531 2678 2651 2914 
Q 2772 3150 2772 3378 
Q 2772 3750 2511 3984 
Q 2250 4219 1831 4219 
Q 1534 4219 1204 4116 
Q 875 4013 500 3803 
L 500 4441 
Q 881 4594 1212 4672 
Q 1544 4750 1819 4750 
Q 2544 4750 2975 4387 
Q 3406 4025 3406 3419 
Q 3406 3131 3298 2873 
Q 3191 2616 2906 2266 
Q 2828 2175 2409 1742 
Q 1991 1309 1228 531 
z
" transform="scale(0.015625)"/>
       </defs>
       <use xlink:href="#DejaVuSans-15"/>
       <use xlink:href="#DejaVuSans-15" transform="translate(63.625 0)"/>
       <use xlink:href="#DejaVuSans-18" transform="translate(127.25 0)"/>
       <use xlink:href="#DejaVuSans-72" transform="translate(190.875 0)"/>
      </g>
     </g>
    </g>
    <g id="xtick_7">
     <g id="line2d_7">
      <path d="M 204.88375 226.958125 
L 33.24375 226.958125 
" clip-path="url(#p756d7f81f9)" style="fill: none; stroke: #dddddd; stroke-width: 0.6; stroke-linecap: square"/>
     </g>
     <g id="text_7">
      <!-- 270° -->
      <g transform="translate(7.2 229.555781) scale(0.1 -0.1)">
       <defs>
        <path id="DejaVuSans-1a" d="M 525 4666 
L 3525 4666 
L 3525 4397 
L 1831 0 
L 1172 0 
L 2766 4134 
L 525 4134 
L 525 4666 
z
" transform="scale(0.015625)"/>
       </defs>
       <use xlink:href="#DejaVuSans-15"/>
       <use xlink:href="#DejaVuSans-1a" transform="translate(63.625 0)"/>
       <use xlink:href="#DejaVuSans-13" transform="translate(127.25 0)"/>
       <use xlink:href="#DejaVuSans-72" transform="translate(190.875 0)"/>
      </g>
     </g>
    </g>
    <g id="xtick_8">
     <g id="line2d_8">
      <path d="M 204.88375 226.958125 
L 83.515942 105.590317 
" clip-path="url(#p756d7f81f9)" style="fill: none; stroke: #dddddd; stroke-width: 0.6; stroke-linecap: square"/>
     </g>
     <g id="text_8">
      <!-- 315° -->
      <g transform="translate(61.572697 98.288478) scale(0.1 -0.1)">
       <use xlink:href="#DejaVuSans-16"/>
       <use xlink:href="#DejaVuSans-14" transform="translate(63.625 0)"/>
       <use xlink:href="#DejaVuSans-18" transform="translate(127.25 0)"/>
       <use xlink:href="#DejaVuSans-72" transform="translate(190.875 0)"/>
      </g>
     </g>
    </g>
   </g>
   <g id="matplotlib.axis_2">
    <g id="ytick_1">
     <g id="line2d_9">
      <path d="M 204.88375 192.902569 
C 209.355885 192.902569 213.784533 193.783482 217.916247 195.494894 
C 222.04796 197.206306 225.802388 199.714934 228.964664 202.877211 
C 232.126941 206.039487 234.635569 209.793915 236.346981 213.925628 
C 238.058393 218.057342 238.939306 222.48599 238.939306 226.958125 
C 238.939306 231.43026 238.058393 235.858908 236.346981 239.990622 
C 234.635569 244.122335 232.126941 247.876763 228.964664 251.039039 
C 225.802388 254.201316 222.04796 256.709944 217.916247 258.421356 
C 213.784533 260.132768 209.355885 261.013681 204.88375 261.013681 
C 200.411615 261.013681 195.982967 260.132768 191.851253 258.421356 
C 187.71954 256.709944 183.965112 254.201316 180.802836 251.039039 
C 177.640559 247.876763 175.131931 244.122335 173.420519 239.990622 
C 171.709107 235.858908 170.828194 231.43026 170.828194 226.958125 
C 170.828194 222.48599 171.709107 218.057342 173.420519 213.925628 
C 175.131931 209.793915 177.640559 206.039487 180.802836 202.877211 
C 183.965112 199.714934 187.71954 197.206306 191.851253 195.494894 
C 195.982967 193.783482 200.411615 192.902569 204.88375 192.902569 
" clip-path="url(#p756d7f81f9)" style="fill: none; stroke: #dddddd; stroke-width: 0.6; stroke-linecap: square"/>
     </g>
     <g id="text_9">
      <!-- 10 -->
      <g transform="translate(217.916247 193.092551) scale(0.1 -0.1)">
       <use xlink:href="#DejaVuSans-14"/>
       <use xlink:href="#DejaVuSans-13" transform="translate(63.625 0)"/>
      </g>
     </g>
    </g>
    <g id="ytick_2">
     <g id="line2d_10">
      <path d="M 204.88375 158.847014 
C 213.828019 158.847014 222.685317 160.60884 230.948744 164.031664 
C 239.212171 167.454487 246.721025 172.471743 253.045579 178.796296 
C 259.370132 185.12085 264.387388 192.629704 267.810211 200.893131 
C 271.233035 209.156558 272.994861 218.013856 272.994861 226.958125 
C 272.994861 235.902394 271.233035 244.759692 267.810211 253.023119 
C 264.387388 261.286546 259.370132 268.7954 253.045579 275.119954 
C 246.721025 281.444507 239.212171 286.461763 230.948744 289.884586 
C 222.685317 293.30741 213.828019 295.069236 204.88375 295.069236 
C 195.939481 295.069236 187.082183 293.30741 178.818756 289.884586 
C 170.555329 286.461763 163.046475 281.444507 156.721921 275.119954 
C 150.397368 268.7954 145.380112 261.286546 141.957289 253.023119 
C 138.534465 244.759692 136.772639 235.902394 136.772639 226.958125 
C 136.772639 218.013856 138.534465 209.156558 141.957289 200.893131 
C 145.380112 192.629704 150.397368 185.12085 156.721921 178.796296 
C 163.046475 172.471743 170.555329 167.454487 178.818756 164.031664 
C 187.082183 160.60884 195.939481 158.847014 204.88375 158.847014 
" clip-path="url(#p756d7f81f9)" style="fill: none; stroke: #dddddd; stroke-width: 0.6; stroke-linecap: square"/>
     </g>
     <g id="text_10">
      <!-- 20 -->
      <g transform="translate(230.948744 161.62932) scale(0.1 -0.1)">
       <use xlink:href="#DejaVuSans-15"/>
       <use xlink:href="#DejaVuSans-13" transform="translate(63.625 0)"/>
      </g>
     </g>
    </g>
    <g id="ytick_3">
     <g id="line2d_11">
      <path d="M 204.88375 124.791458 
C 218.300154 124.791458 231.5861 127.434197 243.981241 132.568433 
C 256.376381 137.702668 267.639663 145.228552 277.126493 154.715382 
C 286.613323 164.202212 294.139207 175.465494 299.273442 187.860634 
C 304.407678 200.255775 307.050417 213.541721 307.050417 226.958125 
C 307.050417 240.374529 304.407678 253.660475 299.273442 266.055616 
C 294.139207 278.450756 286.613323 289.714038 277.126493 299.200868 
C 267.639663 308.687698 256.376381 316.213582 243.981241 321.347817 
C 231.5861 326.482053 218.300154 329.124792 204.88375 329.124792 
C 191.467346 329.124792 178.1814 326.482053 165.786259 321.347817 
C 153.391119 316.213582 142.127837 308.687698 132.641007 299.200868 
C 123.154177 289.714038 115.628293 278.450756 110.494058 266.055616 
C 105.359822 253.660475 102.717083 240.374529 102.717083 226.958125 
C 102.717083 213.541721 105.359822 200.255775 110.494058 187.860634 
C 115.628293 175.465494 123.154177 164.202212 132.641007 154.715382 
C 142.127837 145.228552 153.391119 137.702668 165.786259 132.568433 
C 178.1814 127.434197 191.467346 124.791458 204.88375 124.791458 
" clip-path="url(#p756d7f81f9)" style="fill: none; stroke: #dddddd; stroke-width: 0.6; stroke-linecap: square"/>
     </g>
     <g id="text_11">
      <!-- 30 -->
      <g transform="translate(243.981241 130.166089) scale(0.1 -0.1)">
       <use xlink:href="#DejaVuSans-16"/>
       <use xlink:href="#DejaVuSans-13" transform="translate(63.625 0)"/>
      </g>
     </g>
    </g>
    <g id="ytick_4">
     <g id="line2d_12">
      <path d="M 204.88375 90.735903 
C 222.772288 90.735903 240.486883 94.259555 257.013738 101.105202 
C 273.540592 107.950849 288.5583 117.985361 301.207407 130.634468 
C 313.856514 143.283575 323.891026 158.301283 330.736673 174.828137 
C 337.58232 191.354992 341.105972 209.069587 341.105972 226.958125 
C 341.105972 244.846663 337.58232 262.561258 330.736673 279.088113 
C 323.891026 295.614967 313.856514 310.632675 301.207407 323.281782 
C 288.5583 335.930889 273.540592 345.965401 257.013738 352.811048 
C 240.486883 359.656695 222.772288 363.180347 204.88375 363.180347 
C 186.995212 363.180347 169.280617 359.656695 152.753762 352.811048 
C 136.226908 345.965401 121.2092 335.930889 108.560093 323.281782 
C 95.910986 310.632675 85.876474 295.614967 79.030827 279.088113 
C 72.18518 262.561258 68.661528 244.846663 68.661528 226.958125 
C 68.661528 209.069587 72.18518 191.354992 79.030827 174.828137 
C 85.876474 158.301283 95.910986 143.283575 108.560093 130.634468 
C 121.2092 117.985361 136.226908 107.950849 152.753762 101.105202 
C 169.280617 94.259555 186.995212 90.735903 204.88375 90.735903 
" clip-path="url(#p756d7f81f9)" style="fill: none; stroke: #dddddd; stroke-width: 0.6; stroke-linecap: square"/>
     </g>
     <g id="text_12">
      <!-- 40 -->
      <g transform="translate(257.013738 98.702858) scale(0.1 -0.1)">
       <use xlink:href="#DejaVuSans-17"/>
       <use xlink:href="#DejaVuSans-13" transform="translate(63.625 0)"/>
      </g>
     </g>
    </g>
    <g id="ytick_5">
     <g id="line2d_13">
      <path d="M 204.88375 56.680347 
C 227.244423 56.680347 249.387666 61.084912 270.046234 69.641971 
C 290.704802 78.19903 309.476938 90.74217 325.288321 106.553554 
C 341.099705 122.364937 353.642845 141.137073 362.199904 161.795641 
C 370.756963 182.454209 375.161528 204.597452 375.161528 226.958125 
C 375.161528 249.318798 370.756963 271.462041 362.199904 292.120609 
C 353.642845 312.779177 341.099705 331.551313 325.288321 347.362696 
C 309.476938 363.17408 290.704802 375.71722 270.046234 384.274279 
C 249.387666 392.831338 227.244423 397.235903 204.88375 397.235903 
C 182.523077 397.235903 160.379834 392.831338 139.721266 384.274279 
C 119.062698 375.71722 100.290562 363.17408 84.479179 347.362696 
C 68.667795 331.551313 56.124655 312.779177 47.567596 292.120609 
C 39.010537 271.462041 34.605972 249.318798 34.605972 226.958125 
C 34.605972 204.597452 39.010537 182.454209 47.567596 161.795641 
C 56.124655 141.137073 68.667795 122.364937 84.479179 106.553554 
C 100.290562 90.74217 119.062698 78.19903 139.721266 69.641971 
C 160.379834 61.084912 182.523077 56.680347 204.88375 56.680347 
" clip-path="url(#p756d7f81f9)" style="fill: none; stroke: #dddddd; stroke-width: 0.6; stroke-linecap: square"/>
     </g>
     <g id="text_13">
      <!-- 50 -->
      <g transform="translate(270.046234 67.239628) scale(0.1 -0.1)">
       <use xlink:href="#DejaVuSans-18"/>
       <use xlink:href="#DejaVuSans-13" transform="translate(63.625 0)"/>
      </g>
     </g>
    </g>
   </g>
   <g id="patch_3">
    <path d="M 204.88375 226.958125 
C 204.88375 226.958125 204.88375 226.958125 204.88375 226.958125 
C 204.88375 226.958125 204.88375 226.958125 204.88375 226.958125 
L 243.981241 132.568433 
C 237.798492 130.007454 231.379049 128.060138 224.815478 126.754562 
C 218.251907 125.448987 211.575909 124.791458 204.88375 124.791458 
z
" clip-path="url(#p756d7f81f9)" style="fill: #4c72b0; opacity: 0.85; stroke: #000000; stroke-linejoin: miter"/>
   </g>
   <g id="patch_4">
    <path d="M 204.88375 226.958125 
C 204.88375 226.958125 204.88375 226.958125 204.88375 226.958125 
C 204.88375 226.958125 204.88375 226.958125 204.88375 226.958125 
L 306.02359 125.818285 
C 299.398691 119.193386 292.13887 113.235405 284.348812 108.030255 
C 276.558755 102.825105 268.276085 98.397926 259.620237 94.812556 
z
" clip-path="url(#p756d7f81f9)" style="fill: #4c72b0; opacity: 0.85; stroke: #000000; stroke-linejoin: miter"/>
   </g>
   <g id="patch_5">
    <path d="M 204.88375 226.958125 
C 204.88375 226.958125 204.88375 226.958125 204.88375 226.958125 
C 204.88375 226.958125 204.88375 226.958125 204.88375 226.958125 
L 305.566088 185.254135 
C 302.834378 178.659203 299.461289 172.348598 295.495461 166.413316 
C 291.529632 160.478034 286.990218 154.946742 281.942676 149.899199 
z
" clip-path="url(#p756d7f81f9)" style="fill: #4c72b0; opacity: 0.85; stroke: #000000; stroke-linejoin: miter"/>
   </g>
   <g id="patch_6">
    <path d="M 204.88375 226.958125 
C 204.88375 226.958125 204.88375 226.958125 204.88375 226.958125 
C 204.88375 226.958125 204.88375 226.958125 204.88375 226.958125 
L 347.917083 226.958125 
C 347.917083 217.589103 346.996544 208.242705 345.168738 199.053706 
C 343.340932 189.864707 340.614689 180.877486 337.029319 172.221638 
z
" clip-path="url(#p756d7f81f9)" style="fill: #4c72b0; opacity: 0.85; stroke: #000000; stroke-linejoin: miter"/>
   </g>
   <g id="patch_7">
    <path d="M 204.88375 226.958125 
C 204.88375 226.958125 204.88375 226.958125 204.88375 226.958125 
C 204.88375 226.958125 204.88375 226.958125 204.88375 226.958125 
L 311.858735 271.268614 
C 314.761177 264.261499 316.968136 256.98613 318.447788 249.547417 
C 319.92744 242.108703 320.672639 234.542572 320.672639 226.958125 
z
" clip-path="url(#p756d7f81f9)" style="fill: #4c72b0; opacity: 0.85; stroke: #000000; stroke-linejoin: miter"/>
   </g>
   <g id="patch_8">
    <path d="M 204.88375 226.958125 
C 204.88375 226.958125 204.88375 226.958125 204.88375 226.958125 
C 204.88375 226.958125 204.88375 226.958125 204.88375 226.958125 
L 272.31031 294.384685 
C 276.72691 289.968085 280.698897 285.128205 284.168997 279.934833 
C 287.639097 274.741462 290.59055 269.219682 292.980796 263.449116 
z
" clip-path="url(#p756d7f81f9)" style="fill: #4c72b0; opacity: 0.85; stroke: #000000; stroke-linejoin: miter"/>
   </g>
   <g id="patch_9">
    <path d="M 204.88375 226.958125 
C 204.88375 226.958125 204.88375 226.958125 204.88375 226.958125 
C 204.88375 226.958125 204.88375 226.958125 204.88375 226.958125 
L 227.038995 280.445617 
C 230.542552 278.994396 233.895061 277.202443 237.04818 275.095596 
C 240.201298 272.98875 243.139797 270.577186 245.821304 267.895679 
z
" clip-path="url(#p756d7f81f9)" style="fill: #4c72b0; opacity: 0.85; stroke: #000000; stroke-linejoin: miter"/>
   </g>
   <g id="patch_10">
    <path d="M 204.88375 226.958125 
C 204.88375 226.958125 204.88375 226.958125 204.88375 226.958125 
C 204.88375 226.958125 204.88375 226.958125 204.88375 226.958125 
L 204.88375 308.691458 
C 210.237477 308.691458 215.578276 308.165436 220.829132 307.120975 
C 226.079989 306.076515 231.215544 304.518661 236.161743 302.469879 
z
" clip-path="url(#p756d7f81f9)" style="fill: #4c72b0; opacity: 0.85; stroke: #000000; stroke-linejoin: miter"/>
   </g>
   <g id="patch_11">
    <path d="M 204.88375 226.958125 
C 204.88375 226.958125 204.88375 226.958125 204.88375 226.958125 
C 204.88375 226.958125 204.88375 226.958125 204.88375 226.958125 
L 174.909007 299.323556 
C 179.649114 301.286972 184.570688 302.779915 189.602759 303.780856 
C 194.63483 304.781798 199.753095 305.285903 204.88375 305.285903 
z
" clip-path="url(#p756d7f81f9)" style="fill: #4c72b0; opacity: 0.85; stroke: #000000; stroke-linejoin: miter"/>
   </g>
   <g id="patch_12">
    <path d="M 204.88375 226.958125 
C 204.88375 226.958125 204.88375 226.958125 204.88375 226.958125 
C 204.88375 226.958125 204.88375 226.958125 204.88375 226.958125 
L 132.641007 299.200868 
C 137.373078 303.932939 142.558664 308.188639 148.122991 311.906604 
C 153.687318 315.624568 159.603511 318.786839 165.786259 321.347817 
z
" clip-path="url(#p756d7f81f9)" style="fill: #4c72b0; opacity: 0.85; stroke: #000000; stroke-linejoin: miter"/>
   </g>
   <g id="patch_13">
    <path d="M 204.88375 226.958125 
C 204.88375 226.958125 204.88375 226.958125 204.88375 226.958125 
C 204.88375 226.958125 204.88375 226.958125 204.88375 226.958125 
L 116.786704 263.449116 
C 119.17695 269.219682 122.128403 274.741462 125.598503 279.934833 
C 129.068603 285.128205 133.04059 289.968085 137.45719 294.384685 
z
" clip-path="url(#p756d7f81f9)" style="fill: #4c72b0; opacity: 0.85; stroke: #000000; stroke-linejoin: miter"/>
   </g>
   <g id="patch_14">
    <path d="M 204.88375 226.958125 
C 204.88375 226.958125 204.88375 226.958125 204.88375 226.958125 
C 204.88375 226.958125 204.88375 226.958125 204.88375 226.958125 
L 116.339306 226.958125 
C 116.339306 232.757996 116.909164 238.543861 118.040662 244.232289 
C 119.172161 249.920717 120.859835 255.484235 123.07935 260.842617 
z
" clip-path="url(#p756d7f81f9)" style="fill: #4c72b0; opacity: 0.85; stroke: #000000; stroke-linejoin: miter"/>
   </g>
   <g id="patch_15">
    <path d="M 204.88375 226.958125 
C 204.88375 226.958125 204.88375 226.958125 204.88375 226.958125 
C 204.88375 226.958125 204.88375 226.958125 204.88375 226.958125 
L 53.860242 164.40214 
C 49.762677 174.294538 46.64697 184.565647 44.558049 195.06736 
C 42.469129 205.569074 41.417083 216.250671 41.417083 226.958125 
z
" clip-path="url(#p756d7f81f9)" style="fill: #4c72b0; opacity: 0.85; stroke: #000000; stroke-linejoin: miter"/>
   </g>
   <g id="patch_16">
    <path d="M 204.88375 226.958125 
C 204.88375 226.958125 204.88375 226.958125 204.88375 226.958125 
C 204.88375 226.958125 204.88375 226.958125 204.88375 226.958125 
L 118.192459 140.266834 
C 112.513973 145.945319 107.407133 152.168022 102.945576 158.845214 
C 98.484018 165.522407 94.689293 172.621838 91.616119 180.041136 
z
" clip-path="url(#p756d7f81f9)" style="fill: #4c72b0; opacity: 0.85; stroke: #000000; stroke-linejoin: miter"/>
   </g>
   <g id="patch_17">
    <path d="M 204.88375 226.958125 
C 204.88375 226.958125 204.88375 226.958125 204.88375 226.958125 
C 204.88375 226.958125 204.88375 226.958125 204.88375 226.958125 
L 159.270011 116.836817 
C 152.056804 119.824625 145.154579 123.513941 138.662865 127.851566 
C 132.17115 132.189191 126.121299 137.154176 120.60055 142.674925 
z
" clip-path="url(#p756d7f81f9)" style="fill: #4c72b0; opacity: 0.85; stroke: #000000; stroke-linejoin: miter"/>
   </g>
   <g id="patch_18">
    <path d="M 204.88375 226.958125 
C 204.88375 226.958125 204.88375 226.958125 204.88375 226.958125 
C 204.88375 226.958125 204.88375 226.958125 204.88375 226.958125 
L 204.88375 141.819236 
C 199.306951 141.819236 193.743619 142.367176 188.273977 143.455156 
C 182.804334 144.543136 177.454798 146.1659 172.302508 148.300048 
z
" clip-path="url(#p756d7f81f9)" style="fill: #4c72b0; opacity: 0.85; stroke: #000000; stroke-linejoin: miter"/>
   </g>
   <g id="patch_19">
    <path d="M 204.88375 55.318125 
C 182.344192 55.318125 160.023802 59.757927 139.199966 68.383442 
C 118.376129 77.008958 99.453817 89.652443 83.515942 105.590317 
C 67.578068 121.528192 54.934583 140.450504 46.309067 161.274341 
C 37.683552 182.098177 33.24375 204.418567 33.24375 226.958125 
C 33.24375 249.497683 37.683552 271.818073 46.309067 292.641909 
C 54.934583 313.465746 67.578068 332.388058 83.515942 348.325933 
C 99.453817 364.263807 118.376129 376.907292 139.199966 385.532808 
C 160.023802 394.158323 182.344192 398.598125 204.88375 398.598125 
C 227.423308 398.598125 249.743698 394.158323 270.567534 385.532808 
C 291.391371 376.907292 310.313683 364.263807 326.251558 348.325933 
C 342.189432 332.388058 354.832917 313.465746 363.458433 292.641909 
C 372.083948 271.818073 376.52375 249.497683 376.52375 226.958125 
C 376.52375 204.418567 372.083948 182.098177 363.458433 161.274341 
C 354.832917 140.450504 342.189432 121.528192 326.251558 105.590317 
C 310.313683 89.652443 291.391371 77.008958 270.567534 68.383442 
C 249.743698 59.757927 227.423308 55.318125 204.88375 55.318125 
" style="fill: none; stroke: #000000; stroke-width: 0.8; stroke-linejoin: miter; stroke-linecap: square"/>
   </g>
   <g id="text_14">
    <!-- Error bearing rose (truth → prediction) -->
    <g transform="translate(90.389687 16.318125) scale(0.12 -0.12)">
     <defs>
      <path id="DejaVuSans-28" d="M 628 4666 
L 3578 4666 
L 3578 4134 
L 1259 4134 
L 1259 2753 
L 3481 2753 
L 3481 2222 
L 1259 2222 
L 1259 531 
L 3634 531 
L 3634 0 
L 628 0 
L 628 4666 
z
" transform="scale(0.015625)"/>
      <path id="DejaVuSans-55" d="M 2631 2963 
Q 2534 3019 2420 3045 
Q 2306 3072 2169 3072 
Q 1681 3072 1420 2755 
Q 1159 2438 1159 1844 
L 1159 0 
L 581 0 
L 581 3500 
L 1159 3500 
L 1159 2956 
Q 1341 3275 1631 3429 
Q 1922 3584 2338 3584 
Q 2397 3584 2469 3576 
Q 2541 3569 2628 3553 
L 2631 2963 
z
" transform="scale(0.015625)"/>
      <path id="DejaVuSans-52" d="M 1959 3097 
Q 1497 3097 1228 2736 
Q 959 2375 959 1747 
Q 959 1119 1226 758 
Q 1494 397 1959 397 
Q 2419 397 2687 759 
Q 2956 1122 2956 1747 
Q 2956 2369 2687 2733 
Q 2419 3097 1959 3097 
z
M 1959 3584 
Q 2709 3584 3137 3096 
Q 3566 2609 3566 1747 
Q 3566 888 3137 398 
Q 2709 -91 1959 -91 
Q 1206 -91 779 398 
Q 353 888 353 1747 
Q 353 2609 779 3096 
Q 1206 3584 1959 3584 
z
" transform="scale(0.015625)"/>
      <path id="DejaVuSans-3" transform="scale(0.015625)"/>
      <path id="DejaVuSans-45" d="M 3116 1747 
Q 3116 2381 2855 2742 
Q 2594 3103 2138 3103 
Q 1681 3103 1420 2742 
Q 1159 2381 1159 1747 
Q 1159 1113 1420 752 
Q 1681 391 2138 391 
Q 2594 391 2855 752 
Q 3116 1113 3116 1747 
z
M 1159 2969 
Q 1341 3281 1617 3432 
Q 1894 3584 2278 3584 
Q 2916 3584 3314 3078 
Q 3713 2572 3713 1747 
Q 3713 922 3314 415 
Q 2916 -91 2278 -91 
Q 1894 -91 1617 61 
Q 1341 213 1159 525 
L 1159 0 
L 581 0 
L 581 4863 
L 1159 4863 
L 1159 2969 
z
" transform="scale(0.015625)"/>
      <path id="DejaVuSans-48" d="M 3597 1894 
L 3597 1613 
L 953 1613 
Q 991 1019 1311 708 
Q 1631 397 2203 397 
Q 2534 397 2845 478 
Q 3156 559 3463 722 
L 3463 178 
Q 3153 47 2828 -22 
Q 2503 -91 2169 -91 
Q 1331 -91 842 396 
Q 353 884 353 1716 
Q 353 2575 817 3079 
Q 1281 3584 2069 3584 
Q 2775 3584 3186 3129 
Q 3597 2675 3597 1894 
z
M 3022 2063 
Q 3016 2534 2758 2815 
Q 2500 3097 2075 3097 
Q 1594 3097 1305 2825 
Q 1016 2553 972 2059 
L 3022 2063 
z
" transform="scale(0.015625)"/>
      <path id="DejaVuSans-44" d="M 2194 1759 
Q 1497 1759 1228 1600 
Q 959 1441 959 1056 
Q 959 750 1161 570 
Q 1363 391 1709 391 
Q 2188 391 2477 730 
Q 2766 1069 2766 1631 
L 2766 1759 
L 2194 1759 
z
M 3341 1997 
L 3341 0 
L 2766 0 
L 2766 531 
Q 2569 213 2275 61 
Q 1981 -91 1556 -91 
Q 1019 -91 701 211 
Q 384 513 384 1019 
Q 384 1609 779 1909 
Q 1175 2209 1959 2209 
L 2766 2209 
L 2766 2266 
Q 2766 2663 2505 2880 
Q 2244 3097 1772 3097 
Q 1472 3097 1187 3025 
Q 903 2953 641 2809 
L 641 3341 
Q 956 3463 1253 3523 
Q 1550 3584 1831 3584 
Q 2591 3584 2966 3190 
Q 3341 2797 3341 1997 
z
" transform="scale(0.015625)"/>
      <path id="DejaVuSans-4c" d="M 603 3500 
L 1178 3500 
L 1178 0 
L 603 0 
L 603 3500 
z
M 603 4863 
L 1178 4863 
L 1178 4134 
L 603 4134 
L 603 4863 
z
" transform="scale(0.015625)"/>
      <path id="DejaVuSans-51" d="M 3513 2113 
L 3513 0 
L 2938 0 
L 2938 2094 
Q 2938 2591 2744 2837 
Q 2550 3084 2163 3084 
Q 1697 3084 1428 2787 
Q 1159 2491 1159 1978 
L 1159 0 
L 581 0 
L 581 3500 
L 1159 3500 
L 1159 2956 
Q 1366 3272 1645 3428 
Q 1925 3584 2291 3584 
Q 2894 3584 3203 3211 
Q 3513 2838 3513 2113 
z
" transform="scale(0.015625)"/>
      <path id="DejaVuSans-4a" d="M 2906 1791 
Q 2906 2416 2648 2759 
Q 2391 3103 1925 3103 
Q 1463 3103 1205 2759 
Q 947 2416 947 1791 
Q 947 1169 1205 825 
Q 1463 481 1925 481 
Q 2391 481 2648 825 
Q 2906 1169 2906 1791 
z
M 3481 434 
Q 3481 -459 3084 -895 
Q 2688 -1331 1869 -1331 
Q 1566 -1331 1297 -1286 
Q 1028 -1241 775 -1147 
L 775 -588 
Q 1028 -725 1275 -790 
Q 1522 -856 1778 -856 
Q 2344 -856 2625 -561 
Q 2906 -266 2906 331 
L 2906 616 
Q 2728 306 2450 153 
Q 2172 0 1784 0 
Q 1141 0 747 490 
Q 353 981 353 1791 
Q 353 2603 747 3093 
Q 1141 3584 1784 3584 
Q 2172 3584 2450 3431 
Q 2728 3278 2906 2969 
L 2906 3500 
L 3481 3500 
L 3481 434 
z
" transform="scale(0.015625)"/>
      <path id="DejaVuSans-56" d="M 2834 3397 
L 2834 2853 
Q 2591 2978 2328 3040 
Q 2066 3103 1784 3103 
Q 1356 3103 1142 2972 
Q 928 2841 928 2578 
Q 928 2378 1081 2264 
Q 1234 2150 1697 2047 
L 1894 2003 
Q 2506 1872 2764 1633 
Q 3022 1394 3022 966 
Q 3022 478 2636 193 
Q 2250 -91 1575 -91 
Q 1294 -91 989 -36 
Q 684 19 347 128 
L 347 722 
Q 666 556 975 473 
Q 1284 391 1588 391 
Q 1994 391 2212 530 
Q 2431 669 2431 922 
Q 2431 1156 2273 1281 
Q 2116 1406 1581 1522 
L 1381 1569 
Q 847 1681 609 1914 
Q 372 2147 372 2553 
Q 372 3047 722 3315 
Q 1072 3584 1716 3584 
Q 2034 3584 2315 3537 
Q 2597 3491 2834 3397 
z
" transform="scale(0.015625)"/>
      <path id="DejaVuSans-b" d="M 1984 4856 
Q 1566 4138 1362 3434 
Q 1159 2731 1159 2009 
Q 1159 1288 1364 580 
Q 1569 -128 1984 -844 
L 1484 -844 
Q 1016 -109 783 600 
Q 550 1309 550 2009 
Q 550 2706 781 3412 
Q 1013 4119 1484 4856 
L 1984 4856 
z
" transform="scale(0.015625)"/>
      <path id="DejaVuSans-57" d="M 1172 4494 
L 1172 3500 
L 2356 3500 
L 2356 3053 
L 1172 3053 
L 1172 1153 
Q 1172 725 1289 603 
Q 1406 481 1766 481 
L 2356 481 
L 2356 0 
L 1766 0 
Q 1100 0 847 248 
Q 594 497 594 1153 
L 594 3053 
L 172 3053 
L 172 3500 
L 594 3500 
L 594 4494 
L 1172 4494 
z
" transform="scale(0.015625)"/>
      <path id="DejaVuSans-58" d="M 544 1381 
L 544 3500 
L 1119 3500 
L 1119 1403 
Q 1119 906 1312 657 
Q 1506 409 1894 409 
Q 2359 409 2629 706 
Q 2900 1003 2900 1516 
L 2900 3500 
L 3475 3500 
L 3475 0 
L 2900 0 
L 2900 538 
Q 2691 219 2414 64 
Q 2138 -91 1772 -91 
Q 1169 -91 856 284 
Q 544 659 544 1381 
z
M 1991 3584 
L 1991 3584 
z
" transform="scale(0.015625)"/>
      <path id="DejaVuSans-4b" d="M 3513 2113 
L 3513 0 
L 2938 0 
L 2938 2094 
Q 2938 2591 2744 2837 
Q 2550 3084 2163 3084 
Q 1697 3084 1428 2787 
Q 1159 2491 1159 1978 
L 1159 0 
L 581 0 
L 581 4863 
L 1159 4863 
L 1159 2956 
Q 1366 3272 1645 3428 
Q 1925 3584 2291 3584 
Q 2894 3584 3203 3211 
Q 3513 2838 3513 2113 
z
" transform="scale(0.015625)"/>
      <path id="DejaVuSans-c1c" d="M 5050 2147 
L 5050 1866 
L 3822 638 
L 3447 1013 
L 4175 1741 
L 366 1741 
L 366 2272 
L 4175 2272 
L 3447 3000 
L 3822 3375 
L 5050 2147 
z
" transform="scale(0.015625)"/>
      <path id="DejaVuSans-53" d="M 1159 525 
L 1159 -1331 
L 581 -1331 
L 581 3500 
L 1159 3500 
L 1159 2969 
Q 1341 3281 1617 3432 
Q 1894 3584 2278 3584 
Q 2916 3584 3314 3078 
Q 3713 2572 3713 1747 
Q 3713 922 3314 415 
Q 2916 -91 2278 -91 
Q 1894 -91 1617 61 
Q 1341 213 1159 525 
z
M 3116 1747 
Q 3116 2381 2855 2742 
Q 2594 3103 2138 3103 
Q 1681 3103 1420 2742 
Q 1159 2381 1159 1747 
Q 1159 1113 1420 752 
Q 1681 391 2138 391 
Q 2594 391 2855 752 
Q 3116 1113 3116 1747 
z
" transform="scale(0.015625)"/>
      <path id="DejaVuSans-47" d="M 2906 2969 
L 2906 4863 
L 3481 4863 
L 3481 0 
L 2906 0 
L 2906 525 
Q 2725 213 2448 61 
Q 2172 -91 1784 -91 
Q 1150 -91 751 415 
Q 353 922 353 1747 
Q 353 2572 751 3078 
Q 1150 3584 1784 3584 
Q 2172 3584 2448 3432 
Q 2725 3281 2906 2969 
z
M 947 1747 
Q 947 1113 1208 752 
Q 1469 391 1925 391 
Q 2381 391 2643 752 
Q 2906 1113 2906 1747 
Q 2906 2381 2643 2742 
Q 2381 3103 1925 3103 
Q 1469 3103 1208 2742 
Q 947 2381 947 1747 
z
" transform="scale(0.015625)"/>
      <path id="DejaVuSans-46" d="M 3122 3366 
L 3122 2828 
Q 2878 2963 2633 3030 
Q 2388 3097 2138 3097 
Q 1578 3097 1268 2742 
Q 959 2388 959 1747 
Q 959 1106 1268 751 
Q 1578 397 2138 397 
Q 2388 397 2633 464 
Q 2878 531 3122 666 
L 3122 134 
Q 2881 22 2623 -34 
Q 2366 -91 2075 -91 
Q 1284 -91 818 406 
Q 353 903 353 1747 
Q 353 2603 823 3093 
Q 1294 3584 2113 3584 
Q 2378 3584 2631 3529 
Q 2884 3475 3122 3366 
z
" transform="scale(0.015625)"/>
      <path id="DejaVuSans-c" d="M 513 4856 
L 1013 4856 
Q 1481 4119 1714 3412 
Q 1947 2706 1947 2009 
Q 1947 1309 1714 600 
Q 1481 -109 1013 -844 
L 513 -844 
Q 928 -128 1133 580 
Q 1338 1288 1338 2009 
Q 1338 2731 1133 3434 
Q 928 4138 513 4856 
z
" transform="scale(0.015625)"/>
     </defs>
     <use xlink:href="#DejaVuSans-28"/>
     <use xlink:href="#DejaVuSans-55" transform="translate(63.1875 0)"/>
     <use xlink:href="#DejaVuSans-55" transform="translate(102.546875 0)"/>
     <use xlink:href="#DejaVuSans-52" transform="translate(141.453125 0)"/>
     <use xlink:href="#DejaVuSans-55" transform="translate(202.640625 0)"/>
     <use xlink:href="#DejaVuSans-3" transform="translate(243.75 0)"/>
     <use xlink:href="#DejaVuSans-45" transform="translate(275.53125 0)"/>
     <use xlink:href="#DejaVuSans-48" transform="translate(339.015625 0)"/>
     <use xlink:href="#DejaVuSans-44" transform="translate(400.546875 0)"/>
     <use xlink:href="#DejaVuSans-55" transform="translate(461.828125 0)"/>
     <use xlink:href="#DejaVuSans-4c" transform="translate(502.9375 0)"/>
     <use xlink:href="#DejaVuSans-51" transform="translate(530.71875 0)"/>
     <use xlink:href="#DejaVuSans-4a" transform="translate(594.09375 0)"/>
     <use xlink:href="#DejaVuSans-3" transform="translate(657.578125 0)"/>
     <use xlink:href="#DejaVuSans-55" transform="translate(689.359375 0)"/>
     <use xlink:href="#DejaVuSans-52" transform="translate(728.265625 0)"/>
     <use xlink:href="#DejaVuSans-56" transform="translate(789.453125 0)"/>
     <use xlink:href="#DejaVuSans-48" transform="translate(841.546875 0)"/>
     <use xlink:href="#DejaVuSans-3" transform="translate(903.078125 0)"/>
     <use xlink:href="#DejaVuSans-b" transform="translate(934.859375 0)"/>
     <use xlink:href="#DejaVuSans-57" transform="translate(973.875 0)"/>
     <use xlink:href="#DejaVuSans-55" transform="translate(1013.078125 0)"/>
     <use xlink:href="#DejaVuSans-58" transform="translate(1054.1875 0)"/>
     <use xlink:href="#DejaVuSans-57" transform="translate(1117.5625 0)"/>
     <use xlink:href="#DejaVuSans-4b" transform="translate(1156.765625 0)"/>
     <use xlink:href="#DejaVuSans-3" transform="translate(1220.140625 0)"/>
     <use xlink:href="#DejaVuSans-c1c" transform="translate(1251.921875 0)"/>
     <use xlink:href="#DejaVuSans-3" transform="translate(1335.71875 0)"/>
     <use xlink:href="#DejaVuSans-53" transform="translate(1367.5 0)"/>
     <use xlink:href="#DejaVuSans-55" transform="translate(1430.984375 0)"/>
     <use xlink:href="#DejaVuSans-48" transform="translate(1469.890625 0)"/>
     <use xlink:href="#DejaVuSans-47" transform="translate(1531.421875 0)"/>
     <use xlink:href="#DejaVuSans-4c" transform="translate(1594.90625 0)"/>
     <use xlink:href="#DejaVuSans-46" transform="translate(1622.6875 0)"/>
     <use xlink:href="#DejaVuSans-57" transform="translate(1677.671875 0)"/>
     <use xlink:href="#DejaVuSans-4c" transform="translate(1716.875 0)"/>
     <use xlink:href="#DejaVuSans-52" transform="translate(1744.65625 0)"/>
     <use xlink:href="#DejaVuSans-51" transform="translate(1805.84375 0)"/>
     <use xlink:href="#DejaVuSans-c" transform="translate(1869.21875 0)"/>
    </g>
   </g>
  </g>
 </g>
 <defs>
  <clipPath id="p756d7f81f9">
   <path d="M 376.52375 226.958125 
C 376.52375 204.418567 372.083948 182.098177 363.458433 161.274341 
C 354.832917 140.450504 342.189432 121.528192 326.251558 105.590317 
C 310.313683 89.652443 291.391371 77.008958 270.567534 68.383442 
C 249.743698 59.757927 227.423308 55.318125 204.88375 55.318125 
C 182.344192 55.318125 160.023802 59.757927 139.199966 68.383442 
C 118.376129 77.008958 99.453817 89.652443 83.515942 105.590317 
C 67.578068 121.528192 54.934583 140.450504 46.309067 161.274341 
C 37.683552 182.098177 33.24375 204.418567 33.24375 226.958125 
C 33.24375 249.497683 37.683552 271.818073 46.309067 292.641909 
C 54.934583 313.465746 67.578068 332.388058 83.515942 348.325933 
C 99.453817 364.263807 118.376129 376.907292 139.199966 385.532808 
C 160.023802 394.158323 182.344192 398.598125 204.88375 398.598125 
C 227.423308 398.598125 249.743698 394.158323 270.567534 385.532808 
C 291.391371 376.907292 310.313683 364.263807 326.251558 348.325933 
C 342.189432 332.388058 354.832917 313.465746 363.458433 292.641909 
C 372.083948 271.818073 376.52375 249.497683 376.52375 226.958125 
M 204.88375 226.958125 
C 204.88375 226.958125 204.88375 226.958125 204.88375 226.958125 
C 204.88375 226.958125 204.88375 226.958125 204.88375 226.958125 
C 204.88375 226.958125 204.88375 226.958125 204.88375 226.958125 
C 204.88375 226.958125 204.88375 226.958125 204.88375 226.958125 
C 204.88375 226.958125 204.88375 226.958125 204.88375 226.958125 
C 204.88375 226.958125 204.88375 226.958125 204.88375 226.958125 
C 204.88375 226.958125 204.88375 226.958125 204.88375 226.958125 
C 204.88375 226.958125 204.88375 226.958125 204.88375 226.958125 
C 204.88375 226.958125 204.88375 226.958125 204.88375 226.958125 
C 204.88375 226.958125 204.88375 226.958125 204.88375 226.958125 
C 204.88375 226.958125 204.88375 226.958125 204.88375 226.958125 
C 204.88375 226.958125 204.88375 226.958125 204.88375 226.958125 
C 204.88375 226.958125 204.88375 226.958125 204.88375 226.958125 
C 204.88375 226.958125 204.88375 226.958125 204.88375 226.958125 
C 204.88375 226.958125 204.88375 226.958125 204.88375 226.958125 
C 204.88375 226.958125 204.88375 226.958125 204.88375 226.958125 
z
"/>
  </clipPath>
 </defs>
</svg>
