<?xml version="1.0" encoding="utf-8" standalone="no"?>
<!DOCTYPE svg PUBLIC "-//W3C//DTD SVG 1.1//EN"
  "http://www.w3.org/Graphics/SVG/1.1/DTD/svg11.dtd">
<svg xmlns:xlink="http://www.w3.org/1999/xlink" width="564.900469pt" height="424.800859pt" viewBox="0 0 564.900469 424.800859" xmlns="http://www.w3.org/2000/svg" version="1.1">
 <metadata>
  <rdf:RDF xmlns:dc="http://purl.org/dc/elements/1.1/" xmlns:cc="http://creativecommons.org/ns#" xmlns:rdf="http://www.w3.org/1999/02/22-rdf-syntax-ns#">
   <cc:Work>
    <dc:type rdf:resource="http://purl.org/dc/dcmitype/StillImage"/>
    <dc:date>2026-07-12T16:00:33.864866</dc:date>
    <dc:format>image/svg+xml</dc:format>
    <dc:creator>
     <cc:Agent>
      <dc:title>Matplotlib v3.11.0, https://matplotlib.org/</dc:title>
     </cc:Agent>
    </dc:creator>
   </cc:Work>
  </rdf:RDF>
 </metadata>
 <defs>
  <style type="text/css">*{stroke-linejoin: round; stroke-linecap: butt}</style>
 </defs>
 <g id="figure_1">
  <g id="patch_1">
   <path d="M 0 424.800859 
L 564.900469 424.800859 
L 564.900469 0 
L 0 0 
z
" style="fill: #ffffff"/>
  </g>
  <g id="axes_1">
   <g id="patch_2">
    <path d="M 125.500469 387.600859 
L 557.700469 387.600859 
L 557.700469 21.558281 
L 125.500469 21.558281 
z
" style="fill: #ffffff"/>
   </g>
   <g id="matplotlib.axis_1">
    <g id="xtick_1">
     <g id="line2d_1">
      <path d="M 125.500469 387.600859 
L 125.500469 21.558281 
" clip-path="url(#p363503b16f)" style="fill: none; stroke: #dddddd; stroke-width: 0.6; stroke-linecap: square"/>
     </g>
     <g id="line2d_2">
      <defs>
       <path id="m73ce8e1b2d" d="M 0 0 
L 0 3.5 
" style="stroke: #000000; stroke-width: 0.8"/>
      </defs>
      <g>
       <use xlink:href="#m73ce8e1b2d" x="125.500469" y="387.600859" style="stroke: #000000; stroke-width: 0.8"/>
      </g>
     </g>
     <g id="text_1">
      <!-- 0 -->
      <g transform="translate(122.637344 401.43875) scale(0.09 -0.09)">
       <defs>
        <path id="DejaVuSerif-13" d="M 2034 219 
Q 2513 219 2750 744 
Q 2988 1269 2988 2328 
Q 2988 3391 2750 3916 
Q 2513 4441 2034 4441 
Q 1556 4441 1318 3916 
Q 1081 3391 1081 2328 
Q 1081 1269 1318 744 
Q 1556 219 2034 219 
z
M 2034 -91 
Q 1275 -91 848 546 
Q 422 1184 422 2328 
Q 422 3475 848 4112 
Q 1275 4750 2034 4750 
Q 2797 4750 3222 4112 
Q 3647 3475 3647 2328 
Q 3647 1184 3222 546 
Q 2797 -91 2034 -91 
z
" transform="scale(0.015625)"/>
       </defs>
       <use xlink:href="#DejaVuSerif-13"/>
      </g>
     </g>
    </g>
    <g id="xtick_2">
     <g id="line2d_3">
      <path d="M 207.824278 387.600859 
L 207.824278 21.558281 
" clip-path="url(#p363503b16f)" style="fill: none; stroke: #dddddd; stroke-width: 0.6; stroke-linecap: square"/>
     </g>
     <g id="line2d_4">
      <g>
       <use xlink:href="#m73ce8e1b2d" x="207.824278" y="387.600859" style="stroke: #000000; stroke-width: 0.8"/>
      </g>
     </g>
     <g id="text_2">
      <!-- 1 -->
      <g transform="translate(204.961153 401.43875) scale(0.09 -0.09)">
       <defs>
        <path id="DejaVuSerif-14" d="M 909 0 
L 909 331 
L 1722 331 
L 1722 4213 
L 781 3603 
L 781 4013 
L 1919 4750 
L 2350 4750 
L 2350 331 
L 3163 331 
L 3163 0 
L 909 0 
z
" transform="scale(0.015625)"/>
       </defs>
       <use xlink:href="#DejaVuSerif-14"/>
      </g>
     </g>
    </g>
    <g id="xtick_3">
     <g id="line2d_5">
      <path d="M 290.148088 387.600859 
L 290.148088 21.558281 
" clip-path="url(#p363503b16f)" style="fill: none; stroke: #dddddd; stroke-width: 0.6; stroke-linecap: square"/>
     </g>
     <g id="line2d_6">
      <g>
       <use xlink:href="#m73ce8e1b2d" x="290.148088" y="387.600859" style="stroke: #000000; stroke-width: 0.8"/>
      </g>
     </g>
     <g id="text_3">
      <!-- 2 -->
      <g transform="translate(287.284963 401.43875) scale(0.09 -0.09)">
       <defs>
        <path id="DejaVuSerif-15" d="M 819 3553 
L 469 3553 
L 469 4384 
Q 803 4563 1142 4656 
Q 1481 4750 1806 4750 
Q 2534 4750 2956 4397 
Q 3378 4044 3378 3438 
Q 3378 2753 2422 1800 
Q 2347 1728 2309 1691 
L 1131 513 
L 3078 513 
L 3078 1088 
L 3444 1088 
L 3444 0 
L 434 0 
L 434 341 
L 1850 1753 
Q 2319 2222 2519 2614 
Q 2719 3006 2719 3438 
Q 2719 3909 2473 4175 
Q 2228 4441 1797 4441 
Q 1350 4441 1106 4219 
Q 863 3997 819 3553 
z
" transform="scale(0.015625)"/>
       </defs>
       <use xlink:href="#DejaVuSerif-15"/>
      </g>
     </g>
    </g>
    <g id="xtick_4">
     <g id="line2d_7">
      <path d="M 372.471897 387.600859 
L 372.471897 21.558281 
" clip-path="url(#p363503b16f)" style="fill: none; stroke: #dddddd; stroke-width: 0.6; stroke-linecap: square"/>
     </g>
     <g id="line2d_8">
      <g>
       <use xlink:href="#m73ce8e1b2d" x="372.471897" y="387.600859" style="stroke: #000000; stroke-width: 0.8"/>
      </g>
     </g>
     <g id="text_4">
      <!-- 3 -->
      <g transform="translate(369.608772 401.43875) scale(0.09 -0.09)">
       <defs>
        <path id="DejaVuSerif-16" d="M 622 4469 
Q 988 4606 1323 4678 
Q 1659 4750 1953 4750 
Q 2638 4750 3022 4454 
Q 3406 4159 3406 3634 
Q 3406 3213 3140 2930 
Q 2875 2647 2388 2547 
Q 2963 2466 3280 2130 
Q 3597 1794 3597 1259 
Q 3597 606 3158 257 
Q 2719 -91 1894 -91 
Q 1528 -91 1179 -12 
Q 831 66 488 225 
L 488 1131 
L 838 1131 
Q 869 681 1141 450 
Q 1413 219 1906 219 
Q 2384 219 2661 495 
Q 2938 772 2938 1253 
Q 2938 1803 2653 2086 
Q 2369 2369 1819 2369 
L 1522 2369 
L 1522 2688 
L 1678 2688 
Q 2225 2688 2498 2914 
Q 2772 3141 2772 3597 
Q 2772 4006 2547 4223 
Q 2322 4441 1900 4441 
Q 1478 4441 1245 4241 
Q 1013 4041 972 3647 
L 622 3647 
L 622 4469 
z
" transform="scale(0.015625)"/>
       </defs>
       <use xlink:href="#DejaVuSerif-16"/>
      </g>
     </g>
    </g>
    <g id="xtick_5">
     <g id="line2d_9">
      <path d="M 454.795707 387.600859 
L 454.795707 21.558281 
" clip-path="url(#p363503b16f)" style="fill: none; stroke: #dddddd; stroke-width: 0.6; stroke-linecap: square"/>
     </g>
     <g id="line2d_10">
      <g>
       <use xlink:href="#m73ce8e1b2d" x="454.795707" y="387.600859" style="stroke: #000000; stroke-width: 0.8"/>
      </g>
     </g>
     <g id="text_5">
      <!-- 4 -->
      <g transform="translate(451.932582 401.43875) scale(0.09 -0.09)">
       <defs>
        <path id="DejaVuSerif-17" d="M 2234 1581 
L 2234 4063 
L 641 1581 
L 2234 1581 
z
M 3609 0 
L 1484 0 
L 1484 331 
L 2234 331 
L 2234 1247 
L 197 1247 
L 197 1588 
L 2241 4750 
L 2859 4750 
L 2859 1581 
L 3750 1581 
L 3750 1247 
L 2859 1247 
L 2859 331 
L 3609 331 
L 3609 0 
z
" transform="scale(0.015625)"/>
       </defs>
       <use xlink:href="#DejaVuSerif-17"/>
      </g>
     </g>
    </g>
    <g id="xtick_6">
     <g id="line2d_11">
      <path d="M 537.119516 387.600859 
L 537.119516 21.558281 
" clip-path="url(#p363503b16f)" style="fill: none; stroke: #dddddd; stroke-width: 0.6; stroke-linecap: square"/>
     </g>
     <g id="line2d_12">
      <g>
       <use xlink:href="#m73ce8e1b2d" x="537.119516" y="387.600859" style="stroke: #000000; stroke-width: 0.8"/>
      </g>
     </g>
     <g id="text_6">
      <!-- 5 -->
      <g transform="translate(534.256391 401.43875) scale(0.09 -0.09)">
       <defs>
        <path id="DejaVuSerif-18" d="M 3219 4666 
L 3219 4153 
L 1081 4153 
L 1081 2816 
Q 1244 2928 1461 2984 
Q 1678 3041 1947 3041 
Q 2703 3041 3140 2622 
Q 3578 2203 3578 1478 
Q 3578 738 3136 323 
Q 2694 -91 1894 -91 
Q 1572 -91 1234 -12 
Q 897 66 544 225 
L 544 1131 
L 897 1131 
Q 925 688 1179 453 
Q 1434 219 1894 219 
Q 2388 219 2653 544 
Q 2919 869 2919 1478 
Q 2919 2084 2655 2407 
Q 2391 2731 1894 2731 
Q 1613 2731 1398 2631 
Q 1184 2531 1019 2322 
L 750 2322 
L 750 4666 
L 3219 4666 
z
" transform="scale(0.015625)"/>
       </defs>
       <use xlink:href="#DejaVuSerif-18"/>
      </g>
     </g>
    </g>
    <g id="text_7">
     <!-- count -->
     <g transform="translate(327.340312 415.198516) scale(0.1 -0.1)">
      <defs>
       <path id="DejaVuSerif-46" d="M 3291 997 
Q 3169 466 2822 187 
Q 2475 -91 1925 -91 
Q 1200 -91 759 389 
Q 319 869 319 1663 
Q 319 2459 759 2936 
Q 1200 3413 1925 3413 
Q 2241 3413 2553 3339 
Q 2866 3266 3181 3116 
L 3181 2266 
L 2847 2266 
Q 2781 2703 2561 2903 
Q 2341 3103 1931 3103 
Q 1466 3103 1228 2742 
Q 991 2381 991 1663 
Q 991 944 1227 581 
Q 1463 219 1931 219 
Q 2303 219 2525 412 
Q 2747 606 2828 997 
L 3291 997 
z
" transform="scale(0.015625)"/>
       <path id="DejaVuSerif-52" d="M 1925 219 
Q 2388 219 2623 584 
Q 2859 950 2859 1663 
Q 2859 2375 2623 2739 
Q 2388 3103 1925 3103 
Q 1463 3103 1227 2739 
Q 991 2375 991 1663 
Q 991 950 1228 584 
Q 1466 219 1925 219 
z
M 1925 -91 
Q 1200 -91 759 389 
Q 319 869 319 1663 
Q 319 2456 758 2934 
Q 1197 3413 1925 3413 
Q 2653 3413 3092 2934 
Q 3531 2456 3531 1663 
Q 3531 869 3092 389 
Q 2653 -91 1925 -91 
z
" transform="scale(0.015625)"/>
       <path id="DejaVuSerif-58" d="M 2266 3322 
L 3341 3322 
L 3341 331 
L 3884 331 
L 3884 0 
L 2766 0 
L 2766 588 
Q 2606 256 2353 82 
Q 2100 -91 1766 -91 
Q 1213 -91 952 223 
Q 691 538 691 1209 
L 691 2988 
L 172 2988 
L 172 3322 
L 1269 3322 
L 1269 1388 
Q 1269 781 1417 556 
Q 1566 331 1947 331 
Q 2347 331 2556 625 
Q 2766 919 2766 1478 
L 2766 2988 
L 2266 2988 
L 2266 3322 
z
" transform="scale(0.015625)"/>
       <path id="DejaVuSerif-51" d="M 263 0 
L 263 331 
L 781 331 
L 781 2988 
L 231 2988 
L 231 3322 
L 1356 3322 
L 1356 2731 
Q 1516 3069 1770 3241 
Q 2025 3413 2363 3413 
Q 2913 3413 3172 3097 
Q 3431 2781 3431 2113 
L 3431 331 
L 3944 331 
L 3944 0 
L 2356 0 
L 2356 331 
L 2853 331 
L 2853 1931 
Q 2853 2541 2703 2767 
Q 2553 2994 2175 2994 
Q 1775 2994 1565 2701 
Q 1356 2409 1356 1850 
L 1356 331 
L 1856 331 
L 1856 0 
L 263 0 
z
" transform="scale(0.015625)"/>
       <path id="DejaVuSerif-57" d="M 691 2988 
L 184 2988 
L 184 3322 
L 691 3322 
L 691 4353 
L 1269 4353 
L 1269 3322 
L 2350 3322 
L 2350 2988 
L 1269 2988 
L 1269 878 
Q 1269 456 1350 337 
Q 1431 219 1650 219 
Q 1875 219 1978 351 
Q 2081 484 2088 781 
L 2522 781 
Q 2497 328 2275 118 
Q 2053 -91 1600 -91 
Q 1103 -91 897 129 
Q 691 350 691 878 
L 691 2988 
z
" transform="scale(0.015625)"/>
      </defs>
      <use xlink:href="#DejaVuSerif-46"/>
      <use xlink:href="#DejaVuSerif-52" transform="translate(56 0)"/>
      <use xlink:href="#DejaVuSerif-58" transform="translate(116.203125 0)"/>
      <use xlink:href="#DejaVuSerif-51" transform="translate(180.609375 0)"/>
      <use xlink:href="#DejaVuSerif-57" transform="translate(245.015625 0)"/>
     </g>
    </g>
   </g>
   <g id="matplotlib.axis_2">
    <g id="ytick_1">
     <g id="line2d_13">
      <path d="M 125.500469 47.190255 
L 557.700469 47.190255 
" clip-path="url(#p363503b16f)" style="fill: none; stroke: #dddddd; stroke-width: 0.6; stroke-linecap: square"/>
     </g>
     <g id="line2d_14">
      <defs>
       <path id="me83073bb44" d="M 0 0 
L -3.5 0 
" style="stroke: #000000; stroke-width: 0.8"/>
      </defs>
      <g>
       <use xlink:href="#me83073bb44" x="125.500469" y="47.190255" style="stroke: #000000; stroke-width: 0.8"/>
      </g>
     </g>
     <g id="text_8">
      <!-- south africa → botswana -->
      <g transform="translate(7.2 50.609552) scale(0.09 -0.09)">
       <defs>
        <path id="DejaVuSerif-56" d="M 359 184 
L 359 959 
L 691 959 
Q 703 588 923 403 
Q 1144 219 1575 219 
Q 1963 219 2166 364 
Q 2369 509 2369 788 
Q 2369 1006 2220 1140 
Q 2072 1275 1594 1428 
L 1178 1569 
Q 750 1706 558 1912 
Q 366 2119 366 2438 
Q 366 2894 700 3153 
Q 1034 3413 1625 3413 
Q 1888 3413 2178 3344 
Q 2469 3275 2778 3144 
L 2778 2419 
L 2447 2419 
Q 2434 2741 2221 2922 
Q 2009 3103 1644 3103 
Q 1281 3103 1095 2975 
Q 909 2847 909 2591 
Q 909 2381 1050 2254 
Q 1191 2128 1613 1997 
L 2069 1856 
Q 2541 1709 2748 1489 
Q 2956 1269 2956 922 
Q 2956 450 2595 179 
Q 2234 -91 1600 -91 
Q 1278 -91 972 -22 
Q 666 47 359 184 
z
" transform="scale(0.015625)"/>
        <path id="DejaVuSerif-4b" d="M 263 0 
L 263 331 
L 781 331 
L 781 4531 
L 231 4531 
L 231 4863 
L 1356 4863 
L 1356 2731 
Q 1516 3069 1770 3241 
Q 2025 3413 2363 3413 
Q 2913 3413 3172 3097 
Q 3431 2781 3431 2113 
L 3431 331 
L 3944 331 
L 3944 0 
L 2356 0 
L 2356 331 
L 2853 331 
L 2853 1931 
Q 2853 2541 2704 2764 
Q 2556 2988 2175 2988 
Q 1775 2988 1565 2697 
Q 1356 2406 1356 1850 
L 1356 331 
L 1856 331 
L 1856 0 
L 263 0 
z
" transform="scale(0.015625)"/>
        <path id="DejaVuSerif-3" transform="scale(0.015625)"/>
        <path id="DejaVuSerif-44" d="M 2547 1044 
L 2547 1747 
L 1806 1747 
Q 1378 1747 1168 1562 
Q 959 1378 959 997 
Q 959 650 1171 447 
Q 1384 244 1747 244 
Q 2106 244 2326 466 
Q 2547 688 2547 1044 
z
M 3122 2075 
L 3122 331 
L 3634 331 
L 3634 0 
L 2547 0 
L 2547 359 
Q 2356 128 2106 18 
Q 1856 -91 1522 -91 
Q 969 -91 644 203 
Q 319 497 319 997 
Q 319 1513 691 1797 
Q 1063 2081 1741 2081 
L 2547 2081 
L 2547 2309 
Q 2547 2688 2317 2895 
Q 2088 3103 1672 3103 
Q 1328 3103 1125 2947 
Q 922 2791 872 2484 
L 575 2484 
L 575 3156 
Q 875 3284 1158 3348 
Q 1441 3413 1709 3413 
Q 2400 3413 2761 3070 
Q 3122 2728 3122 2075 
z
" transform="scale(0.015625)"/>
        <path id="DejaVuSerif-49" d="M 2753 4078 
L 2450 4078 
Q 2447 4313 2317 4434 
Q 2188 4556 1941 4556 
Q 1619 4556 1487 4379 
Q 1356 4203 1356 3750 
L 1356 3322 
L 2284 3322 
L 2284 2988 
L 1356 2988 
L 1356 331 
L 2094 331 
L 2094 0 
L 231 0 
L 231 331 
L 781 331 
L 781 2988 
L 231 2988 
L 231 3322 
L 781 3322 
L 781 3738 
Q 781 4294 1070 4578 
Q 1359 4863 1919 4863 
Q 2128 4863 2337 4825 
Q 2547 4788 2753 4709 
L 2753 4078 
z
" transform="scale(0.015625)"/>
        <path id="DejaVuSerif-55" d="M 3059 3328 
L 3059 2497 
L 2728 2497 
Q 2713 2744 2591 2866 
Q 2469 2988 2234 2988 
Q 1809 2988 1582 2694 
Q 1356 2400 1356 1850 
L 1356 331 
L 2022 331 
L 2022 0 
L 263 0 
L 263 331 
L 781 331 
L 781 2994 
L 231 2994 
L 231 3322 
L 1356 3322 
L 1356 2731 
Q 1525 3078 1790 3245 
Q 2056 3413 2438 3413 
Q 2578 3413 2733 3391 
Q 2888 3369 3059 3328 
z
" transform="scale(0.015625)"/>
        <path id="DejaVuSerif-4c" d="M 622 4353 
Q 622 4497 726 4603 
Q 831 4709 978 4709 
Q 1122 4709 1226 4603 
Q 1331 4497 1331 4353 
Q 1331 4206 1228 4103 
Q 1125 4000 978 4000 
Q 831 4000 726 4103 
Q 622 4206 622 4353 
z
M 1356 331 
L 1900 331 
L 1900 0 
L 231 0 
L 231 331 
L 781 331 
L 781 2988 
L 231 2988 
L 231 3322 
L 1356 3322 
L 1356 331 
z
" transform="scale(0.015625)"/>
        <path id="DejaVuSerif-854" d="M 366 2322 
L 4391 2322 
L 3788 3375 
L 3822 3375 
L 5125 2084 
L 5125 2053 
L 3822 763 
L 3788 763 
L 4391 1816 
L 366 1816 
L 366 2322 
z
" transform="scale(0.015625)"/>
        <path id="DejaVuSerif-45" d="M 738 331 
L 738 4531 
L 184 4531 
L 184 4863 
L 1313 4863 
L 1313 2803 
Q 1481 3116 1742 3264 
Q 2003 3413 2388 3413 
Q 3000 3413 3387 2928 
Q 3775 2444 3775 1663 
Q 3775 881 3387 395 
Q 3000 -91 2388 -91 
Q 2003 -91 1742 57 
Q 1481 206 1313 519 
L 1313 0 
L 184 0 
L 184 331 
L 738 331 
z
M 1313 1497 
Q 1313 897 1542 583 
Q 1772 269 2209 269 
Q 2650 269 2876 622 
Q 3103 975 3103 1663 
Q 3103 2353 2876 2703 
Q 2650 3053 2209 3053 
Q 1772 3053 1542 2737 
Q 1313 2422 1313 1825 
L 1313 1497 
z
" transform="scale(0.015625)"/>
        <path id="DejaVuSerif-5a" d="M 3072 3322 
L 3922 728 
L 4672 2988 
L 4191 2988 
L 4191 3322 
L 5394 3322 
L 5394 2988 
L 5025 2988 
L 4038 0 
L 3559 0 
L 2741 2484 
L 1919 0 
L 1459 0 
L 475 2988 
L 103 2988 
L 103 3322 
L 1606 3322 
L 1606 2988 
L 1069 2988 
L 1813 728 
L 2669 3322 
L 3072 3322 
z
" transform="scale(0.015625)"/>
       </defs>
       <use xlink:href="#DejaVuSerif-56"/>
       <use xlink:href="#DejaVuSerif-52" transform="translate(51.3125 0)"/>
       <use xlink:href="#DejaVuSerif-58" transform="translate(111.515625 0)"/>
       <use xlink:href="#DejaVuSerif-57" transform="translate(175.921875 0)"/>
       <use xlink:href="#DejaVuSerif-4b" transform="translate(216.109375 0)"/>
       <use xlink:href="#DejaVuSerif-3" transform="translate(280.515625 0)"/>
       <use xlink:href="#DejaVuSerif-44" transform="translate(312.296875 0)"/>
       <use xlink:href="#DejaVuSerif-49" transform="translate(371.921875 0)"/>
       <use xlink:href="#DejaVuSerif-55" transform="translate(408.9375 0)"/>
       <use xlink:href="#DejaVuSerif-4c" transform="translate(456.734375 0)"/>
       <use xlink:href="#DejaVuSerif-46" transform="translate(488.71875 0)"/>
       <use xlink:href="#DejaVuSerif-44" transform="translate(544.71875 0)"/>
       <use xlink:href="#DejaVuSerif-3" transform="translate(604.34375 0)"/>
       <use xlink:href="#DejaVuSerif-854" transform="translate(636.125 0)"/>
       <use xlink:href="#DejaVuSerif-3" transform="translate(719.921875 0)"/>
       <use xlink:href="#DejaVuSerif-45" transform="translate(751.703125 0)"/>
       <use xlink:href="#DejaVuSerif-52" transform="translate(815.71875 0)"/>
       <use xlink:href="#DejaVuSerif-57" transform="translate(875.921875 0)"/>
       <use xlink:href="#DejaVuSerif-56" transform="translate(916.109375 0)"/>
       <use xlink:href="#DejaVuSerif-5a" transform="translate(967.421875 0)"/>
       <use xlink:href="#DejaVuSerif-44" transform="translate(1053.015625 0)"/>
       <use xlink:href="#DejaVuSerif-51" transform="translate(1112.640625 0)"/>
       <use xlink:href="#DejaVuSerif-44" transform="translate(1177.046875 0)"/>
      </g>
     </g>
    </g>
    <g id="ytick_2">
     <g id="line2d_15">
      <path d="M 125.500469 69.674443 
L 557.700469 69.674443 
" clip-path="url(#p363503b16f)" style="fill: none; stroke: #dddddd; stroke-width: 0.6; stroke-linecap: square"/>
     </g>
     <g id="line2d_16">
      <g>
       <use xlink:href="#me83073bb44" x="125.500469" y="69.674443" style="stroke: #000000; stroke-width: 0.8"/>
      </g>
     </g>
     <g id="text_9">
      <!-- canada → united states -->
      <g transform="translate(13.341094 73.09374) scale(0.09 -0.09)">
       <defs>
        <path id="DejaVuSerif-47" d="M 3359 331 
L 3909 331 
L 3909 0 
L 2784 0 
L 2784 519 
Q 2616 206 2355 57 
Q 2094 -91 1709 -91 
Q 1097 -91 708 395 
Q 319 881 319 1663 
Q 319 2444 706 2928 
Q 1094 3413 1709 3413 
Q 2094 3413 2355 3264 
Q 2616 3116 2784 2803 
L 2784 4531 
L 2241 4531 
L 2241 4863 
L 3359 4863 
L 3359 331 
z
M 2784 1497 
L 2784 1825 
Q 2784 2422 2554 2737 
Q 2325 3053 1888 3053 
Q 1444 3053 1217 2703 
Q 991 2353 991 1663 
Q 991 975 1217 622 
Q 1444 269 1888 269 
Q 2325 269 2554 583 
Q 2784 897 2784 1497 
z
" transform="scale(0.015625)"/>
        <path id="DejaVuSerif-48" d="M 3469 1600 
L 991 1600 
L 991 1575 
Q 991 903 1244 561 
Q 1497 219 1991 219 
Q 2369 219 2611 417 
Q 2853 616 2950 1006 
L 3413 1006 
Q 3275 459 2904 184 
Q 2534 -91 1931 -91 
Q 1203 -91 761 389 
Q 319 869 319 1663 
Q 319 2450 753 2931 
Q 1188 3413 1894 3413 
Q 2647 3413 3050 2948 
Q 3453 2484 3469 1600 
z
M 2791 1931 
Q 2772 2513 2545 2808 
Q 2319 3103 1894 3103 
Q 1497 3103 1269 2806 
Q 1041 2509 991 1931 
L 2791 1931 
z
" transform="scale(0.015625)"/>
       </defs>
       <use xlink:href="#DejaVuSerif-46"/>
       <use xlink:href="#DejaVuSerif-44" transform="translate(56 0)"/>
       <use xlink:href="#DejaVuSerif-51" transform="translate(115.625 0)"/>
       <use xlink:href="#DejaVuSerif-44" transform="translate(180.03125 0)"/>
       <use xlink:href="#DejaVuSerif-47" transform="translate(239.65625 0)"/>
       <use xlink:href="#DejaVuSerif-44" transform="translate(303.671875 0)"/>
       <use xlink:href="#DejaVuSerif-3" transform="translate(363.296875 0)"/>
       <use xlink:href="#DejaVuSerif-854" transform="translate(395.078125 0)"/>
       <use xlink:href="#DejaVuSerif-3" transform="translate(478.875 0)"/>
       <use xlink:href="#DejaVuSerif-58" transform="translate(510.65625 0)"/>
       <use xlink:href="#DejaVuSerif-51" transform="translate(575.0625 0)"/>
       <use xlink:href="#DejaVuSerif-4c" transform="translate(639.46875 0)"/>
       <use xlink:href="#DejaVuSerif-57" transform="translate(671.453125 0)"/>
       <use xlink:href="#DejaVuSerif-48" transform="translate(711.640625 0)"/>
       <use xlink:href="#DejaVuSerif-47" transform="translate(770.828125 0)"/>
       <use xlink:href="#DejaVuSerif-3" transform="translate(834.84375 0)"/>
       <use xlink:href="#DejaVuSerif-56" transform="translate(866.625 0)"/>
       <use xlink:href="#DejaVuSerif-57" transform="translate(917.9375 0)"/>
       <use xlink:href="#DejaVuSerif-44" transform="translate(958.125 0)"/>
       <use xlink:href="#DejaVuSerif-57" transform="translate(1017.75 0)"/>
       <use xlink:href="#DejaVuSerif-48" transform="translate(1057.9375 0)"/>
       <use xlink:href="#DejaVuSerif-56" transform="translate(1117.125 0)"/>
      </g>
     </g>
    </g>
    <g id="ytick_3">
     <g id="line2d_17">
      <path d="M 125.500469 92.158631 
L 557.700469 92.158631 
" clip-path="url(#p363503b16f)" style="fill: none; stroke: #dddddd; stroke-width: 0.6; stroke-linecap: square"/>
     </g>
     <g id="line2d_18">
      <g>
       <use xlink:href="#me83073bb44" x="125.500469" y="92.158631" style="stroke: #000000; stroke-width: 0.8"/>
      </g>
     </g>
     <g id="text_10">
      <!-- peru → colombia -->
      <g transform="translate(42.755625 95.577928) scale(0.09 -0.09)">
       <defs>
        <path id="DejaVuSerif-53" d="M 1313 1825 
L 1313 1497 
Q 1313 897 1542 583 
Q 1772 269 2209 269 
Q 2650 269 2876 622 
Q 3103 975 3103 1663 
Q 3103 2353 2876 2703 
Q 2650 3053 2209 3053 
Q 1772 3053 1542 2737 
Q 1313 2422 1313 1825 
z
M 738 2988 
L 184 2988 
L 184 3322 
L 1313 3322 
L 1313 2803 
Q 1481 3116 1742 3264 
Q 2003 3413 2388 3413 
Q 3000 3413 3387 2928 
Q 3775 2444 3775 1663 
Q 3775 881 3387 395 
Q 3000 -91 2388 -91 
Q 2003 -91 1742 57 
Q 1481 206 1313 519 
L 1313 -997 
L 1856 -997 
L 1856 -1331 
L 184 -1331 
L 184 -997 
L 738 -997 
L 738 2988 
z
" transform="scale(0.015625)"/>
        <path id="DejaVuSerif-4f" d="M 1313 331 
L 1856 331 
L 1856 0 
L 184 0 
L 184 331 
L 738 331 
L 738 4531 
L 184 4531 
L 184 4863 
L 1313 4863 
L 1313 331 
z
" transform="scale(0.015625)"/>
        <path id="DejaVuSerif-50" d="M 3316 2675 
Q 3481 3041 3739 3227 
Q 3997 3413 4341 3413 
Q 4863 3413 5119 3089 
Q 5375 2766 5375 2113 
L 5375 331 
L 5894 331 
L 5894 0 
L 4300 0 
L 4300 331 
L 4800 331 
L 4800 2047 
Q 4800 2556 4650 2772 
Q 4500 2988 4153 2988 
Q 3769 2988 3567 2697 
Q 3366 2406 3366 1850 
L 3366 331 
L 3866 331 
L 3866 0 
L 2291 0 
L 2291 331 
L 2791 331 
L 2791 2069 
Q 2791 2566 2641 2777 
Q 2491 2988 2144 2988 
Q 1759 2988 1557 2697 
Q 1356 2406 1356 1850 
L 1356 331 
L 1856 331 
L 1856 0 
L 263 0 
L 263 331 
L 781 331 
L 781 2994 
L 231 2994 
L 231 3322 
L 1356 3322 
L 1356 2731 
Q 1516 3063 1762 3238 
Q 2009 3413 2322 3413 
Q 2709 3413 2968 3220 
Q 3228 3028 3316 2675 
z
" transform="scale(0.015625)"/>
       </defs>
       <use xlink:href="#DejaVuSerif-53"/>
       <use xlink:href="#DejaVuSerif-48" transform="translate(64.015625 0)"/>
       <use xlink:href="#DejaVuSerif-55" transform="translate(123.203125 0)"/>
       <use xlink:href="#DejaVuSerif-58" transform="translate(171 0)"/>
       <use xlink:href="#DejaVuSerif-3" transform="translate(235.40625 0)"/>
       <use xlink:href="#DejaVuSerif-854" transform="translate(267.1875 0)"/>
       <use xlink:href="#DejaVuSerif-3" transform="translate(350.984375 0)"/>
       <use xlink:href="#DejaVuSerif-46" transform="translate(382.765625 0)"/>
       <use xlink:href="#DejaVuSerif-52" transform="translate(438.765625 0)"/>
       <use xlink:href="#DejaVuSerif-4f" transform="translate(498.96875 0)"/>
       <use xlink:href="#DejaVuSerif-52" transform="translate(530.953125 0)"/>
       <use xlink:href="#DejaVuSerif-50" transform="translate(591.15625 0)"/>
       <use xlink:href="#DejaVuSerif-45" transform="translate(685.984375 0)"/>
       <use xlink:href="#DejaVuSerif-4c" transform="translate(750 0)"/>
       <use xlink:href="#DejaVuSerif-44" transform="translate(781.984375 0)"/>
      </g>
     </g>
    </g>
    <g id="ytick_4">
     <g id="line2d_19">
      <path d="M 125.500469 114.642819 
L 557.700469 114.642819 
" clip-path="url(#p363503b16f)" style="fill: none; stroke: #dddddd; stroke-width: 0.6; stroke-linecap: square"/>
     </g>
     <g id="line2d_20">
      <g>
       <use xlink:href="#me83073bb44" x="125.500469" y="114.642819" style="stroke: #000000; stroke-width: 0.8"/>
      </g>
     </g>
     <g id="text_11">
      <!-- indonesia → thailand -->
      <g transform="translate(23.935781 118.062116) scale(0.09 -0.09)">
       <use xlink:href="#DejaVuSerif-4c"/>
       <use xlink:href="#DejaVuSerif-51" transform="translate(31.984375 0)"/>
       <use xlink:href="#DejaVuSerif-47" transform="translate(96.390625 0)"/>
       <use xlink:href="#DejaVuSerif-52" transform="translate(160.40625 0)"/>
       <use xlink:href="#DejaVuSerif-51" transform="translate(220.609375 0)"/>
       <use xlink:href="#DejaVuSerif-48" transform="translate(285.015625 0)"/>
       <use xlink:href="#DejaVuSerif-56" transform="translate(344.203125 0)"/>
       <use xlink:href="#DejaVuSerif-4c" transform="translate(395.515625 0)"/>
       <use xlink:href="#DejaVuSerif-44" transform="translate(427.5 0)"/>
       <use xlink:href="#DejaVuSerif-3" transform="translate(487.125 0)"/>
       <use xlink:href="#DejaVuSerif-854" transform="translate(518.90625 0)"/>
       <use xlink:href="#DejaVuSerif-3" transform="translate(602.703125 0)"/>
       <use xlink:href="#DejaVuSerif-57" transform="translate(634.484375 0)"/>
       <use xlink:href="#DejaVuSerif-4b" transform="translate(674.671875 0)"/>
       <use xlink:href="#DejaVuSerif-44" transform="translate(739.078125 0)"/>
       <use xlink:href="#DejaVuSerif-4c" transform="translate(798.703125 0)"/>
       <use xlink:href="#DejaVuSerif-4f" transform="translate(830.6875 0)"/>
       <use xlink:href="#DejaVuSerif-44" transform="translate(862.671875 0)"/>
       <use xlink:href="#DejaVuSerif-51" transform="translate(922.296875 0)"/>
       <use xlink:href="#DejaVuSerif-47" transform="translate(986.703125 0)"/>
      </g>
     </g>
    </g>
    <g id="ytick_5">
     <g id="line2d_21">
      <path d="M 125.500469 137.127007 
L 557.700469 137.127007 
" clip-path="url(#p363503b16f)" style="fill: none; stroke: #dddddd; stroke-width: 0.6; stroke-linecap: square"/>
     </g>
     <g id="line2d_22">
      <g>
       <use xlink:href="#me83073bb44" x="125.500469" y="137.127007" style="stroke: #000000; stroke-width: 0.8"/>
      </g>
     </g>
     <g id="text_12">
      <!-- panama → puerto rico -->
      <g transform="translate(18.32625 140.545952) scale(0.09 -0.09)">
       <use xlink:href="#DejaVuSerif-53"/>
       <use xlink:href="#DejaVuSerif-44" transform="translate(64.015625 0)"/>
       <use xlink:href="#DejaVuSerif-51" transform="translate(123.640625 0)"/>
       <use xlink:href="#DejaVuSerif-44" transform="translate(188.046875 0)"/>
       <use xlink:href="#DejaVuSerif-50" transform="translate(247.671875 0)"/>
       <use xlink:href="#DejaVuSerif-44" transform="translate(342.5 0)"/>
       <use xlink:href="#DejaVuSerif-3" transform="translate(402.125 0)"/>
       <use xlink:href="#DejaVuSerif-854" transform="translate(433.90625 0)"/>
       <use xlink:href="#DejaVuSerif-3" transform="translate(517.703125 0)"/>
       <use xlink:href="#DejaVuSerif-53" transform="translate(549.484375 0)"/>
       <use xlink:href="#DejaVuSerif-58" transform="translate(613.5 0)"/>
       <use xlink:href="#DejaVuSerif-48" transform="translate(677.90625 0)"/>
       <use xlink:href="#DejaVuSerif-55" transform="translate(737.09375 0)"/>
       <use xlink:href="#DejaVuSerif-57" transform="translate(784.890625 0)"/>
       <use xlink:href="#DejaVuSerif-52" transform="translate(825.078125 0)"/>
       <use xlink:href="#DejaVuSerif-3" transform="translate(885.28125 0)"/>
       <use xlink:href="#DejaVuSerif-55" transform="translate(917.0625 0)"/>
       <use xlink:href="#DejaVuSerif-4c" transform="translate(964.859375 0)"/>
       <use xlink:href="#DejaVuSerif-46" transform="translate(996.84375 0)"/>
       <use xlink:href="#DejaVuSerif-52" transform="translate(1052.84375 0)"/>
      </g>
     </g>
    </g>
    <g id="ytick_6">
     <g id="line2d_23">
      <path d="M 125.500469 159.611195 
L 557.700469 159.611195 
" clip-path="url(#p363503b16f)" style="fill: none; stroke: #dddddd; stroke-width: 0.6; stroke-linecap: square"/>
     </g>
     <g id="line2d_24">
      <g>
       <use xlink:href="#me83073bb44" x="125.500469" y="159.611195" style="stroke: #000000; stroke-width: 0.8"/>
      </g>
     </g>
     <g id="text_13">
      <!-- uruguay → brazil -->
      <g transform="translate(41.405625 163.030491) scale(0.09 -0.09)">
       <defs>
        <path id="DejaVuSerif-4a" d="M 3359 2988 
L 3359 72 
Q 3359 -644 2965 -1033 
Q 2572 -1422 1844 -1422 
Q 1516 -1422 1216 -1362 
Q 916 -1303 641 -1184 
L 641 -488 
L 941 -488 
Q 997 -813 1206 -963 
Q 1416 -1113 1806 -1113 
Q 2313 -1113 2548 -827 
Q 2784 -541 2784 72 
L 2784 519 
Q 2616 206 2355 57 
Q 2094 -91 1709 -91 
Q 1097 -91 708 395 
Q 319 881 319 1663 
Q 319 2444 706 2928 
Q 1094 3413 1709 3413 
Q 2094 3413 2355 3264 
Q 2616 3116 2784 2803 
L 2784 3322 
L 3909 3322 
L 3909 2988 
L 3359 2988 
z
M 2784 1825 
Q 2784 2422 2554 2737 
Q 2325 3053 1888 3053 
Q 1444 3053 1217 2703 
Q 991 2353 991 1663 
Q 991 975 1217 622 
Q 1444 269 1888 269 
Q 2325 269 2554 583 
Q 2784 897 2784 1497 
L 2784 1825 
z
" transform="scale(0.015625)"/>
        <path id="DejaVuSerif-5c" d="M 1381 -609 
L 1600 -56 
L 359 2988 
L -19 2988 
L -19 3322 
L 1509 3322 
L 1509 2988 
L 978 2988 
L 1913 703 
L 2847 2988 
L 2350 2988 
L 2350 3322 
L 3597 3322 
L 3597 2988 
L 3225 2988 
L 1703 -750 
Q 1547 -1138 1356 -1280 
Q 1166 -1422 819 -1422 
Q 672 -1422 517 -1397 
Q 363 -1372 206 -1325 
L 206 -691 
L 500 -691 
Q 519 -903 608 -995 
Q 697 -1088 884 -1088 
Q 1056 -1088 1161 -992 
Q 1266 -897 1381 -609 
z
" transform="scale(0.015625)"/>
        <path id="DejaVuSerif-5d" d="M 256 0 
L 256 269 
L 2338 2988 
L 691 2988 
L 691 2413 
L 359 2413 
L 359 3322 
L 3078 3322 
L 3078 3053 
L 997 331 
L 2803 331 
L 2803 934 
L 3138 934 
L 3138 0 
L 256 0 
z
" transform="scale(0.015625)"/>
       </defs>
       <use xlink:href="#DejaVuSerif-58"/>
       <use xlink:href="#DejaVuSerif-55" transform="translate(64.40625 0)"/>
       <use xlink:href="#DejaVuSerif-58" transform="translate(112.203125 0)"/>
       <use xlink:href="#DejaVuSerif-4a" transform="translate(176.609375 0)"/>
       <use xlink:href="#DejaVuSerif-58" transform="translate(240.625 0)"/>
       <use xlink:href="#DejaVuSerif-44" transform="translate(305.03125 0)"/>
       <use xlink:href="#DejaVuSerif-5c" transform="translate(364.65625 0)"/>
       <use xlink:href="#DejaVuSerif-3" transform="translate(421.15625 0)"/>
       <use xlink:href="#DejaVuSerif-854" transform="translate(452.9375 0)"/>
       <use xlink:href="#DejaVuSerif-3" transform="translate(536.734375 0)"/>
       <use xlink:href="#DejaVuSerif-45" transform="translate(568.515625 0)"/>
       <use xlink:href="#DejaVuSerif-55" transform="translate(632.53125 0)"/>
       <use xlink:href="#DejaVuSerif-44" transform="translate(680.328125 0)"/>
       <use xlink:href="#DejaVuSerif-5d" transform="translate(739.953125 0)"/>
       <use xlink:href="#DejaVuSerif-4c" transform="translate(792.640625 0)"/>
       <use xlink:href="#DejaVuSerif-4f" transform="translate(824.625 0)"/>
      </g>
     </g>
    </g>
    <g id="ytick_7">
     <g id="line2d_25">
      <path d="M 125.500469 182.095382 
L 557.700469 182.095382 
" clip-path="url(#p363503b16f)" style="fill: none; stroke: #dddddd; stroke-width: 0.6; stroke-linecap: square"/>
     </g>
     <g id="line2d_26">
      <g>
       <use xlink:href="#me83073bb44" x="125.500469" y="182.095382" style="stroke: #000000; stroke-width: 0.8"/>
      </g>
     </g>
     <g id="text_14">
      <!-- indonesia → philippines -->
      <g transform="translate(11.060156 185.514679) scale(0.09 -0.09)">
       <use xlink:href="#DejaVuSerif-4c"/>
       <use xlink:href="#DejaVuSerif-51" transform="translate(31.984375 0)"/>
       <use xlink:href="#DejaVuSerif-47" transform="translate(96.390625 0)"/>
       <use xlink:href="#DejaVuSerif-52" transform="translate(160.40625 0)"/>
       <use xlink:href="#DejaVuSerif-51" transform="translate(220.609375 0)"/>
       <use xlink:href="#DejaVuSerif-48" transform="translate(285.015625 0)"/>
       <use xlink:href="#DejaVuSerif-56" transform="translate(344.203125 0)"/>
       <use xlink:href="#DejaVuSerif-4c" transform="translate(395.515625 0)"/>
       <use xlink:href="#DejaVuSerif-44" transform="translate(427.5 0)"/>
       <use xlink:href="#DejaVuSerif-3" transform="translate(487.125 0)"/>
       <use xlink:href="#DejaVuSerif-854" transform="translate(518.90625 0)"/>
       <use xlink:href="#DejaVuSerif-3" transform="translate(602.703125 0)"/>
       <use xlink:href="#DejaVuSerif-53" transform="translate(634.484375 0)"/>
       <use xlink:href="#DejaVuSerif-4b" transform="translate(698.5 0)"/>
       <use xlink:href="#DejaVuSerif-4c" transform="translate(762.90625 0)"/>
       <use xlink:href="#DejaVuSerif-4f" transform="translate(794.890625 0)"/>
       <use xlink:href="#DejaVuSerif-4c" transform="translate(826.875 0)"/>
       <use xlink:href="#DejaVuSerif-53" transform="translate(858.859375 0)"/>
       <use xlink:href="#DejaVuSerif-53" transform="translate(922.875 0)"/>
       <use xlink:href="#DejaVuSerif-4c" transform="translate(986.890625 0)"/>
       <use xlink:href="#DejaVuSerif-51" transform="translate(1018.875 0)"/>
       <use xlink:href="#DejaVuSerif-48" transform="translate(1083.28125 0)"/>
       <use xlink:href="#DejaVuSerif-56" transform="translate(1142.46875 0)"/>
      </g>
     </g>
    </g>
    <g id="ytick_8">
     <g id="line2d_27">
      <path d="M 125.500469 204.57957 
L 557.700469 204.57957 
" clip-path="url(#p363503b16f)" style="fill: none; stroke: #dddddd; stroke-width: 0.6; stroke-linecap: square"/>
     </g>
     <g id="line2d_28">
      <g>
       <use xlink:href="#me83073bb44" x="125.500469" y="204.57957" style="stroke: #000000; stroke-width: 0.8"/>
      </g>
     </g>
     <g id="text_15">
      <!-- argentina → mexico -->
      <g transform="translate(28.753594 207.998516) scale(0.09 -0.09)">
       <defs>
        <path id="DejaVuSerif-5b" d="M 1863 2028 
L 2559 2988 
L 2113 2988 
L 2113 3322 
L 3391 3322 
L 3391 2988 
L 2950 2988 
L 2059 1759 
L 3097 331 
L 3531 331 
L 3531 0 
L 1997 0 
L 1997 331 
L 2419 331 
L 1697 1325 
L 972 331 
L 1403 331 
L 1403 0 
L 141 0 
L 141 331 
L 581 331 
L 1497 1594 
L 488 2988 
L 78 2988 
L 78 3322 
L 1563 3322 
L 1563 2988 
L 1166 2988 
L 1863 2028 
z
" transform="scale(0.015625)"/>
       </defs>
       <use xlink:href="#DejaVuSerif-44"/>
       <use xlink:href="#DejaVuSerif-55" transform="translate(59.625 0)"/>
       <use xlink:href="#DejaVuSerif-4a" transform="translate(107.421875 0)"/>
       <use xlink:href="#DejaVuSerif-48" transform="translate(171.4375 0)"/>
       <use xlink:href="#DejaVuSerif-51" transform="translate(230.625 0)"/>
       <use xlink:href="#DejaVuSerif-57" transform="translate(295.03125 0)"/>
       <use xlink:href="#DejaVuSerif-4c" transform="translate(335.21875 0)"/>
       <use xlink:href="#DejaVuSerif-51" transform="translate(367.203125 0)"/>
       <use xlink:href="#DejaVuSerif-44" transform="translate(431.609375 0)"/>
       <use xlink:href="#DejaVuSerif-3" transform="translate(491.234375 0)"/>
       <use xlink:href="#DejaVuSerif-854" transform="translate(523.015625 0)"/>
       <use xlink:href="#DejaVuSerif-3" transform="translate(606.8125 0)"/>
       <use xlink:href="#DejaVuSerif-50" transform="translate(638.59375 0)"/>
       <use xlink:href="#DejaVuSerif-48" transform="translate(733.421875 0)"/>
       <use xlink:href="#DejaVuSerif-5b" transform="translate(792.609375 0)"/>
       <use xlink:href="#DejaVuSerif-4c" transform="translate(849 0)"/>
       <use xlink:href="#DejaVuSerif-46" transform="translate(880.984375 0)"/>
       <use xlink:href="#DejaVuSerif-52" transform="translate(936.984375 0)"/>
      </g>
     </g>
    </g>
    <g id="ytick_9">
     <g id="line2d_29">
      <path d="M 125.500469 227.063758 
L 557.700469 227.063758 
" clip-path="url(#p363503b16f)" style="fill: none; stroke: #dddddd; stroke-width: 0.6; stroke-linecap: square"/>
     </g>
     <g id="line2d_30">
      <g>
       <use xlink:href="#me83073bb44" x="125.500469" y="227.063758" style="stroke: #000000; stroke-width: 0.8"/>
      </g>
     </g>
     <g id="text_16">
      <!-- norway → sweden -->
      <g transform="translate(37.033594 230.483055) scale(0.09 -0.09)">
       <use xlink:href="#DejaVuSerif-51"/>
       <use xlink:href="#DejaVuSerif-52" transform="translate(64.40625 0)"/>
       <use xlink:href="#DejaVuSerif-55" transform="translate(124.609375 0)"/>
       <use xlink:href="#DejaVuSerif-5a" transform="translate(172.40625 0)"/>
       <use xlink:href="#DejaVuSerif-44" transform="translate(258 0)"/>
       <use xlink:href="#DejaVuSerif-5c" transform="translate(317.625 0)"/>
       <use xlink:href="#DejaVuSerif-3" transform="translate(374.125 0)"/>
       <use xlink:href="#DejaVuSerif-854" transform="translate(405.90625 0)"/>
       <use xlink:href="#DejaVuSerif-3" transform="translate(489.703125 0)"/>
       <use xlink:href="#DejaVuSerif-56" transform="translate(521.484375 0)"/>
       <use xlink:href="#DejaVuSerif-5a" transform="translate(572.796875 0)"/>
       <use xlink:href="#DejaVuSerif-48" transform="translate(658.390625 0)"/>
       <use xlink:href="#DejaVuSerif-47" transform="translate(717.578125 0)"/>
       <use xlink:href="#DejaVuSerif-48" transform="translate(781.59375 0)"/>
       <use xlink:href="#DejaVuSerif-51" transform="translate(840.78125 0)"/>
      </g>
     </g>
    </g>
    <g id="ytick_10">
     <g id="line2d_31">
      <path d="M 125.500469 249.547946 
L 557.700469 249.547946 
" clip-path="url(#p363503b16f)" style="fill: none; stroke: #dddddd; stroke-width: 0.6; stroke-linecap: square"/>
     </g>
     <g id="line2d_32">
      <g>
       <use xlink:href="#me83073bb44" x="125.500469" y="249.547946" style="stroke: #000000; stroke-width: 0.8"/>
      </g>
     </g>
     <g id="text_17">
      <!-- south africa → australia -->
      <g transform="translate(10.657969 252.967243) scale(0.09 -0.09)">
       <use xlink:href="#DejaVuSerif-56"/>
       <use xlink:href="#DejaVuSerif-52" transform="translate(51.3125 0)"/>
       <use xlink:href="#DejaVuSerif-58" transform="translate(111.515625 0)"/>
       <use xlink:href="#DejaVuSerif-57" transform="translate(175.921875 0)"/>
       <use xlink:href="#DejaVuSerif-4b" transform="translate(216.109375 0)"/>
       <use xlink:href="#DejaVuSerif-3" transform="translate(280.515625 0)"/>
       <use xlink:href="#DejaVuSerif-44" transform="translate(312.296875 0)"/>
       <use xlink:href="#DejaVuSerif-49" transform="translate(371.921875 0)"/>
       <use xlink:href="#DejaVuSerif-55" transform="translate(408.9375 0)"/>
       <use xlink:href="#DejaVuSerif-4c" transform="translate(456.734375 0)"/>
       <use xlink:href="#DejaVuSerif-46" transform="translate(488.71875 0)"/>
       <use xlink:href="#DejaVuSerif-44" transform="translate(544.71875 0)"/>
       <use xlink:href="#DejaVuSerif-3" transform="translate(604.34375 0)"/>
       <use xlink:href="#DejaVuSerif-854" transform="translate(636.125 0)"/>
       <use xlink:href="#DejaVuSerif-3" transform="translate(719.921875 0)"/>
       <use xlink:href="#DejaVuSerif-44" transform="translate(751.703125 0)"/>
       <use xlink:href="#DejaVuSerif-58" transform="translate(811.328125 0)"/>
       <use xlink:href="#DejaVuSerif-56" transform="translate(875.734375 0)"/>
       <use xlink:href="#DejaVuSerif-57" transform="translate(927.046875 0)"/>
       <use xlink:href="#DejaVuSerif-55" transform="translate(967.234375 0)"/>
       <use xlink:href="#DejaVuSerif-44" transform="translate(1015.03125 0)"/>
       <use xlink:href="#DejaVuSerif-4f" transform="translate(1074.65625 0)"/>
       <use xlink:href="#DejaVuSerif-4c" transform="translate(1106.640625 0)"/>
       <use xlink:href="#DejaVuSerif-44" transform="translate(1138.625 0)"/>
      </g>
     </g>
    </g>
    <g id="ytick_11">
     <g id="line2d_33">
      <path d="M 125.500469 272.032134 
L 557.700469 272.032134 
" clip-path="url(#p363503b16f)" style="fill: none; stroke: #dddddd; stroke-width: 0.6; stroke-linecap: square"/>
     </g>
     <g id="line2d_34">
      <g>
       <use xlink:href="#me83073bb44" x="125.500469" y="272.032134" style="stroke: #000000; stroke-width: 0.8"/>
      </g>
     </g>
     <g id="text_18">
      <!-- bolivia → brazil -->
      <g transform="translate(49.042969 275.451431) scale(0.09 -0.09)">
       <defs>
        <path id="DejaVuSerif-59" d="M 1581 0 
L 359 2988 
L -19 2988 
L -19 3322 
L 1509 3322 
L 1509 2988 
L 978 2988 
L 1913 703 
L 2847 2988 
L 2350 2988 
L 2350 3322 
L 3597 3322 
L 3597 2988 
L 3225 2988 
L 2003 0 
L 1581 0 
z
" transform="scale(0.015625)"/>
       </defs>
       <use xlink:href="#DejaVuSerif-45"/>
       <use xlink:href="#DejaVuSerif-52" transform="translate(64.015625 0)"/>
       <use xlink:href="#DejaVuSerif-4f" transform="translate(124.21875 0)"/>
       <use xlink:href="#DejaVuSerif-4c" transform="translate(156.203125 0)"/>
       <use xlink:href="#DejaVuSerif-59" transform="translate(188.1875 0)"/>
       <use xlink:href="#DejaVuSerif-4c" transform="translate(244.6875 0)"/>
       <use xlink:href="#DejaVuSerif-44" transform="translate(276.671875 0)"/>
       <use xlink:href="#DejaVuSerif-3" transform="translate(336.296875 0)"/>
       <use xlink:href="#DejaVuSerif-854" transform="translate(368.078125 0)"/>
       <use xlink:href="#DejaVuSerif-3" transform="translate(451.875 0)"/>
       <use xlink:href="#DejaVuSerif-45" transform="translate(483.65625 0)"/>
       <use xlink:href="#DejaVuSerif-55" transform="translate(547.671875 0)"/>
       <use xlink:href="#DejaVuSerif-44" transform="translate(595.46875 0)"/>
       <use xlink:href="#DejaVuSerif-5d" transform="translate(655.09375 0)"/>
       <use xlink:href="#DejaVuSerif-4c" transform="translate(707.78125 0)"/>
       <use xlink:href="#DejaVuSerif-4f" transform="translate(739.765625 0)"/>
      </g>
     </g>
    </g>
    <g id="ytick_12">
     <g id="line2d_35">
      <path d="M 125.500469 294.516322 
L 557.700469 294.516322 
" clip-path="url(#p363503b16f)" style="fill: none; stroke: #dddddd; stroke-width: 0.6; stroke-linecap: square"/>
     </g>
     <g id="line2d_36">
      <g>
       <use xlink:href="#me83073bb44" x="125.500469" y="294.516322" style="stroke: #000000; stroke-width: 0.8"/>
      </g>
     </g>
     <g id="text_19">
      <!-- montenegro → croatia -->
      <g transform="translate(17.952187 297.935267) scale(0.09 -0.09)">
       <use xlink:href="#DejaVuSerif-50"/>
       <use xlink:href="#DejaVuSerif-52" transform="translate(94.828125 0)"/>
       <use xlink:href="#DejaVuSerif-51" transform="translate(155.03125 0)"/>
       <use xlink:href="#DejaVuSerif-57" transform="translate(219.4375 0)"/>
       <use xlink:href="#DejaVuSerif-48" transform="translate(259.625 0)"/>
       <use xlink:href="#DejaVuSerif-51" transform="translate(318.8125 0)"/>
       <use xlink:href="#DejaVuSerif-48" transform="translate(383.21875 0)"/>
       <use xlink:href="#DejaVuSerif-4a" transform="translate(442.40625 0)"/>
       <use xlink:href="#DejaVuSerif-55" transform="translate(506.421875 0)"/>
       <use xlink:href="#DejaVuSerif-52" transform="translate(554.21875 0)"/>
       <use xlink:href="#DejaVuSerif-3" transform="translate(614.421875 0)"/>
       <use xlink:href="#DejaVuSerif-854" transform="translate(646.203125 0)"/>
       <use xlink:href="#DejaVuSerif-3" transform="translate(730 0)"/>
       <use xlink:href="#DejaVuSerif-46" transform="translate(761.78125 0)"/>
       <use xlink:href="#DejaVuSerif-55" transform="translate(817.78125 0)"/>
       <use xlink:href="#DejaVuSerif-52" transform="translate(865.578125 0)"/>
       <use xlink:href="#DejaVuSerif-44" transform="translate(925.78125 0)"/>
       <use xlink:href="#DejaVuSerif-57" transform="translate(985.40625 0)"/>
       <use xlink:href="#DejaVuSerif-4c" transform="translate(1025.59375 0)"/>
       <use xlink:href="#DejaVuSerif-44" transform="translate(1057.578125 0)"/>
      </g>
     </g>
    </g>
    <g id="ytick_13">
     <g id="line2d_37">
      <path d="M 125.500469 317.00051 
L 557.700469 317.00051 
" clip-path="url(#p363503b16f)" style="fill: none; stroke: #dddddd; stroke-width: 0.6; stroke-linecap: square"/>
     </g>
     <g id="line2d_38">
      <g>
       <use xlink:href="#me83073bb44" x="125.500469" y="317.00051" style="stroke: #000000; stroke-width: 0.8"/>
      </g>
     </g>
     <g id="text_20">
      <!-- argentina → colombia -->
      <g transform="translate(19.731094 320.419806) scale(0.09 -0.09)">
       <use xlink:href="#DejaVuSerif-44"/>
       <use xlink:href="#DejaVuSerif-55" transform="translate(59.625 0)"/>
       <use xlink:href="#DejaVuSerif-4a" transform="translate(107.421875 0)"/>
       <use xlink:href="#DejaVuSerif-48" transform="translate(171.4375 0)"/>
       <use xlink:href="#DejaVuSerif-51" transform="translate(230.625 0)"/>
       <use xlink:href="#DejaVuSerif-57" transform="translate(295.03125 0)"/>
       <use xlink:href="#DejaVuSerif-4c" transform="translate(335.21875 0)"/>
       <use xlink:href="#DejaVuSerif-51" transform="translate(367.203125 0)"/>
       <use xlink:href="#DejaVuSerif-44" transform="translate(431.609375 0)"/>
       <use xlink:href="#DejaVuSerif-3" transform="translate(491.234375 0)"/>
       <use xlink:href="#DejaVuSerif-854" transform="translate(523.015625 0)"/>
       <use xlink:href="#DejaVuSerif-3" transform="translate(606.8125 0)"/>
       <use xlink:href="#DejaVuSerif-46" transform="translate(638.59375 0)"/>
       <use xlink:href="#DejaVuSerif-52" transform="translate(694.59375 0)"/>
       <use xlink:href="#DejaVuSerif-4f" transform="translate(754.796875 0)"/>
       <use xlink:href="#DejaVuSerif-52" transform="translate(786.78125 0)"/>
       <use xlink:href="#DejaVuSerif-50" transform="translate(846.984375 0)"/>
       <use xlink:href="#DejaVuSerif-45" transform="translate(941.8125 0)"/>
       <use xlink:href="#DejaVuSerif-4c" transform="translate(1005.828125 0)"/>
       <use xlink:href="#DejaVuSerif-44" transform="translate(1037.8125 0)"/>
      </g>
     </g>
    </g>
    <g id="ytick_14">
     <g id="line2d_39">
      <path d="M 125.500469 339.484697 
L 557.700469 339.484697 
" clip-path="url(#p363503b16f)" style="fill: none; stroke: #dddddd; stroke-width: 0.6; stroke-linecap: square"/>
     </g>
     <g id="line2d_40">
      <g>
       <use xlink:href="#me83073bb44" x="125.500469" y="339.484697" style="stroke: #000000; stroke-width: 0.8"/>
      </g>
     </g>
     <g id="text_21">
      <!-- sweden → finland -->
      <g transform="translate(39.102187 342.903994) scale(0.09 -0.09)">
       <defs>
        <path id="DejaVuSerif-cf0" d="M 3347 4019 
L 3053 4022 
Q 3044 4291 2853 4423 
Q 2663 4556 2278 4556 
Q 1800 4556 1578 4334 
Q 1356 4113 1356 3634 
L 1356 3322 
L 3578 3322 
L 3578 331 
L 4122 331 
L 4122 0 
L 2450 0 
L 2450 331 
L 3003 331 
L 3003 2988 
L 1356 2988 
L 1356 331 
L 1900 331 
L 1900 0 
L 231 0 
L 231 331 
L 781 331 
L 781 2988 
L 231 2988 
L 231 3322 
L 781 3322 
L 781 3622 
Q 781 4238 1147 4550 
Q 1513 4863 2228 4863 
Q 2500 4863 2784 4822 
Q 3069 4781 3347 4697 
L 3347 4019 
z
" transform="scale(0.015625)"/>
       </defs>
       <use xlink:href="#DejaVuSerif-56"/>
       <use xlink:href="#DejaVuSerif-5a" transform="translate(51.3125 0)"/>
       <use xlink:href="#DejaVuSerif-48" transform="translate(136.90625 0)"/>
       <use xlink:href="#DejaVuSerif-47" transform="translate(196.09375 0)"/>
       <use xlink:href="#DejaVuSerif-48" transform="translate(260.109375 0)"/>
       <use xlink:href="#DejaVuSerif-51" transform="translate(319.296875 0)"/>
       <use xlink:href="#DejaVuSerif-3" transform="translate(383.703125 0)"/>
       <use xlink:href="#DejaVuSerif-854" transform="translate(415.484375 0)"/>
       <use xlink:href="#DejaVuSerif-3" transform="translate(499.28125 0)"/>
       <use xlink:href="#DejaVuSerif-cf0" transform="translate(531.0625 0)"/>
       <use xlink:href="#DejaVuSerif-51" transform="translate(597.765625 0)"/>
       <use xlink:href="#DejaVuSerif-4f" transform="translate(662.171875 0)"/>
       <use xlink:href="#DejaVuSerif-44" transform="translate(694.15625 0)"/>
       <use xlink:href="#DejaVuSerif-51" transform="translate(753.78125 0)"/>
       <use xlink:href="#DejaVuSerif-47" transform="translate(818.1875 0)"/>
      </g>
     </g>
    </g>
    <g id="ytick_15">
     <g id="line2d_41">
      <path d="M 125.500469 361.968885 
L 557.700469 361.968885 
" clip-path="url(#p363503b16f)" style="fill: none; stroke: #dddddd; stroke-width: 0.6; stroke-linecap: square"/>
     </g>
     <g id="line2d_42">
      <g>
       <use xlink:href="#me83073bb44" x="125.500469" y="361.968885" style="stroke: #000000; stroke-width: 0.8"/>
      </g>
     </g>
     <g id="text_22">
      <!-- ukraine → russia -->
      <g transform="translate(42.73875 365.388182) scale(0.09 -0.09)">
       <defs>
        <path id="DejaVuSerif-4e" d="M 1831 0 
L 219 0 
L 219 331 
L 738 331 
L 738 4531 
L 184 4531 
L 184 4863 
L 1313 4863 
L 1313 1697 
L 2713 2988 
L 2234 2988 
L 2234 3322 
L 3738 3322 
L 3738 2988 
L 3169 2988 
L 2181 2075 
L 3444 331 
L 3922 331 
L 3922 0 
L 2284 0 
L 2284 331 
L 2759 331 
L 1766 1697 
L 1313 1275 
L 1313 331 
L 1831 331 
L 1831 0 
z
" transform="scale(0.015625)"/>
       </defs>
       <use xlink:href="#DejaVuSerif-58"/>
       <use xlink:href="#DejaVuSerif-4e" transform="translate(64.40625 0)"/>
       <use xlink:href="#DejaVuSerif-55" transform="translate(125 0)"/>
       <use xlink:href="#DejaVuSerif-44" transform="translate(172.796875 0)"/>
       <use xlink:href="#DejaVuSerif-4c" transform="translate(232.421875 0)"/>
       <use xlink:href="#DejaVuSerif-51" transform="translate(264.40625 0)"/>
       <use xlink:href="#DejaVuSerif-48" transform="translate(328.8125 0)"/>
       <use xlink:href="#DejaVuSerif-3" transform="translate(388 0)"/>
       <use xlink:href="#DejaVuSerif-854" transform="translate(419.78125 0)"/>
       <use xlink:href="#DejaVuSerif-3" transform="translate(503.578125 0)"/>
       <use xlink:href="#DejaVuSerif-55" transform="translate(535.359375 0)"/>
       <use xlink:href="#DejaVuSerif-58" transform="translate(583.15625 0)"/>
       <use xlink:href="#DejaVuSerif-56" transform="translate(647.5625 0)"/>
       <use xlink:href="#DejaVuSerif-56" transform="translate(698.875 0)"/>
       <use xlink:href="#DejaVuSerif-4c" transform="translate(750.1875 0)"/>
       <use xlink:href="#DejaVuSerif-44" transform="translate(782.171875 0)"/>
      </g>
     </g>
    </g>
   </g>
   <g id="patch_3">
    <path d="M 125.500469 38.19658 
L 537.119516 38.19658 
L 537.119516 56.183931 
L 125.500469 56.183931 
z
" clip-path="url(#p363503b16f)" style="fill: #4c72b0"/>
   </g>
   <g id="patch_4">
    <path d="M 125.500469 60.680768 
L 454.795707 60.680768 
L 454.795707 78.668118 
L 125.500469 78.668118 
z
" clip-path="url(#p363503b16f)" style="fill: #4c72b0"/>
   </g>
   <g id="patch_5">
    <path d="M 125.500469 83.164956 
L 454.795707 83.164956 
L 454.795707 101.152306 
L 125.500469 101.152306 
z
" clip-path="url(#p363503b16f)" style="fill: #4c72b0"/>
   </g>
   <g id="patch_6">
    <path d="M 125.500469 105.649144 
L 372.471897 105.649144 
L 372.471897 123.636494 
L 125.500469 123.636494 
z
" clip-path="url(#p363503b16f)" style="fill: #4c72b0"/>
   </g>
   <g id="patch_7">
    <path d="M 125.500469 128.133332 
L 372.471897 128.133332 
L 372.471897 146.120682 
L 125.500469 146.120682 
z
" clip-path="url(#p363503b16f)" style="fill: #4c72b0"/>
   </g>
   <g id="patch_8">
    <path d="M 125.500469 150.617519 
L 372.471897 150.617519 
L 372.471897 168.60487 
L 125.500469 168.60487 
z
" clip-path="url(#p363503b16f)" style="fill: #4c72b0"/>
   </g>
   <g id="patch_9">
    <path d="M 125.500469 173.101707 
L 290.148088 173.101707 
L 290.148088 191.089058 
L 125.500469 191.089058 
z
" clip-path="url(#p363503b16f)" style="fill: #4c72b0"/>
   </g>
   <g id="patch_10">
    <path d="M 125.500469 195.585895 
L 290.148088 195.585895 
L 290.148088 213.573245 
L 125.500469 213.573245 
z
" clip-path="url(#p363503b16f)" style="fill: #4c72b0"/>
   </g>
   <g id="patch_11">
    <path d="M 125.500469 218.070083 
L 290.148088 218.070083 
L 290.148088 236.057433 
L 125.500469 236.057433 
z
" clip-path="url(#p363503b16f)" style="fill: #4c72b0"/>
   </g>
   <g id="patch_12">
    <path d="M 125.500469 240.554271 
L 290.148088 240.554271 
L 290.148088 258.541621 
L 125.500469 258.541621 
z
" clip-path="url(#p363503b16f)" style="fill: #4c72b0"/>
   </g>
   <g id="patch_13">
    <path d="M 125.500469 263.038459 
L 290.148088 263.038459 
L 290.148088 281.025809 
L 125.500469 281.025809 
z
" clip-path="url(#p363503b16f)" style="fill: #4c72b0"/>
   </g>
   <g id="patch_14">
    <path d="M 125.500469 285.522647 
L 290.148088 285.522647 
L 290.148088 303.509997 
L 125.500469 303.509997 
z
" clip-path="url(#p363503b16f)" style="fill: #4c72b0"/>
   </g>
   <g id="patch_15">
    <path d="M 125.500469 308.006834 
L 290.148088 308.006834 
L 290.148088 325.994185 
L 125.500469 325.994185 
z
" clip-path="url(#p363503b16f)" style="fill: #4c72b0"/>
   </g>
   <g id="patch_16">
    <path d="M 125.500469 330.491022 
L 290.148088 330.491022 
L 290.148088 348.478373 
L 125.500469 348.478373 
z
" clip-path="url(#p363503b16f)" style="fill: #4c72b0"/>
   </g>
   <g id="patch_17">
    <path d="M 125.500469 352.97521 
L 290.148088 352.97521 
L 290.148088 370.96256 
L 125.500469 370.96256 
z
" clip-path="url(#p363503b16f)" style="fill: #4c72b0"/>
   </g>
   <g id="patch_18">
    <path d="M 125.500469 387.600859 
L 125.500469 21.558281 
" style="fill: none; stroke: #000000; stroke-width: 0.8; stroke-linejoin: miter; stroke-linecap: square"/>
   </g>
   <g id="patch_19">
    <path d="M 125.500469 387.600859 
L 557.700469 387.600859 
" style="fill: none; stroke: #000000; stroke-width: 0.8; stroke-linejoin: miter; stroke-linecap: square"/>
   </g>
   <g id="text_23">
    <!-- Top 15 confusion pairs -->
    <g transform="translate(271.499531 15.558281) scale(0.11 -0.11)">
     <defs>
      <path id="DejaVuSerif-Bold-37" d="M 1159 0 
L 1159 378 
L 1778 378 
L 1778 4238 
L 500 4238 
L 500 3500 
L 72 3500 
L 72 4666 
L 4697 4666 
L 4697 3500 
L 4275 3500 
L 4275 4238 
L 2988 4238 
L 2988 378 
L 3609 378 
L 3609 0 
L 1159 0 
z
" transform="scale(0.015625)"/>
      <path id="DejaVuSerif-Bold-52" d="M 2138 263 
Q 2488 263 2630 563 
Q 2772 863 2772 1663 
Q 2772 2463 2631 2761 
Q 2491 3059 2138 3059 
Q 1784 3059 1640 2757 
Q 1497 2456 1497 1663 
Q 1497 869 1640 566 
Q 1784 263 2138 263 
z
M 2138 -91 
Q 1259 -91 761 376 
Q 263 844 263 1663 
Q 263 2484 761 2948 
Q 1259 3413 2138 3413 
Q 3019 3413 3516 2948 
Q 4013 2484 4013 1663 
Q 4013 844 3514 376 
Q 3016 -91 2138 -91 
z
" transform="scale(0.015625)"/>
      <path id="DejaVuSerif-Bold-53" d="M 1728 1825 
L 1728 1497 
Q 1728 916 1876 656 
Q 2025 397 2356 397 
Q 2697 397 2836 672 
Q 2975 947 2975 1663 
Q 2975 2378 2836 2651 
Q 2697 2925 2356 2925 
Q 2025 2925 1876 2665 
Q 1728 2406 1728 1825 
z
M 622 2944 
L 147 2944 
L 147 3322 
L 1728 3322 
L 1728 2900 
Q 1869 3159 2106 3286 
Q 2344 3413 2694 3413 
Q 3403 3413 3811 2945 
Q 4219 2478 4219 1663 
Q 4219 847 3811 378 
Q 3403 -91 2694 -91 
Q 2344 -91 2106 36 
Q 1869 163 1728 422 
L 1728 -953 
L 2241 -953 
L 2241 -1331 
L 147 -1331 
L 147 -953 
L 622 -953 
L 622 2944 
z
" transform="scale(0.015625)"/>
      <path id="DejaVuSerif-Bold-3" transform="scale(0.015625)"/>
      <path id="DejaVuSerif-Bold-14" d="M 878 0 
L 878 378 
L 1753 378 
L 1753 4153 
L 781 3578 
L 781 4044 
L 1953 4750 
L 2938 4750 
L 2938 378 
L 3816 378 
L 3816 0 
L 878 0 
z
" transform="scale(0.015625)"/>
      <path id="DejaVuSerif-Bold-18" d="M 3609 4666 
L 3609 3847 
L 1113 3847 
L 1113 2822 
Q 1319 2981 1572 3062 
Q 1825 3144 2106 3144 
Q 2969 3144 3469 2708 
Q 3969 2272 3969 1522 
Q 3969 759 3469 334 
Q 2969 -91 2069 -91 
Q 1688 -91 1311 -28 
Q 934 34 525 166 
L 525 1184 
L 900 1184 
Q 919 725 1139 500 
Q 1359 275 1791 275 
Q 2250 275 2472 583 
Q 2694 891 2694 1522 
Q 2694 2144 2476 2451 
Q 2259 2759 1819 2759 
Q 1581 2759 1395 2661 
Q 1209 2563 1050 2356 
L 738 2356 
L 738 4666 
L 3609 4666 
z
" transform="scale(0.015625)"/>
      <path id="DejaVuSerif-Bold-46" d="M 3609 1038 
Q 3491 469 3123 189 
Q 2756 -91 2125 -91 
Q 1238 -91 750 368 
Q 263 828 263 1663 
Q 263 2488 744 2950 
Q 1225 3413 2081 3413 
Q 2428 3413 2781 3347 
Q 3134 3281 3500 3150 
L 3500 2228 
L 3150 2228 
Q 3100 2650 2903 2854 
Q 2706 3059 2350 3059 
Q 1888 3059 1692 2746 
Q 1497 2434 1497 1663 
Q 1497 909 1687 586 
Q 1878 263 2309 263 
Q 2644 263 2845 463 
Q 3047 663 3091 1038 
L 3609 1038 
z
" transform="scale(0.015625)"/>
      <path id="DejaVuSerif-Bold-51" d="M 219 0 
L 219 378 
L 691 378 
L 691 2944 
L 219 2944 
L 219 3322 
L 1797 3322 
L 1797 2853 
Q 1997 3150 2253 3281 
Q 2509 3413 2900 3413 
Q 3459 3413 3745 3083 
Q 4031 2753 4031 2113 
L 4031 378 
L 4506 378 
L 4506 0 
L 2522 0 
L 2522 378 
L 2925 378 
L 2925 2144 
Q 2925 2566 2817 2730 
Q 2709 2894 2444 2894 
Q 2109 2894 1953 2648 
Q 1797 2403 1797 1869 
L 1797 378 
L 2203 378 
L 2203 0 
L 219 0 
z
" transform="scale(0.015625)"/>
      <path id="DejaVuSerif-Bold-49" d="M 3097 4031 
L 2747 4031 
Q 2722 4275 2605 4394 
Q 2488 4513 2272 4513 
Q 2022 4513 1909 4333 
Q 1797 4153 1797 3750 
L 1797 3322 
L 2631 3322 
L 2631 2944 
L 1797 2944 
L 1797 378 
L 2438 378 
L 2438 0 
L 219 0 
L 219 378 
L 691 378 
L 691 2944 
L 197 2944 
L 197 3322 
L 691 3322 
L 691 3738 
Q 691 4291 1044 4577 
Q 1397 4863 2081 4863 
Q 2347 4863 2600 4833 
Q 2853 4803 3097 4744 
L 3097 4031 
z
" transform="scale(0.015625)"/>
      <path id="DejaVuSerif-Bold-58" d="M 3963 3322 
L 3963 378 
L 4434 378 
L 4434 0 
L 2853 0 
L 2853 469 
Q 2656 172 2400 40 
Q 2144 -91 1753 -91 
Q 1194 -91 908 239 
Q 622 569 622 1209 
L 622 2944 
L 147 2944 
L 147 3322 
L 1728 3322 
L 1728 1381 
Q 1728 763 1831 595 
Q 1934 428 2209 428 
Q 2544 428 2698 675 
Q 2853 922 2853 1459 
L 2853 2944 
L 2450 2944 
L 2450 3322 
L 3963 3322 
z
" transform="scale(0.015625)"/>
      <path id="DejaVuSerif-Bold-56" d="M 300 97 
L 300 1025 
L 653 1025 
Q 697 653 931 458 
Q 1166 263 1569 263 
Q 1906 263 2086 380 
Q 2266 497 2266 716 
Q 2266 916 2152 1025 
Q 2038 1134 1709 1216 
L 1253 1331 
Q 738 1459 506 1698 
Q 275 1938 275 2344 
Q 275 2884 650 3148 
Q 1025 3413 1806 3413 
Q 2100 3413 2433 3364 
Q 2766 3316 3169 3213 
L 3169 2375 
L 2816 2375 
Q 2788 2716 2573 2887 
Q 2359 3059 1959 3059 
Q 1622 3059 1448 2951 
Q 1275 2844 1275 2638 
Q 1275 2469 1375 2372 
Q 1475 2275 1734 2209 
L 2188 2094 
Q 2841 1928 3091 1684 
Q 3341 1441 3341 1006 
Q 3341 444 2939 176 
Q 2538 -91 1691 -91 
Q 1381 -91 1034 -44 
Q 688 3 300 97 
z
" transform="scale(0.015625)"/>
      <path id="DejaVuSerif-Bold-4c" d="M 588 4263 
Q 588 4516 763 4689 
Q 938 4863 1191 4863 
Q 1438 4863 1611 4689 
Q 1784 4516 1784 4263 
Q 1784 4016 1611 3842 
Q 1438 3669 1191 3669 
Q 938 3669 763 3841 
Q 588 4013 588 4263 
z
M 1797 378 
L 2272 378 
L 2272 0 
L 219 0 
L 219 378 
L 691 378 
L 691 2944 
L 219 2944 
L 219 3322 
L 1797 3322 
L 1797 378 
z
" transform="scale(0.015625)"/>
      <path id="DejaVuSerif-Bold-44" d="M 3525 2041 
L 3525 378 
L 4000 378 
L 4000 0 
L 2419 0 
L 2419 422 
Q 2200 159 1931 34 
Q 1663 -91 1319 -91 
Q 809 -91 536 182 
Q 263 456 263 966 
Q 263 1525 655 1803 
Q 1047 2081 1838 2081 
L 2419 2081 
L 2419 2278 
Q 2419 2681 2228 2873 
Q 2038 3066 1638 3066 
Q 1306 3066 1126 2930 
Q 947 2794 872 2484 
L 519 2484 
L 519 3200 
Q 816 3306 1134 3359 
Q 1453 3413 1806 3413 
Q 2697 3413 3111 3081 
Q 3525 2750 3525 2041 
z
M 2419 1044 
L 2419 1709 
L 2003 1709 
Q 1694 1709 1528 1540 
Q 1363 1372 1363 1056 
Q 1363 741 1483 584 
Q 1603 428 1850 428 
Q 2106 428 2262 597 
Q 2419 766 2419 1044 
z
" transform="scale(0.015625)"/>
      <path id="DejaVuSerif-Bold-55" d="M 3438 3359 
L 3438 2369 
L 3084 2369 
Q 3066 2634 2941 2764 
Q 2816 2894 2578 2894 
Q 2216 2894 2006 2575 
Q 1797 2256 1797 1691 
L 1797 378 
L 2400 378 
L 2400 0 
L 219 0 
L 219 378 
L 691 378 
L 691 2944 
L 184 2944 
L 184 3322 
L 1797 3322 
L 1797 2731 
Q 1959 3078 2226 3245 
Q 2494 3413 2881 3413 
Q 2978 3413 3117 3398 
Q 3256 3384 3438 3359 
z
" transform="scale(0.015625)"/>
     </defs>
     <use xlink:href="#DejaVuSerif-Bold-37"/>
     <use xlink:href="#DejaVuSerif-Bold-52" transform="translate(62.953125 0)"/>
     <use xlink:href="#DejaVuSerif-Bold-53" transform="translate(129.65625 0)"/>
     <use xlink:href="#DejaVuSerif-Bold-3" transform="translate(199.578125 0)"/>
     <use xlink:href="#DejaVuSerif-Bold-14" transform="translate(234.390625 0)"/>
     <use xlink:href="#DejaVuSerif-Bold-18" transform="translate(303.96875 0)"/>
     <use xlink:href="#DejaVuSerif-Bold-3" transform="translate(373.546875 0)"/>
     <use xlink:href="#DejaVuSerif-Bold-46" transform="translate(408.359375 0)"/>
     <use xlink:href="#DejaVuSerif-Bold-52" transform="translate(469.25 0)"/>
     <use xlink:href="#DejaVuSerif-Bold-51" transform="translate(535.953125 0)"/>
     <use xlink:href="#DejaVuSerif-Bold-49" transform="translate(608.65625 0)"/>
     <use xlink:href="#DejaVuSerif-Bold-58" transform="translate(651.671875 0)"/>
     <use xlink:href="#DejaVuSerif-Bold-56" transform="translate(724.375 0)"/>
     <use xlink:href="#DejaVuSerif-Bold-4c" transform="translate(780.671875 0)"/>
     <use xlink:href="#DejaVuSerif-Bold-52" transform="translate(818.65625 0)"/>
     <use xlink:href="#DejaVuSerif-Bold-51" transform="translate(885.359375 0)"/>
     <use xlink:href="#DejaVuSerif-Bold-3" transform="translate(958.0625 0)"/>
     <use xlink:href="#DejaVuSerif-Bold-53" transform="translate(992.875 0)"/>
     <use xlink:href="#DejaVuSerif-Bold-44" transform="translate(1062.796875 0)"/>
     <use xlink:href="#DejaVuSerif-Bold-4c" transform="translate(1127.59375 0)"/>
     <use xlink:href="#DejaVuSerif-Bold-55" transform="translate(1165.578125 0)"/>
     <use xlink:href="#DejaVuSerif-Bold-56" transform="translate(1218.265625 0)"/>
    </g>
   </g>
  </g>
 </g>
 <defs>
  <clipPath id="p363503b16f">
   <rect x="125.500469" y="21.558281" width="432.2" height="366.042578"/>
  </clipPath>
 </defs>
</svg>
